<svg width="1280" height="149" viewBox="0 0 1280 149" fill="none" xmlns="http://www.w3.org/2000/svg">
<path d="M397.167 4.80054L358.254 61.3385L319.341 4.80054H223.291L184.378 61.3385L145.464 4.80054H49.4147L1.38867 74.5765L49.4147 144.353H145.464L184.378 87.8155L223.291 144.353H319.341L358.254 87.8155L397.167 144.353H493.217L541.242 74.5765L493.217 4.80054H397.167Z" fill="#3D362E"/>
<path d="M481.437 144.353C481.437 142.216 483.169 140.484 485.306 140.484C487.441 140.484 489.174 142.216 489.174 144.353C489.174 146.49 487.441 148.222 485.306 148.222C483.169 148.222 481.437 146.49 481.437 144.353ZM468.206 144.353C468.206 142.216 469.938 140.484 472.075 140.484C474.21 140.484 475.942 142.216 475.942 144.353C475.942 146.49 474.21 148.222 472.075 148.222C469.938 148.222 468.206 146.49 468.206 144.353ZM454.974 144.353C454.974 142.216 456.705 140.484 458.843 140.484C460.979 140.484 462.713 142.216 462.713 144.353C462.713 146.49 460.979 148.222 458.843 148.222C456.705 148.222 454.974 146.49 454.974 144.353ZM441.742 144.353C441.742 142.216 443.475 140.484 445.611 140.484C447.747 140.484 449.479 142.216 449.479 144.353C449.479 146.49 447.747 148.222 445.611 148.222C443.475 148.222 441.742 146.49 441.742 144.353ZM428.511 144.353C428.511 142.216 430.244 140.484 432.381 140.484C434.515 140.484 436.249 142.216 436.249 144.353C436.249 146.49 434.515 148.222 432.381 148.222C430.244 148.222 428.511 146.49 428.511 144.353ZM415.281 144.353C415.281 142.216 417.011 140.484 419.149 140.484C421.285 140.484 423.018 142.216 423.018 144.353C423.018 146.49 421.285 148.222 419.149 148.222C417.011 148.222 415.281 146.49 415.281 144.353ZM402.048 144.353C402.048 142.216 403.78 140.484 405.917 140.484C408.052 140.484 409.786 142.216 409.786 144.353C409.786 146.49 408.052 148.222 405.917 148.222C403.78 148.222 402.048 146.49 402.048 144.353ZM302.714 144.353C302.714 142.216 304.446 140.484 306.583 140.484C308.721 140.484 310.451 142.216 310.451 144.353C310.451 146.49 308.721 148.222 306.583 148.222C304.446 148.222 302.714 146.49 302.714 144.353ZM289.482 144.353C289.482 142.216 291.215 140.484 293.351 140.484C295.488 140.484 297.221 142.216 297.221 144.353C297.221 146.49 295.488 148.222 293.351 148.222C291.215 148.222 289.482 146.49 289.482 144.353ZM276.251 144.353C276.251 142.216 277.985 140.484 280.121 140.484C282.257 140.484 283.989 142.216 283.989 144.353C283.989 146.49 282.257 148.222 280.121 148.222C277.985 148.222 276.251 146.49 276.251 144.353ZM263.019 144.353C263.019 142.216 264.753 140.484 266.888 140.484C269.027 140.484 270.758 142.216 270.758 144.353C270.758 146.49 269.027 148.222 266.888 148.222C264.753 148.222 263.019 146.49 263.019 144.353ZM249.788 144.353C249.788 142.216 251.522 140.484 253.657 140.484C255.794 140.484 257.526 142.216 257.526 144.353C257.526 146.49 255.794 148.222 253.657 148.222C251.522 148.222 249.788 146.49 249.788 144.353ZM236.557 144.353C236.557 142.216 238.289 140.484 240.426 140.484C242.562 140.484 244.295 142.216 244.295 144.353C244.295 146.49 242.562 148.222 240.426 148.222C238.289 148.222 236.557 146.49 236.557 144.353ZM223.326 144.353C223.326 142.216 225.058 140.484 227.195 140.484C229.332 140.484 231.064 142.216 231.064 144.353C231.064 146.49 229.332 148.222 227.195 148.222C225.058 148.222 223.326 146.49 223.326 144.353ZM137.224 144.353C137.224 142.216 138.956 140.484 141.091 140.484C143.228 140.484 144.961 142.216 144.961 144.353C144.961 146.49 143.228 148.222 141.091 148.222C138.956 148.222 137.224 146.49 137.224 144.353ZM123.992 144.353C123.992 142.216 125.724 140.484 127.861 140.484C129.997 140.484 131.729 142.216 131.729 144.353C131.729 146.49 129.997 148.222 127.861 148.222C125.724 148.222 123.992 146.49 123.992 144.353ZM110.76 144.353C110.76 142.216 112.493 140.484 114.629 140.484C116.767 140.484 118.498 142.216 118.498 144.353C118.498 146.49 116.767 148.222 114.629 148.222C112.493 148.222 110.76 146.49 110.76 144.353ZM97.5297 144.353C97.5297 142.216 99.2617 140.484 101.399 140.484C103.534 140.484 105.266 142.216 105.266 144.353C105.266 146.49 103.534 148.222 101.399 148.222C99.2617 148.222 97.5297 146.49 97.5297 144.353ZM84.2977 144.353C84.2977 142.216 86.0287 140.484 88.1677 140.484C90.3027 140.484 92.0357 142.216 92.0357 144.353C92.0357 146.49 90.3027 148.222 88.1677 148.222C86.0287 148.222 84.2977 146.49 84.2977 144.353ZM71.0657 144.353C71.0657 142.216 72.7977 140.484 74.9347 140.484C77.0717 140.484 78.8027 142.216 78.8027 144.353C78.8027 146.49 77.0717 148.222 74.9347 148.222C72.7977 148.222 71.0657 146.49 71.0657 144.353ZM57.8347 144.353C57.8347 142.216 59.5667 140.484 61.7037 140.484C63.8387 140.484 65.5727 142.216 65.5727 144.353C65.5727 146.49 63.8387 148.222 61.7037 148.222C59.5667 148.222 57.8347 146.49 57.8347 144.353ZM317.416 147.148C315.657 145.938 315.211 143.53 316.422 141.769C317.634 140.008 320.042 139.565 321.803 140.777C323.562 141.987 324.007 144.398 322.797 146.156C322.044 147.246 320.836 147.832 319.606 147.832C318.85 147.832 318.086 147.611 317.416 147.148ZM45.6927 145.77C44.4807 144.011 44.9267 141.6 46.6867 140.39C48.4467 139.178 50.8567 139.623 52.0667 141.382C53.2787 143.143 52.8327 145.553 51.0737 146.765C50.4027 147.224 49.6407 147.446 48.8847 147.446C47.6547 147.446 46.4447 146.861 45.6927 145.77ZM391.438 142.855C390.228 141.095 390.673 138.686 392.434 137.474C394.193 136.264 396.603 136.709 397.813 138.468C399.025 140.228 398.582 142.637 396.821 143.849C396.15 144.309 395.387 144.531 394.631 144.531C393.401 144.531 392.189 143.945 391.438 142.855ZM494.038 143.159C492.279 141.947 491.834 139.536 493.046 137.777C494.257 136.019 496.666 135.571 498.427 136.784C500.186 137.994 500.632 140.404 499.421 142.165C498.67 143.255 497.46 143.84 496.228 143.84C495.472 143.84 494.709 143.618 494.038 143.159ZM148.293 140.243C146.535 139.032 146.089 136.622 147.3 134.863C148.512 133.103 150.92 132.658 152.681 133.868C154.44 135.08 154.885 137.488 153.675 139.249C152.924 140.339 151.713 140.924 150.484 140.924C149.728 140.924 148.964 140.704 148.293 140.243ZM214.816 138.862C213.604 137.101 214.049 134.695 215.808 133.483C217.568 132.271 219.979 132.716 221.189 134.477C222.401 136.237 221.956 138.644 220.197 139.856C219.526 140.317 218.763 140.537 218.007 140.537C216.777 140.537 215.566 139.952 214.816 138.862ZM324.918 136.25C323.157 135.039 322.712 132.631 323.924 130.87C325.134 129.11 327.544 128.666 329.305 129.876C331.063 131.089 331.509 133.497 330.299 135.256C329.548 136.347 328.338 136.933 327.106 136.933C326.35 136.933 325.587 136.711 324.918 136.25ZM38.1907 134.87C36.9797 133.112 37.4267 130.702 39.1847 129.489C40.9437 128.279 43.3527 128.724 44.5657 130.483C45.7777 132.244 45.3317 134.654 43.5707 135.864C42.9017 136.326 42.1367 136.546 41.3797 136.546C40.1507 136.546 38.9397 135.962 38.1907 134.87ZM383.938 131.954C382.726 130.196 383.171 127.785 384.93 126.575C386.69 125.363 389.101 125.808 390.313 127.567C391.523 129.328 391.078 131.738 389.319 132.95C388.648 133.41 387.885 133.632 387.129 133.632C385.899 133.632 384.689 133.046 383.938 131.954ZM501.542 132.258C499.781 131.047 499.336 128.637 500.546 126.877C501.76 125.118 504.169 124.673 505.929 125.885C507.689 127.095 508.133 129.505 506.921 131.266C506.172 132.356 504.962 132.941 503.732 132.941C502.976 132.941 502.211 132.719 501.542 132.258ZM155.796 129.344C154.035 128.132 153.59 125.721 154.802 123.964C156.012 122.204 158.422 121.757 160.183 122.969C161.943 124.179 162.387 126.589 161.175 128.35C160.424 129.439 159.216 130.025 157.984 130.025C157.228 130.025 156.465 129.803 155.796 129.344ZM207.314 127.963C206.102 126.202 206.549 123.796 208.308 122.584C210.068 121.373 212.475 121.817 213.689 123.577C214.899 125.337 214.454 127.745 212.693 128.957C212.024 129.418 211.261 129.638 210.505 129.638C209.273 129.638 208.064 129.053 207.314 127.963ZM332.42 125.35C330.659 124.139 330.215 121.732 331.426 119.971C332.638 118.211 335.046 117.767 336.807 118.978C338.566 120.189 339.011 122.596 337.799 124.357C337.05 125.448 335.84 126.034 334.608 126.034C333.854 126.034 333.089 125.812 332.42 125.35ZM30.6897 123.972C29.4787 122.213 29.9217 119.802 31.6827 118.591C33.4437 117.38 35.8527 117.825 37.0627 119.584C38.2747 121.345 37.8307 123.753 36.0707 124.965C35.3987 125.427 34.6367 125.649 33.8807 125.649C32.6487 125.647 31.4407 125.061 30.6897 123.972ZM376.436 121.056C375.226 119.297 375.669 116.886 377.43 115.676C379.191 114.464 381.597 114.91 382.811 116.669C384.021 118.429 383.576 120.839 381.815 122.05C381.146 122.511 380.381 122.731 379.625 122.731C378.395 122.731 377.187 122.147 376.436 121.056ZM509.044 121.359C507.283 120.149 506.838 117.739 508.05 115.98C509.26 114.219 511.669 113.774 513.429 114.986C515.19 116.196 515.634 118.606 514.423 120.365C513.673 121.457 512.464 122.042 511.234 122.042C510.478 122.042 509.713 121.82 509.044 121.359ZM163.298 118.445C161.537 117.233 161.093 114.823 162.304 113.062C163.516 111.303 165.924 110.858 167.683 112.07C169.444 113.282 169.889 115.691 168.677 117.451C167.928 118.541 166.718 119.127 165.488 119.127C164.731 119.127 163.967 118.905 163.298 118.445ZM199.812 117.064C198.601 115.304 199.045 112.897 200.806 111.685C202.566 110.473 204.975 110.918 206.185 112.679C207.397 114.439 206.953 116.846 205.193 118.058C204.524 118.52 203.759 118.74 203.003 118.74C201.773 118.74 200.562 118.154 199.812 117.064ZM339.921 114.452C338.161 113.239 337.717 110.833 338.928 109.072C340.14 107.312 342.546 106.868 344.307 108.078C346.068 109.291 346.511 111.697 345.301 113.458C344.55 114.547 343.342 115.133 342.11 115.133C341.356 115.133 340.591 114.913 339.921 114.452ZM23.1887 113.071C21.9777 111.312 22.4207 108.904 24.1817 107.692C25.9417 106.481 28.3497 106.925 29.5627 108.685C30.7727 110.446 30.3297 112.854 28.5687 114.067C27.8977 114.526 27.1347 114.748 26.3787 114.748C25.1487 114.748 23.9377 114.162 23.1887 113.071ZM368.934 110.159C367.723 108.398 368.167 105.988 369.928 104.775C371.688 103.565 374.097 104.011 375.307 105.769C376.519 107.53 376.076 109.939 374.315 111.15C373.644 111.612 372.881 111.834 372.125 111.834C370.893 111.832 369.685 111.248 368.934 110.159ZM516.544 110.46C514.783 109.248 514.34 106.84 515.552 105.079C516.762 103.32 519.172 102.875 520.931 104.085C522.692 105.298 523.137 107.706 521.927 109.466C521.175 110.556 519.966 111.142 518.734 111.142C517.978 111.142 517.215 110.92 516.544 110.46ZM170.799 107.544C169.039 106.334 168.595 103.924 169.806 102.165C171.018 100.404 173.426 99.9587 175.185 101.171C176.946 102.381 177.389 104.791 176.179 106.552C175.428 107.642 174.219 108.228 172.989 108.228C172.233 108.228 171.47 108.006 170.799 107.544ZM192.312 106.165C191.099 104.405 191.543 101.996 193.304 100.786C195.062 99.5717 197.473 100.017 198.685 101.778C199.895 103.538 199.451 105.947 197.691 107.157C197.02 107.619 196.257 107.841 195.499 107.841C194.269 107.841 193.061 107.255 192.312 106.165ZM347.422 103.553C345.663 102.341 345.218 99.9317 346.43 98.1707C347.64 96.4107 350.05 95.9667 351.809 97.1787C353.57 98.3897 354.015 100.798 352.805 102.559C352.052 103.65 350.843 104.234 349.612 104.234C348.856 104.234 348.093 104.014 347.422 103.553ZM15.6857 102.172C14.4747 100.413 14.9207 98.0027 16.6807 96.7927C18.4397 95.5797 20.8477 96.0277 22.0607 97.7857C23.2727 99.5467 22.8267 101.954 21.0667 103.167C20.3957 103.627 19.6327 103.849 18.8767 103.849C17.6457 103.849 16.4367 103.264 15.6857 102.172ZM361.432 99.2557C360.222 97.4987 360.667 95.0887 362.426 93.8767C364.185 92.6657 366.595 93.1117 367.807 94.8707C369.017 96.6307 368.573 99.0407 366.813 100.252C366.142 100.712 365.379 100.933 364.623 100.933C363.393 100.933 362.183 100.348 361.432 99.2557ZM524.046 99.5607C522.287 98.3487 521.842 95.9407 523.052 94.1797C524.264 92.4207 526.674 91.9757 528.435 93.1857C530.192 94.3977 530.639 96.8067 529.427 98.5677C528.676 99.6567 527.468 100.243 526.236 100.243C525.48 100.243 524.717 100.021 524.046 99.5607ZM178.3 96.6447C176.541 95.4347 176.095 93.0247 177.307 91.2637C178.518 89.5047 180.928 89.0597 182.689 90.2697C183.441 90.7887 183.952 91.5267 184.197 92.3377C184.384 91.3777 184.932 90.4847 185.803 89.8867C187.562 88.6747 189.973 89.1177 191.183 90.8787C192.395 92.6377 191.947 95.0477 190.189 96.2587C188.428 97.4697 186.02 97.0267 184.808 95.2657C184.577 94.9287 184.405 94.5687 184.293 94.1957C184.194 94.7037 183.991 95.1997 183.681 95.6527C182.93 96.7427 181.721 97.3287 180.492 97.3287C179.734 97.3287 178.97 97.1067 178.3 96.6447ZM354.924 92.6517C353.165 91.4417 352.72 89.0327 353.93 87.2727C355.142 85.5117 357.552 85.0677 359.311 86.2807C361.07 87.4907 361.517 89.8997 360.305 91.6597C359.556 92.7497 358.346 93.3357 357.116 93.3357C356.36 93.3357 355.595 93.1137 354.924 92.6517ZM8.1847 91.2727C6.9727 89.5137 7.41871 87.1037 9.17771 85.8937C10.9377 84.6807 13.3457 85.1267 14.5587 86.8857C15.7707 88.6457 15.3247 91.0547 13.5657 92.2647C12.8947 92.7277 12.1307 92.9487 11.3747 92.9487C10.1447 92.9487 8.9337 92.3627 8.1847 91.2727ZM531.55 88.6617C529.789 87.4497 529.342 85.0397 530.554 83.2797C531.765 81.5197 534.175 81.0747 535.935 82.2867C537.696 83.4977 538.139 85.9077 536.929 87.6667C536.178 88.7577 534.968 89.3437 533.738 89.3437C532.982 89.3437 532.219 89.1217 531.55 88.6617ZM0.683724 80.3737C-0.529276 78.6147 -0.0852786 76.2047 1.67472 74.9947C3.43572 73.7827 5.84472 74.2257 7.05772 75.9867C8.26872 77.7467 7.82272 80.1557 6.06272 81.3677C5.39372 81.8287 4.62772 82.0497 3.87272 82.0497C2.64272 82.0497 1.43172 81.4637 0.683724 80.3737ZM538.053 76.7687C536.842 75.0087 537.286 72.5987 539.046 71.3877C540.807 70.1757 543.215 70.6217 544.426 72.3797C545.638 74.1407 545.194 76.5497 543.434 77.7617C542.765 78.2227 542 78.4447 541.243 78.4427C540.012 78.4427 538.803 77.8587 538.053 76.7687ZM4.21772 70.4677C2.45672 69.2567 2.0127 66.8487 3.2237 65.0877C4.4357 63.3287 6.84271 62.8837 8.60371 64.0937C10.3647 65.3057 10.8107 67.7147 9.59773 69.4747C8.84673 70.5647 7.63872 71.1507 6.40772 71.1507C5.65072 71.1507 4.88772 70.9287 4.21772 70.4677ZM530.551 65.8687C529.338 64.1097 529.785 61.6997 531.546 60.4877C533.303 59.2767 535.713 59.7227 536.926 61.4817C538.136 63.2417 537.692 65.6517 535.932 66.8627C535.261 67.3237 534.498 67.5437 533.741 67.5437C532.512 67.5437 531.301 66.9587 530.551 65.8687ZM179.847 61.5807C178.637 59.8217 179.082 57.4117 180.841 56.2017C182.602 54.9887 185.012 55.4347 186.222 57.1937C187.434 58.9537 186.987 61.3637 185.229 62.5747C184.56 63.0357 183.794 63.2567 183.038 63.2567C181.808 63.2567 180.598 62.6707 179.847 61.5807ZM357.467 62.4837C355.706 61.2717 355.259 58.8637 356.472 57.1027C357.682 55.3427 360.092 54.8987 361.851 56.1107C363.611 57.3207 364.057 59.7297 362.847 61.4897C362.096 62.5817 360.885 63.1657 359.656 63.1657C358.899 63.1657 358.136 62.9457 357.467 62.4837ZM11.7187 59.5677C9.95873 58.3557 9.51372 55.9497 10.7257 54.1887C11.9367 52.4287 14.3477 51.9847 16.1037 53.1947C17.8647 54.4067 18.3117 56.8157 17.0997 58.5737C16.3497 59.6657 15.1387 60.2517 13.9087 60.2517C13.1527 60.2497 12.3887 60.0297 11.7187 59.5677ZM523.049 54.9677C521.838 53.2087 522.284 50.8007 524.042 49.5887C525.803 48.3787 528.213 48.8217 529.424 50.5827C530.635 52.3427 530.188 54.7507 528.431 55.9637C527.761 56.4237 526.998 56.6447 526.241 56.6447C525.011 56.6447 523.8 56.0597 523.049 54.9677ZM348.969 54.6727C347.759 52.9127 348.205 50.5047 349.964 49.2937C351.724 48.0797 354.132 48.5277 355.343 50.2877C356.557 52.0467 356.111 54.4547 354.351 55.6667C353.682 56.1287 352.919 56.3487 352.161 56.3487C350.931 56.3487 349.72 55.7627 348.969 54.6727ZM188.345 55.5767C186.584 54.3667 186.137 51.9557 187.349 50.1967C188.56 48.4367 190.97 47.9917 192.73 49.2017C194.489 50.4137 194.935 52.8237 193.724 54.5847C192.974 55.6737 191.763 56.2597 190.533 56.2597C189.777 56.2597 189.014 56.0377 188.345 55.5767ZM172.347 50.6797C171.135 48.9207 171.579 46.5127 173.339 45.3007C175.1 44.0907 177.508 44.5357 178.72 46.2947C179.932 48.0547 179.487 50.4637 177.726 51.6757C177.057 52.1357 176.293 52.3577 175.537 52.3577C174.306 52.3577 173.096 51.7717 172.347 50.6797ZM364.967 51.5837C363.207 50.3727 362.761 47.9647 363.973 46.2037C365.186 44.4437 367.594 43.9997 369.355 45.2117C371.114 46.4227 371.559 48.8307 370.347 50.5907C369.598 51.6807 368.387 52.2667 367.157 52.2667C366.401 52.2667 365.636 52.0447 364.967 51.5837ZM19.2207 48.6687C17.4627 47.4567 17.0147 45.0507 18.2267 43.2897C19.4367 41.5287 21.8467 41.0857 23.6077 42.2957C25.3677 43.5077 25.8127 45.9147 24.6017 47.6757C23.8507 48.7667 22.6407 49.3527 21.4087 49.3527C20.6527 49.3527 19.8907 49.1307 19.2207 48.6687ZM515.548 44.0687C514.336 42.3107 514.78 39.8997 516.541 38.6897C518.301 37.4777 520.71 37.9247 521.923 39.6837C523.134 41.4427 522.688 43.8507 520.927 45.0647C520.259 45.5237 519.496 45.7457 518.739 45.7457C517.508 45.7457 516.299 45.1607 515.548 44.0687ZM341.469 43.7747C340.257 42.0137 340.701 39.6057 342.461 38.3947C344.222 37.1827 346.63 37.6267 347.843 39.3867C349.055 41.1457 348.609 43.5557 346.849 44.7677C346.179 45.2297 345.415 45.4497 344.659 45.4497C343.428 45.4497 342.218 44.8637 341.469 43.7747ZM195.845 44.6777C194.085 43.4677 193.639 41.0577 194.853 39.2967C196.063 37.5377 198.472 37.0927 200.233 38.3027C201.991 39.5167 202.437 41.9257 201.224 43.6857C200.474 44.7737 199.265 45.3617 198.034 45.3617C197.279 45.3617 196.514 45.1397 195.845 44.6777ZM164.845 39.7807C163.633 38.0227 164.078 35.6137 165.839 34.4017C167.599 33.1917 170.006 33.6367 171.218 35.3957C172.429 37.1567 171.985 39.5627 170.224 40.7747C169.555 41.2367 168.791 41.4577 168.034 41.4577C166.804 41.4577 165.596 40.8727 164.845 39.7807ZM372.469 40.6847C370.709 39.4737 370.265 37.0657 371.475 35.3057C372.688 33.5447 375.096 33.1007 376.856 34.3117C378.615 35.5237 379.061 37.9317 377.849 39.6927C377.1 40.7817 375.889 41.3677 374.66 41.3677C373.904 41.3677 373.14 41.1457 372.469 40.6847ZM26.7227 37.7687C24.9617 36.5577 24.5167 34.1497 25.7287 32.3887C26.9407 30.6287 29.3497 30.1847 31.1097 31.3967C32.8707 32.6077 33.3137 35.0157 32.1027 36.7767C31.3537 37.8657 30.1427 38.4517 28.9137 38.4517C28.1567 38.4517 27.3917 38.2297 26.7227 37.7687ZM508.047 33.1697C506.836 31.4117 507.28 29.0017 509.04 27.7907C510.801 26.5787 513.208 27.0227 514.419 28.7827C515.63 30.5437 515.187 32.9537 513.426 34.1657C512.757 34.6257 511.993 34.8477 511.237 34.8477C510.006 34.8477 508.797 34.2617 508.047 33.1697ZM333.967 32.8757C332.755 31.1147 333.201 28.7067 334.961 27.4957C336.722 26.2827 339.13 26.7277 340.34 28.4877C341.553 30.2487 341.106 32.6567 339.346 33.8677C338.676 34.3287 337.913 34.5507 337.156 34.5507C335.927 34.5507 334.716 33.9647 333.967 32.8757ZM203.347 33.7787C201.587 32.5667 201.143 30.1577 202.353 28.3997C203.565 26.6387 205.974 26.1937 207.732 27.4037C209.493 28.6157 209.939 31.0247 208.727 32.7847C207.977 33.8747 206.767 34.4607 205.537 34.4607C204.781 34.4607 204.016 34.2387 203.347 33.7787ZM157.343 28.8817C156.131 27.1237 156.576 24.7137 158.337 23.5027C160.096 22.2907 162.506 22.7347 163.716 24.4947C164.928 26.2557 164.483 28.6657 162.724 29.8777C162.053 30.3377 161.29 30.5597 160.534 30.5597C159.304 30.5597 158.094 29.9737 157.343 28.8817ZM379.971 29.7857C378.211 28.5757 377.765 26.1667 378.977 24.4057C380.188 22.6457 382.596 22.2017 384.357 23.4117C386.117 24.6247 386.563 27.0327 385.351 28.7917C384.6 29.8827 383.39 30.4687 382.159 30.4687C381.403 30.4687 380.64 30.2467 379.971 29.7857ZM34.2247 26.8697C32.4647 25.6597 32.0207 23.2507 33.2307 21.4897C34.4427 19.7297 36.8497 19.2857 38.6107 20.4987C40.3707 21.7087 40.8157 24.1187 39.6037 25.8777C38.8537 26.9677 37.6447 27.5527 36.4147 27.5527C35.6587 27.5527 34.8957 27.3327 34.2247 26.8697ZM500.544 22.2717C499.334 20.5117 499.778 18.1017 501.539 16.8917C503.297 15.6797 505.707 16.1237 506.918 17.8837C508.13 19.6447 507.686 22.0527 505.926 23.2647C505.255 23.7267 504.491 23.9467 503.735 23.9467C502.504 23.9467 501.295 23.3607 500.544 22.2717ZM326.466 21.9767C325.253 20.2157 325.698 17.8077 327.459 16.5937C329.218 15.3837 331.628 15.8287 332.838 17.5887C334.051 19.3477 333.605 21.7587 331.846 22.9687C331.175 23.4297 330.411 23.6517 329.655 23.6517C328.425 23.6517 327.216 23.0667 326.466 21.9767ZM210.847 22.8797C209.089 21.6677 208.643 19.2577 209.855 17.5007C211.065 15.7397 213.476 15.2927 215.235 16.5047C216.995 17.7157 217.44 20.1257 216.229 21.8857C215.478 22.9757 214.268 23.5607 213.037 23.5607C212.281 23.5607 211.518 23.3397 210.847 22.8797ZM149.841 17.9837C148.629 16.2247 149.074 13.8147 150.833 12.6037C152.594 11.3917 155.004 11.8367 156.216 13.5957C157.427 15.3567 156.981 17.7647 155.221 18.9767C154.552 19.4387 153.786 19.6587 153.03 19.6587C151.801 19.6587 150.592 19.0727 149.841 17.9837ZM387.472 18.8867C385.713 17.6747 385.267 15.2677 386.479 13.5077C387.69 11.7467 390.1 11.3007 391.859 12.5137C393.619 13.7237 394.065 16.1327 392.853 17.8927C392.102 18.9827 390.892 19.5677 389.662 19.5677C388.906 19.5677 388.143 19.3477 387.472 18.8867ZM41.7247 15.9707C39.9657 14.7597 39.5207 12.3517 40.7327 10.5917C41.9437 8.83067 44.3537 8.38767 46.1117 9.59767C47.8727 10.8097 48.3177 13.2177 47.1087 14.9767C46.3547 16.0687 45.1447 16.6537 43.9147 16.6537C43.1587 16.6537 42.3957 16.4317 41.7247 15.9707ZM493.042 11.3727C491.832 9.61168 492.278 7.20368 494.036 5.99068C495.797 4.78068 498.205 5.22468 499.417 6.98468C500.628 8.74568 500.182 11.1537 498.424 12.3647C497.753 12.8277 496.99 13.0477 496.232 13.0477C495.003 13.0477 493.793 12.4617 493.042 11.3727ZM318.963 11.0757C317.753 9.31568 318.198 6.90867 319.957 5.69667C321.718 4.48367 324.126 4.92967 325.338 6.69067C326.549 8.44867 326.103 10.8577 324.343 12.0697C323.674 12.5317 322.91 12.7517 322.154 12.7517C320.925 12.7517 319.714 12.1657 318.963 11.0757ZM218.349 11.9797C216.59 10.7687 216.145 8.35867 217.356 6.59767C218.568 4.83967 220.978 4.39368 222.737 5.60568C224.497 6.81668 224.943 9.22668 223.731 10.9867C222.98 12.0767 221.771 12.6627 220.541 12.6627C219.785 12.6627 219.02 12.4407 218.349 11.9797ZM142.339 7.08467C141.129 5.32567 141.573 2.91568 143.333 1.70268C145.093 0.492682 147.5 0.936671 148.712 2.69667C149.926 4.45767 149.479 6.86568 147.718 8.07668C147.048 8.53968 146.284 8.75967 145.528 8.75967C144.299 8.75967 143.09 8.17367 142.339 7.08467ZM481.432 4.80067C481.432 2.66467 483.164 0.932678 485.301 0.932678C487.436 0.932678 489.17 2.66467 489.17 4.80067C489.17 6.93667 487.436 8.66968 485.301 8.66968C483.164 8.66968 481.432 6.93667 481.432 4.80067ZM468.201 4.80067C468.201 2.66467 469.931 0.932678 472.07 0.932678C474.205 0.932678 475.939 2.66467 475.939 4.80067C475.939 6.93667 474.205 8.66968 472.07 8.66968C469.931 8.66968 468.201 6.93667 468.201 4.80067ZM454.968 4.80067C454.968 2.66467 456.7 0.932678 458.837 0.932678C460.972 0.932678 462.706 2.66467 462.706 4.80067C462.706 6.93667 460.972 8.66968 458.837 8.66968C456.7 8.66968 454.968 6.93667 454.968 4.80067ZM441.737 4.80067C441.737 2.66467 443.469 0.932678 445.606 0.932678C447.741 0.932678 449.475 2.66467 449.475 4.80067C449.475 6.93667 447.741 8.66968 445.606 8.66968C443.469 8.66968 441.737 6.93667 441.737 4.80067ZM428.506 4.80067C428.506 2.66467 430.237 0.932678 432.375 0.932678C434.51 0.932678 436.244 2.66467 436.244 4.80067C436.244 6.93667 434.51 8.66968 432.375 8.66968C430.237 8.66968 428.506 6.93667 428.506 4.80067ZM415.273 4.80067C415.273 2.66467 417.006 0.932678 419.143 0.932678C421.281 0.932678 423.011 2.66467 423.011 4.80067C423.011 6.93667 421.281 8.66968 419.143 8.66968C417.006 8.66968 415.273 6.93667 415.273 4.80067ZM402.042 4.80067C402.042 2.66467 403.774 0.932678 405.911 0.932678C408.049 0.932678 409.78 2.66467 409.78 4.80067C409.78 6.93667 408.049 8.66968 405.911 8.66968C403.774 8.66968 402.042 6.93667 402.042 4.80067ZM307.196 4.80067C307.196 2.66467 308.929 0.932678 311.064 0.932678C313.202 0.932678 314.933 2.66467 314.933 4.80067C314.933 6.93667 313.202 8.66968 311.064 8.66968C308.929 8.66968 307.196 6.93667 307.196 4.80067ZM293.964 4.80067C293.964 2.66467 295.697 0.932678 297.833 0.932678C299.969 0.932678 301.702 2.66467 301.702 4.80067C301.702 6.93667 299.969 8.66968 297.833 8.66968C295.697 8.66968 293.964 6.93667 293.964 4.80067ZM280.735 4.80067C280.735 2.66467 282.465 0.932678 284.602 0.932678C286.739 0.932678 288.471 2.66467 288.471 4.80067C288.471 6.93667 286.739 8.66968 284.602 8.66968C282.465 8.66968 280.735 6.93667 280.735 4.80067ZM267.502 4.80067C267.502 2.66467 269.234 0.932678 271.371 0.932678C273.508 0.932678 275.238 2.66467 275.238 4.80067C275.238 6.93667 273.508 8.66968 271.371 8.66968C269.234 8.66968 267.502 6.93667 267.502 4.80067ZM254.271 4.80067C254.271 2.66467 256.003 0.932678 258.138 0.932678C260.275 0.932678 262.007 2.66467 262.007 4.80067C262.007 6.93667 260.275 8.66968 258.138 8.66968C256.003 8.66968 254.271 6.93667 254.271 4.80067ZM241.04 4.80067C241.04 2.66467 242.772 0.932678 244.909 0.932678C247.044 0.932678 248.778 2.66467 248.778 4.80067C248.778 6.93667 247.044 8.66968 244.909 8.66968C242.772 8.66968 241.04 6.93667 241.04 4.80067ZM227.807 4.80067C227.807 2.66467 229.54 0.932678 231.676 0.932678C233.813 0.932678 235.544 2.66467 235.544 4.80067C235.544 6.93667 233.813 8.66968 231.676 8.66968C229.54 8.66968 227.807 6.93667 227.807 4.80067ZM128.473 4.80067C128.473 2.66467 130.205 0.932678 132.343 0.932678C134.479 0.932678 136.213 2.66467 136.213 4.80067C136.213 6.93667 134.479 8.66968 132.343 8.66968C130.205 8.66968 128.473 6.93667 128.473 4.80067ZM115.242 4.80067C115.242 2.66467 116.974 0.932678 119.111 0.932678C121.248 0.932678 122.98 2.66467 122.98 4.80067C122.98 6.93667 121.248 8.66968 119.111 8.66968C116.974 8.66968 115.242 6.93667 115.242 4.80067ZM102.01 4.80067C102.01 2.66467 103.743 0.932678 105.88 0.932678C108.017 0.932678 109.749 2.66467 109.749 4.80067C109.749 6.93667 108.017 8.66968 105.88 8.66968C103.743 8.66968 102.01 6.93667 102.01 4.80067ZM88.7797 4.80067C88.7797 2.66467 90.5097 0.932678 92.6487 0.932678C94.7837 0.932678 96.5177 2.66467 96.5177 4.80067C96.5177 6.93667 94.7837 8.66968 92.6487 8.66968C90.5097 8.66968 88.7797 6.93667 88.7797 4.80067ZM75.5467 4.80067C75.5467 2.66467 77.2797 0.932678 79.4157 0.932678C81.5547 0.932678 83.2847 2.66467 83.2847 4.80067C83.2847 6.93667 81.5547 8.66968 79.4157 8.66968C77.2797 8.66968 75.5467 6.93667 75.5467 4.80067ZM62.3147 4.80067C62.3147 2.66467 64.0487 0.932678 66.1857 0.932678C68.3217 0.932678 70.0537 2.66467 70.0537 4.80067C70.0537 6.93667 68.3217 8.66968 66.1857 8.66968C64.0487 8.66968 62.3147 6.93667 62.3147 4.80067ZM49.0847 4.80067C49.0847 2.66467 50.8187 0.932678 52.9547 0.932678C55.0917 0.932678 56.8227 2.66467 56.8227 4.80067C56.8227 6.93667 55.0917 8.66968 52.9547 8.66968C50.8187 8.66968 49.0847 6.93667 49.0847 4.80067ZM394.975 7.98767C393.215 6.77567 392.769 4.36667 393.98 2.60667C395.194 0.847674 397.6 0.40067 399.361 1.61467C401.12 2.82467 401.565 5.23368 400.354 6.99368C399.604 8.08368 398.393 8.66968 397.164 8.66968C396.407 8.66968 395.645 8.44867 394.975 7.98767Z" fill="#C9D44A"/>
<path d="M1231.66 4.80054H1135.61L1096.7 61.3385L1057.78 4.80054H961.732L922.819 61.3385L883.906 4.80054H787.856L748.942 61.3385L710.029 4.80054H613.979L565.955 74.5765L613.979 144.353H710.029L748.942 87.8155L787.856 144.353H883.906L922.819 87.8155L961.732 144.353H1057.78L1096.7 87.8155L1135.61 144.353H1231.66L1279.68 74.5765L1231.66 4.80054Z" fill="#3D362E"/>
<path d="M1226.14 144.353C1226.14 142.218 1227.87 140.484 1230.01 140.484C1232.14 140.484 1233.88 142.218 1233.88 144.353C1233.88 146.49 1232.14 148.222 1230.01 148.222C1227.87 148.222 1226.14 146.49 1226.14 144.353ZM1212.91 144.353C1212.91 142.218 1214.64 140.484 1216.78 140.484C1218.91 140.484 1220.65 142.218 1220.65 144.353C1220.65 146.49 1218.91 148.222 1216.78 148.222C1214.64 148.222 1212.91 146.49 1212.91 144.353ZM1199.67 144.353C1199.67 142.218 1201.41 140.484 1203.54 140.484C1205.68 140.484 1207.41 142.218 1207.41 144.353C1207.41 146.49 1205.68 148.222 1203.54 148.222C1201.41 148.222 1199.67 146.49 1199.67 144.353ZM1186.44 144.353C1186.44 142.218 1188.18 140.484 1190.31 140.484C1192.45 140.484 1194.18 142.218 1194.18 144.353C1194.18 146.49 1192.45 148.222 1190.31 148.222C1188.18 148.222 1186.44 146.49 1186.44 144.353ZM1173.21 144.353C1173.21 142.218 1174.95 140.484 1177.08 140.484C1179.22 140.484 1180.95 142.218 1180.95 144.353C1180.95 146.49 1179.22 148.222 1177.08 148.222C1174.95 148.222 1173.21 146.49 1173.21 144.353ZM1159.98 144.353C1159.98 142.218 1161.71 140.484 1163.85 140.484C1165.99 140.484 1167.72 142.218 1167.72 144.353C1167.72 146.49 1165.99 148.222 1163.85 148.222C1161.71 148.222 1159.98 146.49 1159.98 144.353ZM1146.75 144.353C1146.75 142.218 1148.48 140.484 1150.62 140.484C1152.76 140.484 1154.49 142.218 1154.49 144.353C1154.49 146.49 1152.76 148.222 1150.62 148.222C1148.48 148.222 1146.75 146.49 1146.75 144.353ZM1133.52 144.353C1133.52 142.218 1135.25 140.484 1137.39 140.484C1139.52 140.484 1141.26 142.218 1141.26 144.353C1141.26 146.49 1139.52 148.222 1137.39 148.222C1135.25 148.222 1133.52 146.49 1133.52 144.353ZM1047.41 144.353C1047.41 142.218 1049.15 140.484 1051.28 140.484C1053.42 140.484 1055.15 142.218 1055.15 144.353C1055.15 146.49 1053.42 148.222 1051.28 148.222C1049.15 148.222 1047.41 146.49 1047.41 144.353ZM1034.19 144.353C1034.19 142.218 1035.92 140.484 1038.05 140.484C1040.19 140.484 1041.92 142.218 1041.92 144.353C1041.92 146.49 1040.19 148.222 1038.05 148.222C1035.92 148.222 1034.19 146.49 1034.19 144.353ZM1020.95 144.353C1020.95 142.218 1022.69 140.484 1024.82 140.484C1026.96 140.484 1028.69 142.218 1028.69 144.353C1028.69 146.49 1026.96 148.222 1024.82 148.222C1022.69 148.222 1020.95 146.49 1020.95 144.353ZM1007.72 144.353C1007.72 142.218 1009.45 140.484 1011.59 140.484C1013.73 140.484 1015.46 142.218 1015.46 144.353C1015.46 146.49 1013.73 148.222 1011.59 148.222C1009.45 148.222 1007.72 146.49 1007.72 144.353ZM994.489 144.353C994.489 142.218 996.221 140.484 998.359 140.484C1000.5 140.484 1002.23 142.218 1002.23 144.353C1002.23 146.49 1000.5 148.222 998.359 148.222C996.221 148.222 994.489 146.49 994.489 144.353ZM981.258 144.353C981.258 142.218 982.992 140.484 985.127 140.484C987.265 140.484 988.996 142.218 988.996 144.353C988.996 146.49 987.265 148.222 985.127 148.222C982.992 148.222 981.258 146.49 981.258 144.353ZM968.027 144.353C968.027 142.218 969.759 140.484 971.896 140.484C974.032 140.484 975.765 142.218 975.765 144.353C975.765 146.49 974.032 148.222 971.896 148.222C969.759 148.222 968.027 146.49 968.027 144.353ZM868.694 144.353C868.694 142.218 870.424 140.484 872.563 140.484C874.698 140.484 876.432 142.218 876.432 144.353C876.432 146.49 874.698 148.222 872.563 148.222C870.424 148.222 868.694 146.49 868.694 144.353ZM855.461 144.353C855.461 142.218 857.194 140.484 859.33 140.484C861.467 140.484 863.199 142.218 863.199 144.353C863.199 146.49 861.467 148.222 859.33 148.222C857.194 148.222 855.461 146.49 855.461 144.353ZM842.23 144.353C842.23 142.218 843.964 140.484 846.099 140.484C848.236 140.484 849.969 142.218 849.969 144.353C849.969 146.49 848.236 148.222 846.099 148.222C843.964 148.222 842.23 146.49 842.23 144.353ZM828.999 144.353C828.999 142.218 830.732 140.484 832.867 140.484C835.005 140.484 836.736 142.218 836.736 144.353C836.736 146.49 835.005 148.222 832.867 148.222C830.732 148.222 828.999 146.49 828.999 144.353ZM815.769 144.353C815.769 142.218 817.501 140.484 819.638 140.484C821.773 140.484 823.505 142.218 823.505 144.353C823.505 146.49 821.773 148.222 819.638 148.222C817.501 148.222 815.769 146.49 815.769 144.353ZM802.536 144.353C802.536 142.218 804.268 140.484 806.405 140.484C808.542 140.484 810.274 142.218 810.274 144.353C810.274 146.49 808.542 148.222 806.405 148.222C804.268 148.222 802.536 146.49 802.536 144.353ZM789.305 144.353C789.305 142.218 791.037 140.484 793.174 140.484C795.311 140.484 797.043 142.218 797.043 144.353C797.043 146.49 795.311 148.222 793.174 148.222C791.037 148.222 789.305 146.49 789.305 144.353ZM703.201 144.353C703.201 142.218 704.934 140.484 707.07 140.484C709.209 140.484 710.941 142.218 710.941 144.353C710.941 146.49 709.209 148.222 707.07 148.222C704.934 148.222 703.201 146.49 703.201 144.353ZM689.972 144.353C689.972 142.218 691.704 140.484 693.839 140.484C695.976 140.484 697.709 142.218 697.709 144.353C697.709 146.49 695.976 148.222 693.839 148.222C691.704 148.222 689.972 146.49 689.972 144.353ZM676.74 144.353C676.74 142.218 678.471 140.484 680.608 140.484C682.745 140.484 684.476 142.218 684.476 144.353C684.476 146.49 682.745 148.222 680.608 148.222C678.471 148.222 676.74 146.49 676.74 144.353ZM663.509 144.353C663.509 142.218 665.241 140.484 667.378 140.484C669.513 140.484 671.246 142.218 671.246 144.353C671.246 146.49 669.513 148.222 667.378 148.222C665.241 148.222 663.509 146.49 663.509 144.353ZM650.276 144.353C650.276 142.218 652.008 140.484 654.146 140.484C656.283 140.484 658.016 142.218 658.016 144.353C658.016 146.49 656.283 148.222 654.146 148.222C652.008 148.222 650.276 146.49 650.276 144.353ZM637.044 144.353C637.044 142.218 638.779 140.484 640.914 140.484C643.051 140.484 644.783 142.218 644.783 144.353C644.783 146.49 643.051 148.222 640.914 148.222C638.779 148.222 637.044 146.49 637.044 144.353ZM623.812 144.353C623.812 142.218 625.546 140.484 627.683 140.484C629.82 140.484 631.552 142.218 631.552 144.353C631.552 146.49 629.82 148.222 627.683 148.222C625.546 148.222 623.812 146.49 623.812 144.353ZM610.583 144.353C610.583 142.218 612.315 140.484 614.452 140.484C616.587 140.484 618.319 142.218 618.319 144.353C618.319 146.49 616.587 148.222 614.452 148.222C612.315 148.222 610.583 146.49 610.583 144.353ZM882.781 145.984C881.022 144.772 880.576 142.364 881.789 140.603C883.001 138.844 885.409 138.399 887.17 139.609C888.928 140.821 889.374 143.231 888.162 144.99C887.411 146.08 886.202 146.666 884.972 146.666C884.216 146.666 883.451 146.445 882.781 145.984ZM956.805 144.021C955.594 142.261 956.038 139.852 957.798 138.64C959.559 137.428 961.968 137.875 963.178 139.636C964.39 141.395 963.947 143.803 962.186 145.015C961.517 145.475 960.752 145.697 959.996 145.697C958.766 145.697 957.555 145.111 956.805 144.021ZM1059.41 141.992C1057.65 140.78 1057.2 138.371 1058.41 136.611C1059.63 134.851 1062.03 134.405 1063.79 135.618C1065.55 136.83 1066 139.238 1064.79 140.999C1064.04 142.089 1062.83 142.674 1061.6 142.674C1060.84 142.674 1060.08 142.454 1059.41 141.992ZM780.182 140.028C778.97 138.269 779.414 135.861 781.175 134.649C782.935 133.438 785.344 133.882 786.556 135.643C787.766 137.403 787.322 139.811 785.562 141.022C784.891 141.483 784.128 141.705 783.373 141.705C782.142 141.705 780.931 141.119 780.182 140.028ZM713.659 139.077C711.899 137.864 711.454 135.456 712.666 133.696C713.878 131.935 716.287 131.491 718.047 132.703C719.806 133.914 720.252 136.322 719.042 138.083C718.291 139.173 717.08 139.758 715.848 139.758C715.092 139.758 714.329 139.538 713.659 139.077ZM1125.93 137.114C1124.72 135.355 1125.16 132.945 1126.92 131.735C1128.68 130.522 1131.09 130.966 1132.3 132.726C1133.51 134.487 1133.07 136.896 1131.31 138.106C1130.64 138.569 1129.87 138.789 1129.12 138.789C1127.89 138.789 1126.68 138.204 1125.93 137.114ZM1236.03 137.999C1234.27 136.787 1233.82 134.381 1235.04 132.62C1236.25 130.861 1238.66 130.414 1240.42 131.626C1242.18 132.837 1242.62 135.245 1241.41 137.006C1240.66 138.097 1239.45 138.682 1238.22 138.682C1237.46 138.682 1236.7 138.461 1236.03 137.999ZM603.558 136.038C602.346 134.278 602.792 131.868 604.552 130.657C606.311 129.445 608.719 129.89 609.932 131.651C611.142 133.41 610.698 135.82 608.938 137.032C608.267 137.492 607.503 137.714 606.748 137.714C605.518 137.714 604.309 137.128 603.558 136.038ZM890.284 135.085C888.524 133.873 888.078 131.465 889.289 129.704C890.503 127.944 892.911 127.498 894.67 128.71C896.429 129.923 896.876 132.331 895.664 134.09C894.913 135.181 893.704 135.767 892.473 135.767C891.717 135.767 890.954 135.545 890.284 135.085ZM949.305 133.122C948.092 131.362 948.536 128.953 950.297 127.741C952.057 126.529 954.466 126.974 955.678 128.735C956.888 130.494 956.444 132.904 954.684 134.116C954.013 134.577 953.25 134.798 952.494 134.798C951.264 134.798 950.053 134.212 949.305 133.122ZM1066.91 131.092C1065.15 129.881 1064.7 127.473 1065.92 125.713C1067.13 123.952 1069.53 123.507 1071.29 124.719C1073.05 125.931 1073.5 128.339 1072.29 130.098C1071.54 131.188 1070.33 131.775 1069.1 131.775C1068.34 131.774 1067.58 131.553 1066.91 131.092ZM772.68 129.129C771.469 127.37 771.914 124.962 773.674 123.75C775.433 122.539 777.841 122.983 779.054 124.743C780.264 126.504 779.82 128.911 778.06 130.125C777.389 130.584 776.626 130.806 775.87 130.806C774.64 130.806 773.431 130.219 772.68 129.129ZM721.162 128.176C719.401 126.966 718.956 124.557 720.167 122.797C721.38 121.036 723.789 120.592 725.55 121.804C727.308 123.015 727.754 125.423 726.541 127.184C725.793 128.273 724.582 128.859 723.352 128.859C722.596 128.859 721.831 128.637 721.162 128.176ZM1118.43 126.213C1117.21 124.454 1117.66 122.046 1119.42 120.834C1121.18 119.623 1123.59 120.067 1124.8 121.828C1126.01 123.588 1125.57 125.995 1123.81 127.207C1123.14 127.669 1122.37 127.89 1121.62 127.889C1120.39 127.889 1119.18 127.305 1118.43 126.213ZM1243.53 127.102C1241.77 125.89 1241.33 123.48 1242.54 121.719C1243.75 119.961 1246.16 119.515 1247.92 120.727C1249.68 121.938 1250.12 124.348 1248.91 126.107C1248.16 127.198 1246.95 127.784 1245.72 127.784C1244.97 127.784 1244.2 127.562 1243.53 127.102ZM596.055 125.139C594.844 123.379 595.29 120.97 597.05 119.757C598.809 118.546 601.219 118.991 602.43 120.752C603.642 122.511 603.198 124.921 601.437 126.132C600.766 126.593 600.003 126.815 599.247 126.815C598.017 126.813 596.805 126.227 596.055 125.139ZM897.786 124.186C896.026 122.974 895.579 120.564 896.792 118.803C898.003 117.045 900.411 116.599 902.172 117.811C903.931 119.022 904.376 121.432 903.166 123.193C902.415 124.282 901.204 124.868 899.975 124.868C899.219 124.868 898.455 124.646 897.786 124.186ZM941.801 122.223C940.591 120.463 941.036 118.055 942.796 116.842C944.555 115.63 946.963 116.076 948.176 117.836C949.386 119.595 948.942 122.005 947.182 123.216C946.511 123.677 945.748 123.899 944.992 123.899C943.762 123.899 942.552 123.313 941.801 122.223ZM1074.41 120.193C1072.65 118.981 1072.21 116.574 1073.42 114.814C1074.63 113.053 1077.04 112.609 1078.8 113.82C1080.56 115.032 1081 117.438 1079.79 119.199C1079.04 120.289 1077.83 120.874 1076.6 120.874C1075.84 120.874 1075.08 120.654 1074.41 120.193ZM765.177 118.23C763.966 116.471 764.412 114.061 766.172 112.851C767.931 111.639 770.341 112.082 771.552 113.843C772.764 115.603 772.319 118.012 770.559 119.224C769.889 119.686 769.126 119.907 768.369 119.906C767.139 119.906 765.928 119.322 765.177 118.23ZM728.664 117.277C726.904 116.065 726.46 113.658 727.67 111.898C728.882 110.137 731.289 109.693 733.049 110.904C734.81 112.116 735.254 114.523 734.044 116.283C733.293 117.373 732.084 117.961 730.853 117.958C730.096 117.958 729.333 117.739 728.664 117.277ZM1110.92 115.316C1109.71 113.555 1110.16 111.145 1111.92 109.935C1113.68 108.723 1116.09 109.168 1117.3 110.927C1118.51 112.687 1118.06 115.096 1116.3 116.31C1115.63 116.77 1114.87 116.991 1114.11 116.991C1112.88 116.991 1111.67 116.405 1110.92 115.316ZM1251.03 116.201C1249.27 114.991 1248.83 112.581 1250.04 110.82C1251.25 109.061 1253.66 108.616 1255.42 109.827C1257.18 111.039 1257.62 113.449 1256.41 115.208C1255.66 116.298 1254.45 116.885 1253.22 116.885C1252.47 116.885 1251.7 116.663 1251.03 116.201ZM588.554 114.239C587.342 112.478 587.788 110.072 589.548 108.859C591.307 107.647 593.717 108.093 594.929 109.853C596.14 111.612 595.694 114.02 593.936 115.233C593.264 115.694 592.502 115.914 591.745 115.914C590.516 115.914 589.305 115.328 588.554 114.239ZM905.287 113.286C903.526 112.075 903.082 109.665 904.294 107.905C905.505 106.145 907.913 105.7 909.674 106.911C911.434 108.124 911.878 110.533 910.666 112.294C909.917 113.383 908.707 113.969 907.476 113.969C906.72 113.967 905.957 113.747 905.287 113.286ZM934.299 111.322C933.088 109.562 933.534 107.155 935.294 105.944C937.053 104.733 939.464 105.177 940.674 106.937C941.886 108.698 941.441 111.105 939.681 112.317C939.011 112.778 938.248 112.998 937.492 112.998C936.262 112.998 935.05 112.412 934.299 111.322ZM1081.91 109.292C1080.15 108.082 1079.71 105.674 1080.92 103.913C1082.13 102.152 1084.54 101.709 1086.3 102.921C1088.06 104.131 1088.5 106.54 1087.29 108.3C1086.54 109.39 1085.33 109.976 1084.1 109.976C1083.35 109.976 1082.58 109.754 1081.91 109.292ZM757.676 107.331C756.464 105.572 756.91 103.162 758.67 101.95C760.429 100.74 762.839 101.185 764.051 102.944C765.262 104.705 764.816 107.113 763.055 108.325C762.387 108.786 761.622 109.008 760.866 109.007C759.636 109.007 758.427 108.421 757.676 107.331ZM736.164 106.376C734.404 105.166 733.96 102.758 735.172 100.997C736.383 99.2367 738.791 98.7927 740.552 100.005C742.312 101.215 742.756 103.624 741.545 105.384C740.794 106.474 739.586 107.06 738.356 107.06C737.598 107.06 736.835 106.838 736.164 106.376ZM1103.42 104.415C1102.21 102.657 1102.66 100.246 1104.42 99.0337C1106.18 97.8237 1108.59 98.2687 1109.8 100.028C1111.01 101.789 1110.56 104.199 1108.8 105.409C1108.13 105.871 1107.37 106.09 1106.61 106.09C1105.38 106.09 1104.17 105.507 1103.42 104.415ZM1258.54 105.303C1256.78 104.09 1256.33 101.68 1257.54 99.9197C1258.75 98.1607 1261.16 97.7147 1262.92 98.9277C1264.68 100.138 1265.13 102.548 1263.91 104.309C1263.16 105.399 1261.96 105.984 1260.73 105.984C1259.97 105.984 1259.2 105.762 1258.54 105.303ZM581.053 103.34C579.842 101.579 580.287 99.1707 582.046 97.9607C583.807 96.7477 586.215 97.1917 587.427 98.9517C588.638 100.712 588.192 103.122 586.432 104.332C585.762 104.793 584.998 105.015 584.242 105.015C583.012 105.015 581.803 104.43 581.053 103.34ZM912.789 102.387C911.028 101.175 910.584 98.7657 911.795 97.0067C913.007 95.2467 915.414 94.8007 917.174 96.0127C918.935 97.2237 919.382 99.6317 918.168 101.393C917.419 102.482 916.209 103.068 914.979 103.068C914.222 103.068 913.458 102.846 912.789 102.387ZM926.799 100.424C925.586 98.6627 926.032 96.2547 927.791 95.0437C929.551 93.8317 931.961 94.2757 933.173 96.0367C934.384 97.7967 933.939 100.205 932.178 101.416C931.509 101.878 930.744 102.099 929.988 102.099C928.758 102.099 927.549 101.514 926.799 100.424ZM1089.41 98.3927C1087.65 97.1827 1087.21 94.7747 1088.42 93.0137C1089.63 91.2537 1092.04 90.8097 1093.8 92.0197C1095.56 93.2317 1096 95.6417 1094.79 97.4007C1094.04 98.4907 1092.83 99.0767 1091.6 99.0767C1090.85 99.0767 1090.08 98.8547 1089.41 98.3927ZM750.175 96.4307C748.964 94.6717 749.409 92.2637 751.168 91.0507C752.929 89.8407 755.336 90.2857 756.55 92.0447C757.76 93.8057 757.315 96.2137 755.554 97.4257C754.885 97.8877 754.121 98.1077 753.365 98.1077C752.136 98.1077 750.925 97.5217 750.175 96.4307ZM743.667 95.4787C741.908 94.2667 741.462 91.8587 742.672 90.0977C743.884 88.3387 746.293 87.8937 748.054 89.1037C749.814 90.3157 750.26 92.7247 749.046 94.4847C748.297 95.5747 747.088 96.1607 745.858 96.1607C745.1 96.1607 744.337 95.9407 743.667 95.4787ZM1095.92 93.5157C1094.71 91.7557 1095.15 89.3477 1096.91 88.1347C1098.67 86.9247 1101.08 87.3697 1102.29 89.1307C1103.51 90.8897 1103.06 93.2997 1101.3 94.5097C1100.63 94.9717 1099.87 95.1917 1099.11 95.1917C1097.88 95.1917 1096.67 94.6057 1095.92 93.5157ZM1266.04 94.4017C1264.28 93.1917 1263.83 90.7807 1265.04 89.0227C1266.25 87.2617 1268.66 86.8167 1270.42 88.0287C1272.18 89.2387 1272.63 91.6487 1271.42 93.4097C1270.67 94.4997 1269.46 95.0847 1268.23 95.0847C1267.47 95.0847 1266.71 94.8627 1266.04 94.4017ZM573.55 92.4387C572.34 90.6787 572.785 88.2717 574.544 87.0597C576.305 85.8487 578.713 86.2927 579.924 88.0537C581.137 89.8137 580.692 92.2207 578.931 93.4327C578.263 93.8947 577.499 94.1157 576.743 94.1157C575.512 94.1157 574.301 93.5287 573.55 92.4387ZM920.291 91.4857C918.532 90.2757 918.086 87.8657 919.297 86.1067C920.509 84.3457 922.916 83.8997 924.676 85.1127C926.437 86.3247 926.884 88.7327 925.67 90.4937C924.919 91.5837 923.711 92.1687 922.481 92.1687C921.724 92.1687 920.961 91.9467 920.291 91.4857ZM1273.54 83.5027C1271.78 82.2907 1271.33 79.8827 1272.55 78.1237C1273.76 76.3627 1276.17 75.9167 1277.93 77.1277C1279.69 78.3417 1280.13 80.7487 1278.92 82.5087C1278.17 83.5987 1276.96 84.1847 1275.73 84.1847C1274.97 84.1847 1274.21 83.9647 1273.54 83.5027ZM566.05 81.5397C564.838 79.7787 565.282 77.3707 567.042 76.1607C568.803 74.9487 571.211 75.3937 572.423 77.1547C573.635 78.9147 573.19 81.3217 571.43 82.5337C570.76 82.9947 569.996 83.2147 569.24 83.2147C568.009 83.2147 566.799 82.6317 566.05 81.5397ZM1272.94 71.6097C1271.73 69.8497 1272.18 67.4407 1273.94 66.2307C1275.7 65.0167 1278.11 65.4637 1279.32 67.2247C1280.53 68.9847 1280.08 71.3917 1278.32 72.6037C1277.65 73.0657 1276.89 73.2857 1276.13 73.2857C1274.9 73.2857 1273.69 72.6997 1272.94 71.6097ZM567.977 71.6337C566.219 70.4227 565.773 68.0147 566.985 66.2537C568.196 64.4947 570.606 64.0497 572.365 65.2597C574.125 66.4717 574.571 68.8807 573.358 70.6407C572.608 71.7307 571.399 72.3167 570.169 72.3167C569.413 72.3167 568.648 72.0947 567.977 71.6337ZM921.226 63.6497C919.465 62.4377 919.02 60.0317 920.232 58.2707C921.442 56.5107 923.852 56.0647 925.613 57.2767C927.372 58.4877 927.817 60.8957 926.607 62.6557C925.857 63.7477 924.646 64.3317 923.414 64.3317C922.658 64.3317 921.895 64.1117 921.226 63.6497ZM1265.44 60.7107C1264.23 58.9507 1264.67 56.5417 1266.43 55.3297C1268.2 54.1197 1270.6 54.5627 1271.82 56.3237C1273.03 58.0847 1272.58 60.4927 1270.82 61.7037C1270.15 62.1647 1269.39 62.3867 1268.63 62.3867C1267.4 62.3867 1266.19 61.8007 1265.44 60.7107ZM743.608 60.4147C742.396 58.6547 742.843 56.2457 744.603 55.0337C746.362 53.8227 748.771 54.2687 749.983 56.0277C751.193 57.7877 750.748 60.1967 748.987 61.4087C748.318 61.8677 747.555 62.0897 746.799 62.0897C745.569 62.0897 744.358 61.5047 743.608 60.4147ZM575.481 60.7357C573.721 59.5237 573.275 57.1147 574.485 55.3547C575.698 53.5957 578.106 53.1507 579.867 54.3607C581.626 55.5727 582.073 57.9827 580.86 59.7397C580.108 60.8317 578.899 61.4177 577.67 61.4177C576.914 61.4177 576.15 61.1957 575.481 60.7357ZM1097.85 59.6587C1096.81 58.9417 1096.23 57.8027 1096.18 56.6287C1095.91 57.3587 1095.42 58.0167 1094.74 58.4927C1092.98 59.7047 1090.57 59.2577 1089.35 57.4987C1088.14 55.7377 1088.59 53.3297 1090.35 52.1177C1092.11 50.9077 1094.52 51.3527 1095.73 53.1137C1096.16 53.7367 1096.38 54.4407 1096.41 55.1457C1096.52 54.8457 1096.67 54.5547 1096.85 54.2797C1098.07 52.5187 1100.48 52.0737 1102.24 53.2837C1104 54.4957 1104.44 56.9057 1103.23 58.6667C1102.48 59.7557 1101.27 60.3417 1100.04 60.3417C1099.28 60.3417 1098.52 60.1197 1097.85 59.6587ZM752.104 56.7427C750.345 55.5327 749.898 53.1237 751.11 51.3627C752.32 49.6027 754.73 49.1577 756.491 50.3687C758.25 51.5817 758.695 53.9897 757.485 55.7507C756.734 56.8397 755.524 57.4257 754.294 57.4257C753.538 57.4257 752.773 57.2037 752.104 56.7427ZM912.73 53.5067C911.518 51.7467 911.965 49.3387 913.724 48.1257C915.485 46.9157 917.893 47.3597 919.105 49.1197C920.315 50.8807 919.87 53.2887 918.109 54.4997C917.44 54.9607 916.675 55.1827 915.919 55.1827C914.69 55.1827 913.481 54.5967 912.73 53.5067ZM928.728 52.7527C926.967 51.5387 926.522 49.1307 927.734 47.3697C928.946 45.6117 931.355 45.1657 933.115 46.3777C934.876 47.5887 935.319 49.9987 934.107 51.7577C933.356 52.8487 932.148 53.4347 930.916 53.4347C930.162 53.4347 929.397 53.2127 928.728 52.7527ZM1257.94 49.8107C1256.73 48.0517 1257.17 45.6437 1258.93 44.4307C1260.69 43.2207 1263.1 43.6647 1264.31 45.4247C1265.52 47.1857 1265.08 49.5937 1263.32 50.8047C1262.65 51.2657 1261.89 51.4877 1261.13 51.4877C1259.9 51.4877 1258.69 50.9017 1257.94 49.8107ZM736.106 49.5157C734.895 47.7547 735.341 45.3447 737.099 44.1347C738.86 42.9227 741.269 43.3677 742.481 45.1287C743.693 46.8877 743.248 49.2977 741.487 50.5077C740.818 50.9697 740.053 51.1917 739.297 51.1917C738.067 51.1917 736.857 50.6057 736.106 49.5157ZM582.982 49.8357C581.221 48.6247 580.775 46.2147 581.989 44.4537C583.2 42.6947 585.608 42.2497 587.368 43.4617C589.129 44.6727 589.573 47.0827 588.363 48.8417C587.612 49.9327 586.401 50.5187 585.169 50.5187C584.414 50.5187 583.65 50.2967 582.982 49.8357ZM1105.35 48.7597C1103.59 47.5477 1103.15 45.1397 1104.36 43.3797C1105.57 41.6197 1107.98 41.1727 1109.74 42.3847C1111.5 43.5987 1111.94 46.0047 1110.73 47.7657C1109.98 48.8557 1108.77 49.4407 1107.54 49.4407C1106.78 49.4407 1106.02 49.2207 1105.35 48.7597ZM1081.85 46.5997C1080.64 44.8387 1081.09 42.4307 1082.85 41.2187C1084.61 40.0067 1087.02 40.4517 1088.23 42.2127C1089.44 43.9727 1088.99 46.3817 1087.23 47.5937C1086.56 48.0547 1085.8 48.2747 1085.04 48.2747C1083.81 48.2747 1082.6 47.6897 1081.85 46.5997ZM759.606 45.8437C757.845 44.6317 757.4 42.2247 758.613 40.4647C759.824 38.7037 762.232 38.2597 763.993 39.4707C765.753 40.6827 766.197 43.0897 764.985 44.8497C764.236 45.9397 763.026 46.5257 761.794 46.5257C761.039 46.5257 760.275 46.3057 759.606 45.8437ZM905.228 42.6067C904.017 40.8477 904.463 38.4377 906.222 37.2277C907.982 36.0147 910.391 36.4617 911.601 38.2207C912.815 39.9817 912.37 42.3887 910.609 43.6017C909.94 44.0617 909.177 44.2837 908.421 44.2837C907.189 44.2837 905.979 43.6977 905.228 42.6067ZM936.23 41.8527C934.469 40.6417 934.025 38.2317 935.236 36.4717C936.448 34.7127 938.857 34.2667 940.615 35.4787C942.376 36.6897 942.821 39.0997 941.609 40.8587C940.86 41.9477 939.65 42.5337 938.42 42.5337C937.664 42.5337 936.899 42.3137 936.23 41.8527ZM1250.44 38.9117C1249.23 37.1527 1249.67 34.7427 1251.43 33.5327C1253.19 32.3197 1255.6 32.7637 1256.81 34.5237C1258.02 36.2847 1257.58 38.6927 1255.82 39.9047C1255.15 40.3667 1254.39 40.5887 1253.63 40.5887C1252.4 40.5887 1251.19 40.0017 1250.44 38.9117ZM728.606 38.6167C727.393 36.8567 727.839 34.4477 729.598 33.2337C731.358 32.0237 733.767 32.4687 734.977 34.2297C736.191 35.9887 735.745 38.3987 733.985 39.6087C733.316 40.0707 732.551 40.2917 731.795 40.2917C730.565 40.2917 729.355 39.7067 728.606 38.6167ZM590.483 38.9367C588.723 37.7257 588.277 35.3157 589.491 33.5557C590.702 31.7967 593.11 31.3507 594.871 32.5627C596.631 33.7737 597.075 36.1837 595.863 37.9437C595.114 39.0337 593.904 39.6197 592.673 39.6197C591.917 39.6197 591.153 39.3977 590.483 38.9367ZM1112.85 37.8607C1111.09 36.6487 1110.65 34.2407 1111.86 32.4797C1113.07 30.7197 1115.48 30.2757 1117.24 31.4877C1119 32.6977 1119.44 35.1067 1118.23 36.8667C1117.48 37.9567 1116.27 38.5427 1115.04 38.5427C1114.29 38.5427 1113.52 38.3227 1112.85 37.8607ZM1074.35 35.7007C1073.14 33.9407 1073.59 31.5317 1075.34 30.3197C1077.11 29.1087 1079.51 29.5527 1080.72 31.3137C1081.94 33.0747 1081.49 35.4827 1079.73 36.6927C1079.06 37.1547 1078.3 37.3767 1077.54 37.3767C1076.31 37.3767 1075.1 36.7907 1074.35 35.7007ZM767.108 34.9447C765.347 33.7327 764.903 31.3237 766.114 29.5637C767.326 27.8027 769.733 27.3597 771.493 28.5717C773.254 29.7817 773.699 32.1907 772.487 33.9507C771.738 35.0407 770.528 35.6267 769.298 35.6267C768.542 35.6267 767.777 35.4057 767.108 34.9447ZM897.728 31.7077C896.515 29.9487 896.959 27.5387 898.72 26.3287C900.481 25.1157 902.889 25.5617 904.101 27.3207C905.313 29.0807 904.867 31.4907 903.107 32.7037C902.438 33.1627 901.673 33.3847 900.917 33.3847C899.687 33.3847 898.477 32.7987 897.728 31.7077ZM943.732 30.9537C941.971 29.7417 941.526 27.3327 942.738 25.5717C943.948 23.8137 946.357 23.3677 948.117 24.5777C949.878 25.7907 950.322 28.1987 949.111 29.9597C948.36 31.0487 947.152 31.6347 945.92 31.6347C945.166 31.6347 944.401 31.4127 943.732 30.9537ZM1242.94 28.0127C1241.72 26.2537 1242.17 23.8437 1243.93 22.6327C1245.69 21.4207 1248.1 21.8647 1249.31 23.6257C1250.52 25.3857 1250.08 27.7937 1248.32 29.0047C1247.65 29.4677 1246.88 29.6877 1246.13 29.6877C1244.9 29.6877 1243.69 29.1027 1242.94 28.0127ZM721.104 27.7157C719.892 25.9557 720.337 23.5487 722.097 22.3367C723.858 21.1227 726.264 21.5707 727.477 23.3307C728.689 25.0917 728.243 27.4977 726.483 28.7097C725.814 29.1717 725.049 29.3917 724.295 29.3917C723.065 29.3917 721.854 28.8057 721.104 27.7157ZM597.986 28.0367C596.225 26.8257 595.781 24.4167 596.992 22.6587C598.204 20.8977 600.61 20.4517 602.371 21.6627C604.131 22.8747 604.577 25.2827 603.365 27.0437C602.614 28.1337 601.403 28.7187 600.174 28.7187C599.419 28.7187 598.655 28.4967 597.986 28.0367ZM1120.35 26.9597C1118.59 25.7497 1118.15 23.3407 1119.36 21.5807C1120.57 19.8197 1122.98 19.3767 1124.74 20.5867C1126.5 21.7987 1126.95 24.2077 1125.73 25.9677C1124.99 27.0577 1123.78 27.6437 1122.54 27.6437C1121.79 27.6437 1121.03 27.4217 1120.35 26.9597ZM1066.85 24.7997C1065.64 23.0397 1066.08 20.6327 1067.84 19.4207C1069.6 18.2107 1072.01 18.6547 1073.22 20.4147C1074.44 22.1747 1073.99 24.5817 1072.23 25.7937C1071.56 26.2557 1070.8 26.4757 1070.04 26.4757C1068.81 26.4757 1067.6 25.8897 1066.85 24.7997ZM774.608 24.0437C772.847 22.8337 772.404 20.4257 773.616 18.6647C774.826 16.9037 777.234 16.4607 778.995 17.6707C780.756 18.8827 781.2 21.2917 779.989 23.0517C779.238 24.1417 778.029 24.7277 776.798 24.7277C776.042 24.7277 775.279 24.5057 774.608 24.0437ZM890.226 20.8087C889.015 19.0497 889.459 16.6397 891.22 15.4277C892.98 14.2177 895.387 14.6627 896.599 16.4217C897.809 18.1817 897.366 20.5927 895.605 21.8027C894.936 22.2637 894.171 22.4837 893.415 22.4837C892.187 22.4837 890.977 21.8987 890.226 20.8087ZM951.232 20.0547C949.471 18.8427 949.028 16.4317 950.24 14.6717C951.45 12.9127 953.86 12.4667 955.619 13.6797C957.38 14.8897 957.824 17.2997 956.611 19.0607C955.863 20.1507 954.652 20.7357 953.422 20.7357C952.666 20.7357 951.903 20.5147 951.232 20.0547ZM1235.43 17.1117C1234.22 15.3527 1234.67 12.9447 1236.43 11.7327C1238.19 10.5217 1240.6 10.9677 1241.81 12.7267C1243.02 14.4867 1242.57 16.8937 1240.81 18.1077C1240.15 18.5667 1239.38 18.7887 1238.63 18.7887C1237.4 18.7887 1236.19 18.2037 1235.43 17.1117ZM713.601 16.8177C712.391 15.0567 712.835 12.6487 714.596 11.4377C716.356 10.2257 718.764 10.6697 719.975 12.4297C721.187 14.1907 720.743 16.5987 718.983 17.8107C718.314 18.2727 717.549 18.4927 716.793 18.4927C715.563 18.4927 714.352 17.9067 713.601 16.8177ZM605.486 17.1387C603.725 15.9257 603.281 13.5157 604.494 11.7587C605.704 9.99868 608.114 9.55167 609.873 10.7637C611.634 11.9737 612.077 14.3837 610.867 16.1447C610.116 17.2347 608.906 17.8197 607.676 17.8197C606.92 17.8197 606.155 17.5977 605.486 17.1387ZM1127.86 16.0617C1126.1 14.8487 1125.65 12.4427 1126.86 10.6817C1128.08 8.92067 1130.48 8.47768 1132.24 9.68768C1134 10.9007 1134.45 13.3067 1133.24 15.0677C1132.49 16.1567 1131.28 16.7427 1130.05 16.7427C1129.29 16.7427 1128.53 16.5227 1127.86 16.0617ZM1059.35 13.9017C1058.14 12.1407 1058.58 9.73268 1060.34 8.52168C1062.1 7.30968 1064.51 7.75367 1065.72 9.51367C1066.93 11.2747 1066.49 13.6827 1064.73 14.8957C1064.06 15.3567 1063.29 15.5767 1062.54 15.5767C1061.31 15.5767 1060.1 14.9907 1059.35 13.9017ZM782.11 13.1447C780.349 11.9327 779.906 9.52667 781.117 7.76567C782.328 6.00567 784.738 5.56168 786.497 6.77168C788.258 7.98468 788.701 10.3907 787.491 12.1517C786.74 13.2427 785.53 13.8287 784.3 13.8287C783.544 13.8287 782.781 13.6067 782.11 13.1447ZM882.724 9.90968C881.513 8.14968 881.957 5.74267 883.718 4.52867C885.478 3.31767 887.887 3.76367 889.097 5.52267C890.309 7.28367 889.866 9.69167 888.105 10.9037C887.436 11.3637 886.671 11.5857 885.915 11.5857C884.685 11.5857 883.474 10.9997 882.724 9.90968ZM958.734 9.15367C956.975 7.94367 956.53 5.53267 957.74 3.77467C958.952 2.01367 961.361 1.56867 963.119 2.77867C964.88 3.99067 965.327 6.40068 964.115 8.16168C963.364 9.25168 962.156 9.83667 960.926 9.83667C960.168 9.83667 959.405 9.61467 958.734 9.15367ZM1227.79 4.80067C1227.79 2.66467 1229.52 0.930679 1231.66 0.930679C1233.79 0.930679 1235.53 2.66467 1235.53 4.80067C1235.53 6.93667 1233.79 8.66968 1231.66 8.66968C1229.52 8.66968 1227.79 6.93667 1227.79 4.80067ZM1214.56 4.80067C1214.56 2.66467 1216.29 0.930679 1218.43 0.930679C1220.56 0.930679 1222.3 2.66467 1222.3 4.80067C1222.3 6.93667 1220.56 8.66968 1218.43 8.66968C1216.29 8.66968 1214.56 6.93667 1214.56 4.80067ZM1201.33 4.80067C1201.33 2.66467 1203.06 0.930679 1205.19 0.930679C1207.33 0.930679 1209.06 2.66467 1209.06 4.80067C1209.06 6.93667 1207.33 8.66968 1205.19 8.66968C1203.06 8.66968 1201.33 6.93667 1201.33 4.80067ZM1188.09 4.80067C1188.09 2.66467 1189.82 0.930679 1191.96 0.930679C1194.1 0.930679 1195.83 2.66467 1195.83 4.80067C1195.83 6.93667 1194.1 8.66968 1191.96 8.66968C1189.82 8.66968 1188.09 6.93667 1188.09 4.80067ZM1174.86 4.80067C1174.86 2.66467 1176.6 0.930679 1178.73 0.930679C1180.87 0.930679 1182.6 2.66467 1182.6 4.80067C1182.6 6.93667 1180.87 8.66968 1178.73 8.66968C1176.6 8.66968 1174.86 6.93667 1174.86 4.80067ZM1161.63 4.80067C1161.63 2.66467 1163.36 0.930679 1165.5 0.930679C1167.64 0.930679 1169.37 2.66467 1169.37 4.80067C1169.37 6.93667 1167.64 8.66968 1165.5 8.66968C1163.36 8.66968 1161.63 6.93667 1161.63 4.80067ZM1148.4 4.80067C1148.4 2.66467 1150.13 0.930679 1152.27 0.930679C1154.41 0.930679 1156.14 2.66467 1156.14 4.80067C1156.14 6.93667 1154.41 8.66968 1152.27 8.66968C1150.13 8.66968 1148.4 6.93667 1148.4 4.80067ZM1135.17 4.80067C1135.17 2.66467 1136.9 0.930679 1139.04 0.930679C1141.17 0.930679 1142.91 2.66467 1142.91 4.80067C1142.91 6.93667 1141.17 8.66968 1139.04 8.66968C1136.9 8.66968 1135.17 6.93667 1135.17 4.80067ZM1049.07 4.80067C1049.07 2.66467 1050.8 0.930679 1052.93 0.930679C1055.07 0.930679 1056.8 2.66467 1056.8 4.80067C1056.8 6.93667 1055.07 8.66968 1052.93 8.66968C1050.8 8.66968 1049.07 6.93667 1049.07 4.80067ZM1035.83 4.80067C1035.83 2.66467 1037.57 0.930679 1039.7 0.930679C1041.84 0.930679 1043.57 2.66467 1043.57 4.80067C1043.57 6.93667 1041.84 8.66968 1039.7 8.66968C1037.57 8.66968 1035.83 6.93667 1035.83 4.80067ZM1022.6 4.80067C1022.6 2.66467 1024.34 0.930679 1026.47 0.930679C1028.61 0.930679 1030.34 2.66467 1030.34 4.80067C1030.34 6.93667 1028.61 8.66968 1026.47 8.66968C1024.34 8.66968 1022.6 6.93667 1022.6 4.80067ZM1009.37 4.80067C1009.37 2.66467 1011.1 0.930679 1013.24 0.930679C1015.38 0.930679 1017.11 2.66467 1017.11 4.80067C1017.11 6.93667 1015.38 8.66968 1013.24 8.66968C1011.1 8.66968 1009.37 6.93667 1009.37 4.80067ZM996.139 4.80067C996.139 2.66467 997.871 0.930679 1000.01 0.930679C1002.15 0.930679 1003.88 2.66467 1003.88 4.80067C1003.88 6.93667 1002.15 8.66968 1000.01 8.66968C997.871 8.66968 996.139 6.93667 996.139 4.80067ZM982.909 4.80067C982.909 2.66467 984.64 0.930679 986.777 0.930679C988.914 0.930679 990.646 2.66467 990.646 4.80067C990.646 6.93667 988.914 8.66968 986.777 8.66968C984.64 8.66968 982.909 6.93667 982.909 4.80067ZM969.677 4.80067C969.677 2.66467 971.41 0.930679 973.546 0.930679C975.683 0.930679 977.415 2.66467 977.415 4.80067C977.415 6.93667 975.683 8.66968 973.546 8.66968C971.41 8.66968 969.677 6.93667 969.677 4.80067ZM870.343 4.80067C870.343 2.66467 872.075 0.930679 874.214 0.930679C876.349 0.930679 878.081 2.66467 878.081 4.80067C878.081 6.93667 876.349 8.66968 874.214 8.66968C872.075 8.66968 870.343 6.93667 870.343 4.80067ZM857.112 4.80067C857.112 2.66467 858.844 0.930679 860.981 0.930679C863.116 0.930679 864.85 2.66467 864.85 4.80067C864.85 6.93667 863.116 8.66968 860.981 8.66968C858.844 8.66968 857.112 6.93667 857.112 4.80067ZM843.879 4.80067C843.879 2.66467 845.611 0.930679 847.748 0.930679C849.887 0.930679 851.619 2.66467 851.619 4.80067C851.619 6.93667 849.887 8.66968 847.748 8.66968C845.611 8.66968 843.879 6.93667 843.879 4.80067ZM830.648 4.80067C830.648 2.66467 832.382 0.930679 834.517 0.930679C836.654 0.930679 838.386 2.66467 838.386 4.80067C838.386 6.93667 836.654 8.66968 834.517 8.66968C832.382 8.66968 830.648 6.93667 830.648 4.80067ZM817.419 4.80067C817.419 2.66467 819.15 0.930679 821.286 0.930679C823.423 0.930679 825.156 2.66467 825.156 4.80067C825.156 6.93667 823.423 8.66968 821.286 8.66968C819.15 8.66968 817.419 6.93667 817.419 4.80067ZM804.186 4.80067C804.186 2.66467 805.919 0.930679 808.053 0.930679C810.19 0.930679 811.923 2.66467 811.923 4.80067C811.923 6.93667 810.19 8.66968 808.053 8.66968C805.919 8.66968 804.186 6.93667 804.186 4.80067ZM790.955 4.80067C790.955 2.66467 792.686 0.930679 794.824 0.930679C796.959 0.930679 798.693 2.66467 798.693 4.80067C798.693 6.93667 796.959 8.66968 794.824 8.66968C792.686 8.66968 790.955 6.93667 790.955 4.80067ZM704.852 4.80067C704.852 2.66467 706.584 0.930679 708.721 0.930679C710.858 0.930679 712.59 2.66467 712.59 4.80067C712.59 6.93667 710.858 8.66968 708.721 8.66968C706.584 8.66968 704.852 6.93667 704.852 4.80067ZM691.621 4.80067C691.621 2.66467 693.355 0.930679 695.49 0.930679C697.627 0.930679 699.359 2.66467 699.359 4.80067C699.359 6.93667 697.627 8.66968 695.49 8.66968C693.355 8.66968 691.621 6.93667 691.621 4.80067ZM678.388 4.80067C678.388 2.66467 680.122 0.930679 682.257 0.930679C684.396 0.930679 686.126 2.66467 686.126 4.80067C686.126 6.93667 684.396 8.66968 682.257 8.66968C680.122 8.66968 678.388 6.93667 678.388 4.80067ZM665.159 4.80067C665.159 2.66467 666.889 0.930679 669.028 0.930679C671.163 0.930679 672.896 2.66467 672.896 4.80067C672.896 6.93667 671.163 8.66968 669.028 8.66968C666.889 8.66968 665.159 6.93667 665.159 4.80067ZM651.926 4.80067C651.926 2.66467 653.659 0.930679 655.795 0.930679C657.932 0.930679 659.666 2.66467 659.666 4.80067C659.666 6.93667 657.932 8.66968 655.795 8.66968C653.659 8.66968 651.926 6.93667 651.926 4.80067ZM638.695 4.80067C638.695 2.66467 640.427 0.930679 642.564 0.930679C644.701 0.930679 646.433 2.66467 646.433 4.80067C646.433 6.93667 644.701 8.66968 642.564 8.66968C640.427 8.66968 638.695 6.93667 638.695 4.80067ZM625.463 4.80067C625.463 2.66467 627.195 0.930679 629.332 0.930679C631.47 0.930679 633.201 2.66467 633.201 4.80067C633.201 6.93667 631.47 8.66968 629.332 8.66968C627.195 8.66968 625.463 6.93667 625.463 4.80067ZM612.233 4.80067C612.233 2.66467 613.966 0.930679 616.1 0.930679C618.237 0.930679 619.97 2.66467 619.97 4.80067C619.97 6.93667 618.237 8.66968 616.1 8.66968C613.966 8.66968 612.233 6.93667 612.233 4.80067Z" fill="#C9D44A"/>
<path d="M126.832 59.5392H122.848C121.828 59.5392 121.642 59.4462 121.55 58.6122L120.808 53.4232C120.623 52.3102 120.252 51.7542 119.511 51.1062L118.307 50.0862C117.379 49.3452 116.731 49.1602 114.692 49.1602H94.0262C93.4702 49.1602 93.1932 49.4382 93.1932 49.9932V72.2352C93.1932 72.7912 93.4702 73.0692 94.0262 73.0692H106.074C107 73.0692 107.278 72.8842 107.835 72.2352L109.41 70.3812C109.873 69.9182 109.966 69.6402 109.966 68.8992V65.1922C109.966 64.6362 110.244 64.3582 110.8 64.3582H114.507C115.063 64.3582 115.341 64.6362 115.341 65.1922V86.3202C115.341 86.8772 115.063 87.1552 114.507 87.1552H110.8C110.244 87.1552 109.966 86.8772 109.966 86.3202V82.6142C109.966 81.8722 109.78 81.5952 109.225 80.9462L107.742 79.2782C107.093 78.5362 106.723 78.4442 105.796 78.4442H94.0262C93.4702 78.4442 93.1932 78.7222 93.1932 79.2782V98.4612C93.1932 99.1092 93.4702 99.5732 94.1192 100.221L95.6952 101.704C96.2512 102.167 96.6212 102.353 97.3632 102.353H104.962C105.518 102.353 105.796 102.631 105.796 103.187V106.523C105.796 107.079 105.518 107.357 104.962 107.357H73.8242C73.2682 107.357 72.9902 107.079 72.9902 106.523V103.187C72.9902 102.631 73.2682 102.353 73.8242 102.353H79.4772C80.2182 102.353 80.5892 102.167 81.0532 101.704L82.7212 100.221C83.3692 99.6652 83.5552 99.1092 83.5552 98.4612V52.5882C83.5552 52.0332 83.3692 51.4762 82.7212 50.9202L81.0532 49.4382C80.5892 48.9742 80.2182 48.7892 79.4772 48.7892H73.8242C73.2682 48.7892 72.9902 48.5112 72.9902 47.8622V44.6192C72.9902 44.0632 73.2682 43.7852 73.8242 43.7852H119.418C119.882 43.7852 120.067 43.7852 120.252 43.4142L120.994 42.1172C121.087 41.9312 121.272 41.8382 121.642 41.8382H125.164C125.813 41.8382 126.09 42.1172 126.183 42.6732L127.573 58.6122C127.666 59.2612 127.388 59.5392 126.832 59.5392Z" fill="#FFED42"/>
<path d="M277.117 100.222L278.692 101.705C279.249 102.168 279.619 102.353 280.361 102.353H285.921C286.477 102.353 286.754 102.631 286.754 103.187V106.523C286.754 107.079 286.477 107.357 285.921 107.357H256.822C256.266 107.357 255.988 107.079 255.988 106.523V103.187C255.988 102.631 256.266 102.353 256.822 102.353H262.475C263.216 102.353 263.587 102.168 264.05 101.705L265.719 100.222C266.367 99.6657 266.552 99.1097 266.552 98.4607V52.5887C266.552 52.0327 266.367 51.4767 265.719 50.9207L264.05 49.4377C263.587 48.9747 263.216 48.7887 262.475 48.7887H256.822C256.266 48.7887 255.988 48.5107 255.988 47.9547V44.6187C255.988 44.0627 256.266 43.7847 256.822 43.7847H285.921C286.477 43.7847 286.754 44.0627 286.754 44.6187V47.9547C286.754 48.5107 286.477 48.7887 285.921 48.7887H280.361C279.619 48.7887 279.341 48.8817 278.785 49.3447L276.931 51.0137C276.283 51.6617 276.19 52.0327 276.19 52.6817V98.4607C276.19 99.1097 276.468 99.5727 277.117 100.222Z" fill="#FFED42"/>
<path d="M461.231 44.9894L464.011 43.1364C464.475 42.8584 464.753 42.7654 465.586 42.7654H467.904C468.552 42.7654 468.923 42.9504 469.015 43.5994L470.406 61.3924C470.498 62.2264 470.22 62.5044 469.572 62.5044H465.309C464.938 62.5044 464.567 62.2264 464.475 61.6704L463.363 54.7194C463.27 54.0714 463.085 53.3294 462.344 52.7744C459.748 50.6424 455.671 48.8814 448.906 48.8814C434.264 48.8814 423.514 59.4464 423.514 75.6634C423.514 90.5834 432.411 102.26 447.701 102.26C452.52 102.26 456.042 101.518 458.729 100.036C459.563 99.5724 459.656 99.3874 459.563 98.3684L457.895 83.3554C457.803 82.7064 457.617 82.5214 456.968 82.5214H448.999C448.443 82.5214 448.164 82.2434 448.164 81.6874V78.1654C448.164 77.6094 448.443 77.3324 448.999 77.3324H475.781C476.336 77.3324 476.615 77.6094 476.615 78.1654V81.6874C476.615 82.2434 476.336 82.5214 475.781 82.5214H471.61C470.776 82.5214 470.498 82.6134 470.035 83.0774L467.996 84.9304C467.44 85.3944 467.347 85.6714 467.44 86.4134L468.182 93.4564C468.274 94.1054 468.366 94.1974 469.015 94.3834L471.147 95.0324C471.795 95.2174 471.795 95.4954 471.795 95.9584V98.3684C471.795 98.8314 471.703 99.1094 471.24 99.3874L469.294 100.684C462.899 104.947 455.671 108.284 445.106 108.284C426.294 108.284 412.857 95.1244 412.857 76.3124C412.857 56.4804 427.777 42.8584 446.774 42.8584C451.964 42.8584 456.597 44.2484 459.1 45.1744C460.026 45.5454 460.583 45.4524 461.231 44.9894Z" fill="#FFED42"/>
<path d="M691.402 59.9994H687.417C686.398 59.9994 686.213 59.9074 686.121 59.0734L685.379 53.8834C685.194 52.7714 684.823 52.2154 684.081 51.5664L682.877 50.5474C681.951 49.8054 681.301 49.6204 679.263 49.6204H658.598C658.042 49.6204 657.763 49.8984 657.763 50.4544V72.6954C657.763 73.2514 658.042 73.5294 658.598 73.5294H670.644C671.571 73.5294 671.85 73.3444 672.405 72.6954L673.98 70.8424C674.444 70.3784 674.537 70.1004 674.537 69.3594V65.6524C674.537 65.0964 674.816 64.8184 675.37 64.8184H679.077C679.634 64.8184 679.911 65.0964 679.911 65.6524V86.7814C679.911 87.3374 679.634 87.6154 679.077 87.6154H675.37C674.816 87.6154 674.537 87.3374 674.537 86.7814V83.0744C674.537 82.3334 674.351 82.0554 673.795 81.4064L672.313 79.7384C671.664 78.9974 671.294 78.9044 670.366 78.9044H658.598C658.042 78.9044 657.763 79.1824 657.763 79.7384V98.9214C657.763 99.5704 658.042 100.033 658.69 100.682L660.266 102.165C660.822 102.628 661.193 102.813 661.933 102.813H669.533C670.089 102.813 670.366 103.091 670.366 103.647V106.983C670.366 107.539 670.089 107.817 669.533 107.817H638.395C637.839 107.817 637.561 107.539 637.561 106.983V103.647C637.561 103.091 637.839 102.813 638.395 102.813H644.048C644.79 102.813 645.161 102.628 645.623 102.165L647.291 100.682C647.941 100.126 648.126 99.5704 648.126 98.9214V53.0494C648.126 52.4934 647.941 51.9374 647.291 51.3814L645.623 49.8984C645.161 49.4354 644.79 49.2494 644.048 49.2494H638.395C637.839 49.2494 637.561 48.9714 637.561 48.3234V45.0794C637.561 44.5234 637.839 44.2454 638.395 44.2454H683.989C684.452 44.2454 684.637 44.2454 684.823 43.8744L685.565 42.5774C685.657 42.3924 685.842 42.2994 686.213 42.2994H689.735C690.383 42.2994 690.662 42.5774 690.754 43.1334L692.144 59.0734C692.237 59.7214 691.958 59.9994 691.402 59.9994Z" fill="#FFED42"/>
<path d="M839.834 100.682L841.409 102.165C841.966 102.628 842.337 102.813 843.077 102.813H848.639C849.193 102.813 849.472 103.091 849.472 103.647V106.983C849.472 107.539 849.193 107.817 848.639 107.817H819.539C818.984 107.817 818.705 107.539 818.705 106.983V103.647C818.705 103.091 818.984 102.813 819.539 102.813H825.192C825.934 102.813 826.305 102.628 826.768 102.165L828.435 100.682C829.085 100.126 829.27 99.5704 829.27 98.9214V53.0494C829.27 52.4934 829.085 51.9374 828.435 51.3814L826.768 49.8984C826.305 49.4354 825.934 49.2494 825.192 49.2494H819.539C818.984 49.2494 818.705 48.9714 818.705 48.4154V45.0794C818.705 44.5234 818.984 44.2454 819.539 44.2454H848.639C849.193 44.2454 849.472 44.5234 849.472 45.0794V48.4154C849.472 48.9714 849.193 49.2494 848.639 49.2494H843.077C842.337 49.2494 842.058 49.3424 841.501 49.8054L839.649 51.4744C839.001 52.1224 838.907 52.4934 838.907 53.1424V98.9214C838.907 99.5704 839.186 100.033 839.834 100.682Z" fill="#FFED42"/>
<path d="M1010.42 107.818H1006.62C1005.88 107.818 1005.6 107.633 1005.32 106.891L981.967 50.3616C981.596 49.4346 981.225 49.2496 980.391 49.2496H977.52C976.963 49.2496 976.684 48.9716 976.684 48.4156V45.0796C976.684 44.5236 976.963 44.2456 977.52 44.2456H1003.19C1003.74 44.2456 1004.02 44.5236 1004.02 45.0796V48.4156C1004.02 48.9716 1003.74 49.2496 1003.19 49.2496H996.888C996.052 49.2496 995.775 49.3426 995.219 49.8986L993.922 51.1026C993.458 51.5666 993.458 51.7516 993.737 52.4936L1009.86 91.9706C1010.05 92.5266 1010.69 92.6196 1010.97 91.9706L1026.63 52.8636C1026.91 52.1226 1027 51.8446 1026.54 51.2886L1025.24 49.8986C1024.78 49.3426 1024.22 49.2496 1023.48 49.2496H1019.04C1018.48 49.2496 1018.2 48.9716 1018.2 48.4156V45.0796C1018.2 44.5236 1018.48 44.2456 1019.04 44.2456H1038.96C1039.51 44.2456 1039.79 44.5236 1039.79 45.0796V48.4156C1039.79 48.9716 1039.51 49.2496 1038.96 49.2496H1036.18C1035.34 49.2496 1034.79 49.6196 1034.51 50.3616L1011.62 106.984C1011.34 107.633 1011.06 107.818 1010.42 107.818Z" fill="#FFED42"/>
<path d="M1214.36 89.5619L1212.41 108.838C1212.32 109.579 1212.04 109.764 1211.39 109.764H1208.15C1207.6 109.764 1207.41 109.672 1207.13 109.208L1206.67 108.374C1206.39 107.911 1206.11 107.818 1205.56 107.818H1154.87C1154.31 107.818 1154.03 107.54 1154.03 106.984V103.648C1154.03 103.092 1154.31 102.814 1154.87 102.814H1160.52C1161.26 102.814 1161.63 102.628 1162.09 102.165L1163.76 100.682C1164.41 100.126 1164.6 99.5699 1164.6 98.9219V53.0489C1164.6 52.4939 1164.41 51.9369 1163.76 51.3809L1162.09 49.8989C1161.63 49.4349 1161.26 49.2499 1160.52 49.2499H1154.87C1154.31 49.2499 1154.03 48.9719 1154.03 48.4159V45.0799C1154.03 44.5239 1154.31 44.2459 1154.87 44.2459H1202.22C1202.87 44.2459 1203.15 44.0599 1203.43 43.5039L1203.8 42.8559C1203.98 42.4849 1204.26 42.2989 1204.72 42.2989H1207.97C1208.71 42.2989 1208.99 42.4849 1209.08 43.2259L1210.47 58.9799C1210.56 59.8149 1210.19 59.9999 1209.73 59.9999H1205.65C1204.91 59.9999 1204.63 59.8149 1204.54 58.9799L1203.89 53.7909C1203.8 52.8639 1203.7 52.4939 1202.78 51.7519L1201.02 50.3619C1200.18 49.7129 1199.81 49.6199 1198.42 49.6199H1175.07C1174.51 49.6199 1174.23 49.8989 1174.23 50.4539V72.6959C1174.23 73.2519 1174.51 73.5299 1175.07 73.5299H1189.99C1190.92 73.5299 1191.19 73.3439 1191.75 72.6959L1193.32 70.8419C1193.79 70.3789 1193.88 70.1009 1193.88 69.2669V65.6529C1193.88 65.0969 1194.16 64.8189 1194.71 64.8189H1198.42C1198.98 64.8189 1199.26 65.0969 1199.26 65.6529V86.7809C1199.26 87.3379 1198.98 87.6159 1198.42 87.6159H1194.71C1194.16 87.6159 1193.88 87.3379 1193.88 86.7809V83.0749C1193.88 82.3329 1193.7 82.0559 1193.23 81.4999L1191.75 79.8309C1191.1 79.0899 1190.73 78.9049 1189.71 78.9049H1175.07C1174.51 78.9049 1174.23 79.1829 1174.23 79.7389V98.0879C1174.23 99.1999 1174.51 99.6629 1175.16 100.312L1176.64 101.609C1177.29 102.258 1177.76 102.443 1178.68 102.443H1201.2C1202.78 102.443 1203.43 102.165 1204.26 101.516L1205.65 100.404C1206.48 99.7559 1206.85 99.2919 1206.95 98.3659L1208.15 89.7469C1208.24 88.9129 1208.52 88.6349 1209.36 88.6349H1213.53C1214.17 88.6349 1214.45 88.9129 1214.36 89.5619Z" fill="#FFED42"/>
</svg>
