<svg width="640" height="75" viewBox="0 0 640 75" fill="none" xmlns="http://www.w3.org/2000/svg">
<path d="M198.584 2.86555L179.128 31.1346L159.671 2.86555H111.646L92.1899 31.1346L72.7329 2.86555H24.7083L0.695312 37.7536L24.7083 72.6416H72.7329L92.1899 44.3731L111.646 72.6416H159.671L179.128 44.3731L198.584 72.6416H246.609L270.622 37.7536L246.609 2.86555H198.584Z" fill="#3D362E"/>
<path d="M240.719 72.6417C240.719 71.5732 241.585 70.7072 242.653 70.7072C243.721 70.7072 244.587 71.5732 244.587 72.6417C244.587 73.7102 243.721 74.5762 242.653 74.5762C241.585 74.5762 240.719 73.7102 240.719 72.6417ZM234.103 72.6417C234.103 71.5732 234.969 70.7072 236.038 70.7072C237.105 70.7072 237.971 71.5732 237.971 72.6417C237.971 73.7102 237.105 74.5762 236.038 74.5762C234.969 74.5762 234.103 73.7102 234.103 72.6417ZM227.487 72.6417C227.487 71.5732 228.353 70.7072 229.422 70.7072C230.49 70.7072 231.357 71.5732 231.357 72.6417C231.357 73.7102 230.49 74.5762 229.422 74.5762C228.353 74.5762 227.487 73.7102 227.487 72.6417ZM220.871 72.6417C220.871 71.5732 221.738 70.7072 222.806 70.7072C223.874 70.7072 224.74 71.5732 224.74 72.6417C224.74 73.7102 223.874 74.5762 222.806 74.5762C221.738 74.5762 220.871 73.7102 220.871 72.6417ZM214.256 72.6417C214.256 71.5732 215.122 70.7072 216.191 70.7072C217.258 70.7072 218.125 71.5732 218.125 72.6417C218.125 73.7102 217.258 74.5762 216.191 74.5762C215.122 74.5762 214.256 73.7102 214.256 72.6417ZM207.641 72.6417C207.641 71.5732 208.506 70.7072 209.575 70.7072C210.643 70.7072 211.509 71.5732 211.509 72.6417C211.509 73.7102 210.643 74.5762 209.575 74.5762C208.506 74.5762 207.641 73.7102 207.641 72.6417ZM201.024 72.6417C201.024 71.5732 201.89 70.7072 202.959 70.7072C204.026 70.7072 204.893 71.5732 204.893 72.6417C204.893 73.7102 204.026 74.5762 202.959 74.5762C201.89 74.5762 201.024 73.7102 201.024 72.6417ZM151.357 72.6417C151.357 71.5732 152.223 70.7072 153.291 70.7072C154.36 70.7072 155.225 71.5732 155.225 72.6417C155.225 73.7102 154.36 74.5762 153.291 74.5762C152.223 74.5762 151.357 73.7102 151.357 72.6417ZM144.741 72.6417C144.741 71.5732 145.607 70.7072 146.675 70.7072C147.744 70.7072 148.61 71.5732 148.61 72.6417C148.61 73.7102 147.744 74.5762 146.675 74.5762C145.607 74.5762 144.741 73.7102 144.741 72.6417ZM138.125 72.6417C138.125 71.5732 138.992 70.7072 140.06 70.7072C141.128 70.7072 141.994 71.5732 141.994 72.6417C141.994 73.7102 141.128 74.5762 140.06 74.5762C138.992 74.5762 138.125 73.7102 138.125 72.6417ZM131.509 72.6417C131.509 71.5732 132.376 70.7072 133.444 70.7072C134.513 70.7072 135.379 71.5732 135.379 72.6417C135.379 73.7102 134.513 74.5762 133.444 74.5762C132.376 74.5762 131.509 73.7102 131.509 72.6417ZM124.894 72.6417C124.894 71.5732 125.761 70.7072 126.828 70.7072C127.897 70.7072 128.763 71.5732 128.763 72.6417C128.763 73.7102 127.897 74.5762 126.828 74.5762C125.761 74.5762 124.894 73.7102 124.894 72.6417ZM118.278 72.6417C118.278 71.5732 119.144 70.7072 120.213 70.7072C121.281 70.7072 122.147 71.5732 122.147 72.6417C122.147 73.7102 121.281 74.5762 120.213 74.5762C119.144 74.5762 118.278 73.7102 118.278 72.6417ZM111.663 72.6417C111.663 71.5732 112.529 70.7072 113.597 70.7072C114.666 70.7072 115.532 71.5732 115.532 72.6417C115.532 73.7102 114.666 74.5762 113.597 74.5762C112.529 74.5762 111.663 73.7102 111.663 72.6417ZM68.6119 72.6417C68.6119 71.5732 69.4779 70.7072 70.5454 70.7072C71.6139 70.7072 72.4804 71.5732 72.4804 72.6417C72.4804 73.7102 71.6139 74.5762 70.5454 74.5762C69.4779 74.5762 68.6119 73.7102 68.6119 72.6417ZM61.9959 72.6417C61.9959 71.5732 62.8619 70.7072 63.9304 70.7072C64.9984 70.7072 65.8644 71.5732 65.8644 72.6417C65.8644 73.7102 64.9984 74.5762 63.9304 74.5762C62.8619 74.5762 61.9959 73.7102 61.9959 72.6417ZM55.3799 72.6417C55.3799 71.5732 56.2464 70.7072 57.3144 70.7072C58.3834 70.7072 59.2489 71.5732 59.2489 72.6417C59.2489 73.7102 58.3834 74.5762 57.3144 74.5762C56.2464 74.5762 55.3799 73.7102 55.3799 72.6417ZM48.7649 72.6417C48.7649 71.5732 49.6309 70.7072 50.6994 70.7072C51.7669 70.7072 52.6329 71.5732 52.6329 72.6417C52.6329 73.7102 51.7669 74.5762 50.6994 74.5762C49.6309 74.5762 48.7649 73.7102 48.7649 72.6417ZM42.1489 72.6417C42.1489 71.5732 43.0144 70.7072 44.0839 70.7072C45.1514 70.7072 46.0179 71.5732 46.0179 72.6417C46.0179 73.7102 45.1514 74.5762 44.0839 74.5762C43.0144 74.5762 42.1489 73.7102 42.1489 72.6417ZM35.5329 72.6417C35.5329 71.5732 36.3989 70.7072 37.4674 70.7072C38.5359 70.7072 39.4014 71.5732 39.4014 72.6417C39.4014 73.7102 38.5359 74.5762 37.4674 74.5762C36.3989 74.5762 35.5329 73.7102 35.5329 72.6417ZM28.9174 72.6417C28.9174 71.5732 29.7834 70.7072 30.8519 70.7072C31.9194 70.7072 32.7864 71.5732 32.7864 72.6417C32.7864 73.7102 31.9194 74.5762 30.8519 74.5762C29.7834 74.5762 28.9174 73.7102 28.9174 72.6417ZM158.708 74.0392C157.828 73.4342 157.605 72.2302 158.211 71.3497C158.817 70.4692 160.021 70.2477 160.901 70.8537C161.781 71.4587 162.003 72.6642 161.398 73.5432C161.022 74.0882 160.418 74.3812 159.803 74.3812C159.425 74.3812 159.043 74.2707 158.708 74.0392ZM22.8464 73.3502C22.2404 72.4707 22.4634 71.2652 23.3434 70.6602C24.2234 70.0542 25.4284 70.2767 26.0334 71.1562C26.6394 72.0367 26.4164 73.2417 25.5369 73.8477C25.2014 74.0772 24.8204 74.1882 24.4424 74.1882C23.8274 74.1882 23.2224 73.8957 22.8464 73.3502ZM195.719 71.8927C195.114 71.0127 195.336 69.8082 196.217 69.2022C197.096 68.5972 198.301 68.8197 198.906 69.6992C199.512 70.5792 199.291 71.7837 198.41 72.3897C198.075 72.6197 197.693 72.7307 197.315 72.7307C196.7 72.7307 196.094 72.4377 195.719 71.8927ZM247.019 72.0447C246.14 71.4387 245.917 70.2332 246.523 69.3537C247.129 68.4747 248.333 68.2507 249.214 68.8572C250.093 69.4622 250.316 70.6672 249.711 71.5477C249.335 72.0927 248.73 72.3852 248.114 72.3852C247.736 72.3852 247.355 72.2742 247.019 72.0447ZM74.1464 70.5867C73.2674 69.9812 73.0444 68.7762 73.6499 67.8967C74.2559 67.0167 75.4599 66.7942 76.3404 67.3992C77.2199 68.0052 77.4424 69.2092 76.8374 70.0897C76.4619 70.6347 75.8564 70.9272 75.2419 70.9272C74.8639 70.9272 74.4819 70.8172 74.1464 70.5867ZM107.408 69.8962C106.802 69.0157 107.024 67.8127 107.904 67.2067C108.784 66.6007 109.989 66.8232 110.594 67.7037C111.2 68.5837 110.978 69.7872 110.098 70.3932C109.763 70.6237 109.381 70.7337 109.003 70.7337C108.388 70.7337 107.783 70.4412 107.408 69.8962ZM162.459 68.5902C161.578 67.9847 161.356 66.7807 161.962 65.9002C162.567 65.0202 163.772 64.7982 164.652 65.4032C165.531 66.0097 165.754 67.2137 165.149 68.0932C164.774 68.6387 164.169 68.9317 163.553 68.9317C163.175 68.9317 162.793 68.8207 162.459 68.5902ZM19.0954 67.9002C18.4899 67.0212 18.7134 65.8162 19.5924 65.2097C20.4719 64.6047 21.6764 64.8272 22.2829 65.7067C22.8889 66.5872 22.6659 67.7922 21.7854 68.3972C21.4509 68.6282 21.0684 68.7382 20.6899 68.7382C20.0754 68.7382 19.4699 68.4462 19.0954 67.9002ZM191.969 66.4422C191.363 65.5632 191.585 64.3577 192.465 63.7527C193.345 63.1467 194.55 63.3692 195.156 64.2487C195.761 65.1292 195.539 66.3342 194.66 66.9402C194.324 67.1702 193.943 67.2812 193.565 67.2812C192.949 67.2812 192.344 66.9882 191.969 66.4422ZM250.771 66.5942C249.891 65.9887 249.668 64.7837 250.273 63.9037C250.88 63.0242 252.085 62.8017 252.965 63.4077C253.845 64.0127 254.067 65.2177 253.461 66.0982C253.086 66.6432 252.481 66.9357 251.866 66.9357C251.488 66.9357 251.106 66.8247 250.771 66.5942ZM77.8979 65.1372C77.0174 64.5312 76.7949 63.3257 77.4009 62.4472C78.0059 61.5672 79.2109 61.3437 80.0914 61.9497C80.9714 62.5547 81.1934 63.7597 80.5874 64.6402C80.2119 65.1847 79.6079 65.4777 78.9919 65.4777C78.6139 65.4777 78.2324 65.3667 77.8979 65.1372ZM103.657 64.4467C103.051 63.5662 103.274 62.3632 104.154 61.7572C105.034 61.1517 106.237 61.3737 106.844 62.2537C107.449 63.1337 107.227 64.3377 106.346 64.9437C106.012 65.1742 105.63 65.2842 105.252 65.2842C104.636 65.2842 104.032 64.9917 103.657 64.4467ZM166.21 63.1402C165.329 62.5347 165.107 61.3312 165.713 60.4507C166.319 59.5707 167.523 59.3487 168.403 59.9542C169.283 60.5597 169.505 61.7632 168.899 62.6437C168.525 63.1892 167.92 63.4822 167.304 63.4822C166.927 63.4822 166.544 63.3712 166.21 63.1402ZM15.3449 62.4512C14.7394 61.5717 14.9609 60.3662 15.8414 59.7607C16.7219 59.1552 17.9264 59.3777 18.5314 60.2572C19.1374 61.1377 18.9154 62.3417 18.0354 62.9477C17.6994 63.1787 17.3184 63.2897 16.9404 63.2897C16.3244 63.2887 15.7204 62.9957 15.3449 62.4512ZM188.218 60.9932C187.613 60.1137 187.834 58.9082 188.715 58.3032C189.595 57.6972 190.799 57.9202 191.406 58.7997C192.011 59.6797 191.788 60.8847 190.908 61.4902C190.573 61.7207 190.19 61.8307 189.812 61.8307C189.197 61.8307 188.593 61.5387 188.218 60.9932ZM254.522 61.1447C253.642 60.5397 253.419 59.3347 254.025 58.4552C254.63 57.5747 255.835 57.3522 256.715 57.9582C257.595 58.5632 257.817 59.7682 257.212 60.6477C256.837 61.1937 256.232 61.4862 255.617 61.4862C255.239 61.4862 254.857 61.3752 254.522 61.1447ZM81.6489 59.6877C80.7684 59.0817 80.5464 57.8767 81.1519 56.9962C81.7579 56.1167 82.9619 55.8942 83.8414 56.5002C84.7219 57.1062 84.9444 58.3107 84.3384 59.1907C83.9639 59.7357 83.3589 60.0287 82.7439 60.0287C82.3654 60.0287 81.9834 59.9177 81.6489 59.6877ZM99.9059 58.9972C99.3004 58.1172 99.5224 56.9137 100.403 56.3077C101.283 55.7017 102.487 55.9242 103.092 56.8047C103.698 57.6847 103.476 58.8882 102.596 59.4942C102.262 59.7252 101.879 59.8352 101.501 59.8352C100.886 59.8352 100.281 59.5422 99.9059 58.9972ZM169.96 57.6912C169.08 57.0847 168.858 55.8817 169.464 55.0012C170.07 54.1212 171.273 53.8992 172.153 54.5042C173.034 55.1107 173.255 56.3137 172.65 57.1942C172.275 57.7387 171.671 58.0317 171.055 58.0317C170.678 58.0317 170.295 57.9217 169.96 57.6912ZM11.5944 57.0007C10.9889 56.1212 11.2104 54.9172 12.0909 54.3112C12.9709 53.7057 14.1749 53.9277 14.7814 54.8077C15.3864 55.6882 15.1649 56.8922 14.2844 57.4987C13.9489 57.7282 13.5674 57.8392 13.1894 57.8392C12.5744 57.8392 11.9689 57.5462 11.5944 57.0007ZM184.467 55.5447C183.861 54.6642 184.083 53.4592 184.964 52.8527C185.844 52.2477 187.048 52.4707 187.654 53.3497C188.26 54.2302 188.038 55.4347 187.157 56.0402C186.822 56.2712 186.44 56.3822 186.062 56.3822C185.446 56.3812 184.842 56.0892 184.467 55.5447ZM258.272 55.6952C257.392 55.0892 257.17 53.8852 257.776 53.0047C258.381 52.1252 259.586 51.9027 260.466 52.5077C261.346 53.1142 261.569 54.3182 260.964 55.1982C260.588 55.7432 259.983 56.0362 259.367 56.0362C258.989 56.0362 258.608 55.9252 258.272 55.6952ZM85.3994 54.2372C84.5194 53.6322 84.2974 52.4272 84.9029 51.5477C85.5089 50.6672 86.7129 50.4447 87.5924 51.0507C88.4729 51.6557 88.6944 52.8607 88.0894 53.7412C87.7139 54.2862 87.1094 54.5792 86.4944 54.5792C86.1164 54.5792 85.7349 54.4682 85.3994 54.2372ZM96.1559 53.5477C95.5494 52.6677 95.7714 51.4632 96.6519 50.8582C97.5309 50.2512 98.7364 50.4737 99.3424 51.3542C99.9474 52.2342 99.7254 53.4387 98.8454 54.0437C98.5099 54.2747 98.1284 54.3857 97.7494 54.3857C97.1344 54.3857 96.5304 54.0927 96.1559 53.5477ZM173.711 52.2417C172.831 51.6357 172.609 50.4312 173.215 49.5507C173.82 48.6707 175.025 48.4487 175.904 49.0547C176.785 49.6602 177.007 50.8642 176.402 51.7447C176.026 52.2902 175.421 52.5822 174.806 52.5822C174.428 52.5822 174.046 52.4722 173.711 52.2417ZM7.84286 51.5512C7.23736 50.6717 7.46036 49.4667 8.34036 48.8617C9.21986 48.2552 10.4239 48.4792 11.0304 49.3582C11.6364 50.2387 11.4134 51.4422 10.5334 52.0487C10.1979 52.2787 9.81637 52.3897 9.43837 52.3897C8.82286 52.3897 8.21836 52.0972 7.84286 51.5512ZM180.716 50.0932C180.111 49.2147 180.333 48.0097 181.213 47.4037C182.092 46.7982 183.297 47.0212 183.903 47.9007C184.508 48.7807 184.286 49.9857 183.406 50.5912C183.071 50.8212 182.689 50.9317 182.311 50.9317C181.696 50.9317 181.091 50.6392 180.716 50.0932ZM262.023 50.2457C261.144 49.6397 260.921 48.4357 261.526 47.5552C262.132 46.6757 263.337 46.4532 264.218 47.0582C265.096 47.6642 265.32 48.8687 264.714 49.7492C264.338 50.2937 263.734 50.5867 263.118 50.5867C262.74 50.5867 262.359 50.4757 262.023 50.2457ZM89.1499 48.7877C88.2704 48.1827 88.0474 46.9777 88.6534 46.0972C89.2589 45.2177 90.4639 44.9952 91.3444 45.6002C91.7204 45.8597 91.9759 46.2287 92.0984 46.6342C92.1919 46.1542 92.4659 45.7077 92.9014 45.4087C93.7809 44.8027 94.9864 45.0242 95.5914 45.9047C96.1974 46.7842 95.9734 47.9892 95.0944 48.5947C94.2139 49.2002 93.0099 48.9787 92.4039 48.0982C92.2884 47.9297 92.2024 47.7497 92.1464 47.5632C92.0969 47.8172 91.9954 48.0652 91.8404 48.2917C91.4649 48.8367 90.8604 49.1297 90.2459 49.1297C89.8669 49.1297 89.4849 49.0187 89.1499 48.7877ZM177.462 46.7912C176.582 46.1862 176.36 44.9817 176.965 44.1017C177.571 43.2212 178.776 42.9992 179.655 43.6057C180.535 44.2107 180.758 45.4152 180.152 46.2952C179.778 46.8402 179.173 47.1332 178.558 47.1332C178.18 47.1332 177.797 47.0222 177.462 46.7912ZM4.09235 46.1017C3.48635 45.2222 3.70936 44.0172 4.58886 43.4122C5.46886 42.8057 6.67287 43.0287 7.27937 43.9082C7.88537 44.7882 7.66236 45.9927 6.78286 46.5977C6.44736 46.8292 6.06536 46.9397 5.68736 46.9397C5.07236 46.9397 4.46685 46.6467 4.09235 46.1017ZM265.775 44.7962C264.895 44.1902 264.671 42.9852 265.277 42.1052C265.883 41.2252 267.088 41.0026 267.968 41.6086C268.848 42.2141 269.07 43.4192 268.465 44.2987C268.089 44.8442 267.484 45.1372 266.869 45.1372C266.491 45.1372 266.11 45.0262 265.775 44.7962ZM0.341862 40.6522C-0.264638 39.7727 -0.0426393 38.5676 0.837361 37.9626C1.71786 37.3566 2.92236 37.5781 3.52886 38.4587C4.13436 39.3387 3.91136 40.5431 3.03136 41.1491C2.69686 41.3797 2.31386 41.4901 1.93636 41.4901C1.32136 41.4901 0.715863 41.1972 0.341862 40.6522ZM269.027 38.8496C268.421 37.9696 268.643 36.7646 269.523 36.1591C270.404 35.5531 271.608 35.7761 272.213 36.6551C272.819 37.5356 272.597 38.7401 271.717 39.3461C271.383 39.5766 271 39.6876 270.622 39.6866C270.006 39.6866 269.402 39.3946 269.027 38.8496ZM2.10886 35.6991C1.22836 35.0936 1.00635 33.8896 1.61185 33.0091C2.21785 32.1296 3.42136 31.9071 4.30186 32.5121C5.18236 33.1181 5.40537 34.3226 4.79887 35.2026C4.42337 35.7476 3.81936 36.0406 3.20386 36.0406C2.82536 36.0406 2.44386 35.9296 2.10886 35.6991ZM265.276 33.3996C264.669 32.5201 264.893 31.3151 265.773 30.7091C266.652 30.1036 267.857 30.3266 268.463 31.2061C269.068 32.0861 268.846 33.2911 267.966 33.8966C267.631 34.1271 267.249 34.2371 266.871 34.2371C266.256 34.2371 265.651 33.9446 265.276 33.3996ZM89.9234 31.2556C89.3184 30.3761 89.5409 29.1711 90.4204 28.5661C91.3009 27.9596 92.5059 28.1826 93.1109 29.0621C93.7169 29.9421 93.4934 31.1471 92.6144 31.7526C92.2799 31.9831 91.8969 32.0936 91.5189 32.0936C90.9039 32.0936 90.2989 31.8006 89.9234 31.2556ZM178.733 31.7071C177.853 31.1011 177.629 29.8971 178.236 29.0166C178.841 28.1366 180.046 27.9146 180.925 28.5206C181.805 29.1256 182.028 30.3301 181.423 31.2101C181.048 31.7561 180.442 32.0481 179.828 32.0481C179.449 32.0481 179.068 31.9381 178.733 31.7071ZM5.85937 30.2491C4.97937 29.6431 4.75686 28.4401 5.36286 27.5596C5.96836 26.6796 7.17386 26.4576 8.05186 27.0626C8.93236 27.6686 9.15586 28.8731 8.54986 29.7521C8.17486 30.2981 7.56936 30.5911 6.95435 30.5911C6.57635 30.5901 6.19437 30.4801 5.85937 30.2491ZM261.525 27.9491C260.919 27.0696 261.142 25.8656 262.021 25.2596C262.902 24.6546 264.107 24.8761 264.712 25.7566C265.318 26.6366 265.094 27.8406 264.216 28.4471C263.881 28.6771 263.499 28.7876 263.121 28.7876C262.506 28.7876 261.9 28.4951 261.525 27.9491ZM174.484 27.8016C173.879 26.9216 174.102 25.7176 174.982 25.1121C175.862 24.5051 177.066 24.7291 177.671 25.6091C178.278 26.4886 178.055 27.6926 177.175 28.2986C176.841 28.5296 176.459 28.6396 176.08 28.6396C175.465 28.6396 174.86 28.3466 174.484 27.8016ZM94.1724 28.2536C93.2919 27.6486 93.0684 26.4431 93.6744 25.5636C94.2799 24.6836 95.4849 24.4611 96.3649 25.0661C97.2444 25.6721 97.4674 26.8771 96.8619 27.7576C96.4869 28.3021 95.8814 28.5951 95.2664 28.5951C94.8884 28.5951 94.5069 28.4841 94.1724 28.2536ZM86.1734 25.8051C85.5674 24.9256 85.7894 23.7216 86.6694 23.1156C87.5499 22.5106 88.7539 22.7331 89.3599 23.6126C89.9659 24.4926 89.7434 25.6971 88.8629 26.3031C88.5284 26.5331 88.1464 26.6441 87.7684 26.6441C87.1529 26.6441 86.5479 26.3511 86.1734 25.8051ZM182.483 26.2571C181.603 25.6516 181.38 24.4476 181.986 23.5671C182.593 22.6871 183.797 22.4651 184.677 23.0711C185.557 23.6766 185.779 24.8806 185.173 25.7606C184.799 26.3056 184.193 26.5986 183.578 26.5986C183.2 26.5986 182.818 26.4876 182.483 26.2571ZM9.61036 24.7996C8.73136 24.1936 8.50737 22.9906 9.11337 22.1101C9.71837 21.2296 10.9234 21.0081 11.8039 21.6131C12.6839 22.2191 12.9064 23.4226 12.3009 24.3031C11.9254 24.8486 11.3204 25.1416 10.7044 25.1416C10.3264 25.1416 9.94536 25.0306 9.61036 24.7996ZM257.774 22.4996C257.168 21.6206 257.39 20.4151 258.271 19.8101C259.151 19.2041 260.355 19.4276 260.962 20.3071C261.567 21.1866 261.344 22.3906 260.464 22.9976C260.13 23.2271 259.748 23.3381 259.37 23.3381C258.754 23.3381 258.15 23.0456 257.774 22.4996ZM170.734 22.3526C170.128 21.4721 170.35 20.2681 171.23 19.6626C172.111 19.0566 173.315 19.2786 173.921 20.1586C174.527 21.0381 174.304 22.2431 173.424 22.8491C173.089 23.0801 172.707 23.1901 172.329 23.1901C171.714 23.1901 171.109 22.8971 170.734 22.3526ZM97.9224 22.8041C97.0424 22.1991 96.8194 20.9941 97.4264 20.1136C98.0314 19.2341 99.2359 19.0116 100.116 19.6166C100.995 20.2236 101.218 21.4281 100.612 22.3081C100.237 22.8521 99.6324 23.1461 99.0169 23.1461C98.6394 23.1461 98.2569 23.0351 97.9224 22.8041ZM82.4224 20.3556C81.8164 19.4766 82.0389 18.2721 82.9194 17.6661C83.7994 17.0611 85.0029 17.2836 85.6089 18.1631C86.2144 19.0436 85.9924 20.2466 85.1119 20.8526C84.7774 21.0836 84.3954 21.1941 84.0169 21.1941C83.4019 21.1941 82.7979 20.9016 82.4224 20.3556ZM186.234 20.8076C185.354 20.2021 185.132 18.9981 185.737 18.1181C186.344 17.2376 187.548 17.0156 188.428 17.6211C189.307 18.2271 189.53 19.4311 188.924 20.3116C188.55 20.8561 187.944 21.1491 187.33 21.1491C186.952 21.1491 186.57 21.0381 186.234 20.8076ZM13.3614 19.3496C12.4809 18.7441 12.2584 17.5401 12.8644 16.6596C13.4704 15.7796 14.6749 15.5576 15.5549 16.1636C16.4354 16.7691 16.6569 17.9731 16.0514 18.8536C15.6769 19.3981 15.0714 19.6911 14.4569 19.6911C14.0784 19.6911 13.6959 19.5801 13.3614 19.3496ZM254.024 17.0501C253.418 16.1711 253.64 14.9661 254.52 14.3606C255.401 13.7546 256.604 13.9766 257.21 14.8566C257.815 15.7371 257.594 16.9421 256.713 17.5481C256.379 17.7781 255.997 17.8891 255.619 17.8891C255.003 17.8891 254.399 17.5961 254.024 17.0501ZM166.983 16.9031C166.377 16.0226 166.6 14.8186 167.48 14.2131C168.361 13.6066 169.565 13.8291 170.17 14.7091C170.776 15.5896 170.553 16.7936 169.673 17.3991C169.338 17.6296 168.956 17.7406 168.578 17.7406C167.963 17.7406 167.358 17.4476 166.983 16.9031ZM101.673 17.3546C100.793 16.7486 100.571 15.5441 101.176 14.6651C101.782 13.7846 102.987 13.5621 103.866 14.1671C104.746 14.7731 104.969 15.9776 104.363 16.8576C103.988 17.4026 103.383 17.6956 102.768 17.6956C102.39 17.6956 102.008 17.5846 101.673 17.3546ZM78.6714 14.9061C78.0654 14.0271 78.2879 12.8221 79.1684 12.2166C80.0479 11.6106 81.2529 11.8326 81.8579 12.7126C82.4639 13.5931 82.2414 14.7981 81.3619 15.4041C81.0264 15.6341 80.6449 15.7451 80.2669 15.7451C79.6519 15.7451 79.0469 15.4521 78.6714 14.9061ZM189.985 15.3581C189.105 14.7531 188.882 13.5486 189.488 12.6681C190.094 11.7881 191.298 11.5661 192.178 12.1711C193.058 12.7776 193.281 13.9816 192.675 14.8611C192.3 15.4066 191.695 15.6996 191.079 15.6996C190.701 15.6996 190.32 15.5886 189.985 15.3581ZM17.1124 13.9001C16.2324 13.2951 16.0104 12.0906 16.6154 11.2101C17.2214 10.3301 18.4249 10.1081 19.3054 10.7146C20.1854 11.3196 20.4079 12.5246 19.8019 13.4041C19.4269 13.9491 18.8224 14.2416 18.2074 14.2416C17.8294 14.2416 17.4479 14.1316 17.1124 13.9001ZM250.272 11.6011C249.667 10.7211 249.889 9.51613 250.77 8.91113C251.649 8.30513 252.854 8.52713 253.459 9.40713C254.065 10.2876 253.843 11.4916 252.963 12.0976C252.628 12.3286 252.246 12.4386 251.868 12.4386C251.252 12.4386 250.648 12.1456 250.272 11.6011ZM163.233 11.4536C162.626 10.5731 162.849 9.36913 163.729 8.76213C164.609 8.15713 165.814 8.37963 166.419 9.25964C167.025 10.1391 166.802 11.3446 165.923 11.9496C165.587 12.1801 165.205 12.2911 164.827 12.2911C164.212 12.2911 163.608 11.9986 163.233 11.4536ZM105.423 11.9051C104.544 11.2991 104.321 10.0941 104.927 9.21564C105.532 8.33514 106.738 8.11163 107.617 8.71764C108.497 9.32314 108.72 10.5281 108.114 11.4081C107.739 11.9531 107.134 12.2456 106.518 12.2456C106.14 12.2456 105.759 12.1351 105.423 11.9051ZM74.9204 9.45713C74.3144 8.57763 74.5369 7.37263 75.4164 6.76713C76.2969 6.16113 77.5019 6.38363 78.1079 7.26313C78.7134 8.14363 78.4904 9.34764 77.6104 9.95364C77.2759 10.1846 76.8929 10.2946 76.5149 10.2946C75.9004 10.2946 75.2959 10.0016 74.9204 9.45713ZM193.736 9.90863C192.856 9.30263 192.634 8.09913 193.24 7.21913C193.845 6.33863 195.05 6.11563 195.929 6.72213C196.809 7.32713 197.033 8.53164 196.427 9.41164C196.051 9.95664 195.446 10.2491 194.831 10.2491C194.453 10.2491 194.071 10.1391 193.736 9.90863ZM20.8624 8.45063C19.9829 7.84513 19.7604 6.64113 20.3664 5.76113C20.9719 4.88063 22.1769 4.65913 23.0559 5.26413C23.9364 5.87013 24.1589 7.07413 23.5544 7.95363C23.1774 8.49963 22.5724 8.79214 21.9574 8.79214C21.5794 8.79214 21.1979 8.68113 20.8624 8.45063ZM246.521 6.15163C245.916 5.27113 246.139 4.06713 247.018 3.46063C247.899 2.85563 249.103 3.07763 249.709 3.95763C250.314 4.83813 250.091 6.04213 249.212 6.64763C248.877 6.87913 248.495 6.98913 248.116 6.98913C247.502 6.98913 246.897 6.69613 246.521 6.15163ZM159.481 6.00313C158.876 5.12313 159.099 3.91963 159.978 3.31362C160.859 2.70712 162.063 2.93013 162.669 3.81063C163.274 4.68963 163.051 5.89413 162.171 6.50013C161.837 6.73113 161.455 6.84113 161.077 6.84113C160.462 6.84113 159.857 6.54813 159.481 6.00313ZM109.174 6.45513C108.295 5.84963 108.072 4.64463 108.678 3.76413C109.284 2.88513 110.489 2.66213 111.368 3.26813C112.248 3.87363 112.471 5.07863 111.865 5.95863C111.49 6.50363 110.885 6.79663 110.27 6.79663C109.892 6.79663 109.51 6.68563 109.174 6.45513ZM71.1694 4.00763C70.5644 3.12812 70.7864 1.92313 71.6664 1.31663C72.5464 0.711629 73.7499 0.933623 74.3559 1.81362C74.9629 2.69412 74.7394 3.89813 73.8589 4.50363C73.5239 4.73513 73.1419 4.84513 72.7639 4.84513C72.1494 4.84513 71.5449 4.55213 71.1694 4.00763ZM240.716 2.86563C240.716 1.79763 241.582 0.931627 242.651 0.931627C243.718 0.931627 244.585 1.79763 244.585 2.86563C244.585 3.93363 243.718 4.80013 242.651 4.80013C241.582 4.80013 240.716 3.93363 240.716 2.86563ZM234.101 2.86563C234.101 1.79763 234.966 0.931627 236.035 0.931627C237.103 0.931627 237.97 1.79763 237.97 2.86563C237.97 3.93363 237.103 4.80013 236.035 4.80013C234.966 4.80013 234.101 3.93363 234.101 2.86563ZM227.484 2.86563C227.484 1.79763 228.35 0.931627 229.419 0.931627C230.486 0.931627 231.353 1.79763 231.353 2.86563C231.353 3.93363 230.486 4.80013 229.419 4.80013C228.35 4.80013 227.484 3.93363 227.484 2.86563ZM220.869 2.86563C220.869 1.79763 221.735 0.931627 222.803 0.931627C223.871 0.931627 224.738 1.79763 224.738 2.86563C224.738 3.93363 223.871 4.80013 222.803 4.80013C221.735 4.80013 220.869 3.93363 220.869 2.86563ZM214.253 2.86563C214.253 1.79763 215.119 0.931627 216.188 0.931627C217.255 0.931627 218.122 1.79763 218.122 2.86563C218.122 3.93363 217.255 4.80013 216.188 4.80013C215.119 4.80013 214.253 3.93363 214.253 2.86563ZM207.637 2.86563C207.637 1.79763 208.503 0.931627 209.572 0.931627C210.641 0.931627 211.506 1.79763 211.506 2.86563C211.506 3.93363 210.641 4.80013 209.572 4.80013C208.503 4.80013 207.637 3.93363 207.637 2.86563ZM201.021 2.86563C201.021 1.79763 201.887 0.931627 202.955 0.931627C204.024 0.931627 204.89 1.79763 204.89 2.86563C204.89 3.93363 204.024 4.80013 202.955 4.80013C201.887 4.80013 201.021 3.93363 201.021 2.86563ZM153.598 2.86563C153.598 1.79763 154.464 0.931627 155.532 0.931627C156.601 0.931627 157.466 1.79763 157.466 2.86563C157.466 3.93363 156.601 4.80013 155.532 4.80013C154.464 4.80013 153.598 3.93363 153.598 2.86563ZM146.982 2.86563C146.982 1.79763 147.848 0.931627 148.916 0.931627C149.984 0.931627 150.851 1.79763 150.851 2.86563C150.851 3.93363 149.984 4.80013 148.916 4.80013C147.848 4.80013 146.982 3.93363 146.982 2.86563ZM140.367 2.86563C140.367 1.79763 141.232 0.931627 142.301 0.931627C143.369 0.931627 144.235 1.79763 144.235 2.86563C144.235 3.93363 143.369 4.80013 142.301 4.80013C141.232 4.80013 140.367 3.93363 140.367 2.86563ZM133.751 2.86563C133.751 1.79763 134.617 0.931627 135.685 0.931627C136.754 0.931627 137.619 1.79763 137.619 2.86563C137.619 3.93363 136.754 4.80013 135.685 4.80013C134.617 4.80013 133.751 3.93363 133.751 2.86563ZM127.135 2.86563C127.135 1.79763 128.001 0.931627 129.069 0.931627C130.137 0.931627 131.003 1.79763 131.003 2.86563C131.003 3.93363 130.137 4.80013 129.069 4.80013C128.001 4.80013 127.135 3.93363 127.135 2.86563ZM120.52 2.86563C120.52 1.79763 121.386 0.931627 122.454 0.931627C123.522 0.931627 124.389 1.79763 124.389 2.86563C124.389 3.93363 123.522 4.80013 122.454 4.80013C121.386 4.80013 120.52 3.93363 120.52 2.86563ZM113.903 2.86563C113.903 1.79763 114.77 0.931627 115.838 0.931627C116.906 0.931627 117.772 1.79763 117.772 2.86563C117.772 3.93363 116.906 4.80013 115.838 4.80013C114.77 4.80013 113.903 3.93363 113.903 2.86563ZM64.2364 2.86563C64.2364 1.79763 65.1024 0.931627 66.1714 0.931627C67.2394 0.931627 68.1064 1.79763 68.1064 2.86563C68.1064 3.93363 67.2394 4.80013 66.1714 4.80013C65.1024 4.80013 64.2364 3.93363 64.2364 2.86563ZM57.6209 2.86563C57.6209 1.79763 58.4869 0.931627 59.5554 0.931627C60.6239 0.931627 61.4899 1.79763 61.4899 2.86563C61.4899 3.93363 60.6239 4.80013 59.5554 4.80013C58.4869 4.80013 57.6209 3.93363 57.6209 2.86563ZM51.0049 2.86563C51.0049 1.79763 51.8714 0.931627 52.9399 0.931627C54.0084 0.931627 54.8744 1.79763 54.8744 2.86563C54.8744 3.93363 54.0084 4.80013 52.9399 4.80013C51.8714 4.80013 51.0049 3.93363 51.0049 2.86563ZM44.3899 2.86563C44.3899 1.79763 45.2549 0.931627 46.3244 0.931627C47.3919 0.931627 48.2589 1.79763 48.2589 2.86563C48.2589 3.93363 47.3919 4.80013 46.3244 4.80013C45.2549 4.80013 44.3899 3.93363 44.3899 2.86563ZM37.7734 2.86563C37.7734 1.79763 38.6399 0.931627 39.7079 0.931627C40.7774 0.931627 41.6424 1.79763 41.6424 2.86563C41.6424 3.93363 40.7774 4.80013 39.7079 4.80013C38.6399 4.80013 37.7734 3.93363 37.7734 2.86563ZM31.1574 2.86563C31.1574 1.79763 32.0244 0.931627 33.0929 0.931627C34.1609 0.931627 35.0269 1.79763 35.0269 2.86563C35.0269 3.93363 34.1609 4.80013 33.0929 4.80013C32.0244 4.80013 31.1574 3.93363 31.1574 2.86563ZM24.5424 2.86563C24.5424 1.79763 25.4094 0.931627 26.4774 0.931627C27.5459 0.931627 28.4114 1.79763 28.4114 2.86563C28.4114 3.93363 27.5459 4.80013 26.4774 4.80013C25.4094 4.80013 24.5424 3.93363 24.5424 2.86563ZM197.488 4.45913C196.608 3.85313 196.384 2.64863 196.99 1.76863C197.597 0.889125 198.8 0.665623 199.681 1.27262C200.56 1.87762 200.783 3.08213 200.177 3.96213C199.802 4.50713 199.197 4.80013 198.582 4.80013C198.204 4.80013 197.823 4.68963 197.488 4.45913Z" fill="#C9D44A"/>
<path d="M615.83 2.86555H567.805L548.349 31.1346L528.892 2.86555H480.867L461.411 31.1346L441.954 2.86555H393.929L374.472 31.1346L355.016 2.86555H306.991L282.979 37.7536L306.991 72.6416H355.016L374.472 44.3731L393.929 72.6416H441.954L461.411 44.3731L480.867 72.6416H528.892L548.349 44.3731L567.805 72.6416H615.83L639.843 37.7536L615.83 2.86555Z" fill="#3D362E"/>
<path d="M613.069 72.6417C613.069 71.5742 613.935 70.7072 615.004 70.7072C616.071 70.7072 616.938 71.5742 616.938 72.6417C616.938 73.7102 616.071 74.5762 615.004 74.5762C613.935 74.5762 613.069 73.7102 613.069 72.6417ZM606.454 72.6417C606.454 71.5742 607.32 70.7072 608.388 70.7072C609.456 70.7072 610.323 71.5742 610.323 72.6417C610.323 73.7102 609.456 74.5762 608.388 74.5762C607.32 74.5762 606.454 73.7102 606.454 72.6417ZM599.837 72.6417C599.837 71.5742 600.703 70.7072 601.772 70.7072C602.841 70.7072 603.706 71.5742 603.706 72.6417C603.706 73.7102 602.841 74.5762 601.772 74.5762C600.703 74.5762 599.837 73.7102 599.837 72.6417ZM593.222 72.6417C593.222 71.5742 594.089 70.7072 595.156 70.7072C596.225 70.7072 597.091 71.5742 597.091 72.6417C597.091 73.7102 596.225 74.5762 595.156 74.5762C594.089 74.5762 593.222 73.7102 593.222 72.6417ZM586.606 72.6417C586.606 71.5742 587.473 70.7072 588.54 70.7072C589.609 70.7072 590.475 71.5742 590.475 72.6417C590.475 73.7102 589.609 74.5762 588.54 74.5762C587.473 74.5762 586.606 73.7102 586.606 72.6417ZM579.991 72.6417C579.991 71.5742 580.857 70.7072 581.925 70.7072C582.993 70.7072 583.86 71.5742 583.86 72.6417C583.86 73.7102 582.993 74.5762 581.925 74.5762C580.857 74.5762 579.991 73.7102 579.991 72.6417ZM573.375 72.6417C573.375 71.5742 574.241 70.7072 575.31 70.7072C576.378 70.7072 577.245 71.5742 577.245 72.6417C577.245 73.7102 576.378 74.5762 575.31 74.5762C574.241 74.5762 573.375 73.7102 573.375 72.6417ZM566.759 72.6417C566.759 71.5742 567.625 70.7072 568.694 70.7072C569.762 70.7072 570.628 71.5742 570.628 72.6417C570.628 73.7102 569.762 74.5762 568.694 74.5762C567.625 74.5762 566.759 73.7102 566.759 72.6417ZM523.707 72.6417C523.707 71.5742 524.574 70.7072 525.642 70.7072C526.711 70.7072 527.576 71.5742 527.576 72.6417C527.576 73.7102 526.711 74.5762 525.642 74.5762C524.574 74.5762 523.707 73.7102 523.707 72.6417ZM517.093 72.6417C517.093 71.5742 517.959 70.7072 519.026 70.7072C520.095 70.7072 520.961 71.5742 520.961 72.6417C520.961 73.7102 520.095 74.5762 519.026 74.5762C517.959 74.5762 517.093 73.7102 517.093 72.6417ZM510.477 72.6417C510.477 71.5742 511.343 70.7072 512.412 70.7072C513.479 70.7072 514.345 71.5742 514.345 72.6417C514.345 73.7102 513.479 74.5762 512.412 74.5762C511.343 74.5762 510.477 73.7102 510.477 72.6417ZM503.861 72.6417C503.861 71.5742 504.727 70.7072 505.795 70.7072C506.863 70.7072 507.73 71.5742 507.73 72.6417C507.73 73.7102 506.863 74.5762 505.795 74.5762C504.727 74.5762 503.861 73.7102 503.861 72.6417ZM497.245 72.6417C497.245 71.5742 498.111 70.7072 499.18 70.7072C500.248 70.7072 501.115 71.5742 501.115 72.6417C501.115 73.7102 500.248 74.5762 499.18 74.5762C498.111 74.5762 497.245 73.7102 497.245 72.6417ZM490.629 72.6417C490.629 71.5742 491.496 70.7072 492.564 70.7072C493.633 70.7072 494.498 71.5742 494.498 72.6417C494.498 73.7102 493.633 74.5762 492.564 74.5762C491.496 74.5762 490.629 73.7102 490.629 72.6417ZM484.014 72.6417C484.014 71.5742 484.88 70.7072 485.948 70.7072C487.016 70.7072 487.883 71.5742 487.883 72.6417C487.883 73.7102 487.016 74.5762 485.948 74.5762C484.88 74.5762 484.014 73.7102 484.014 72.6417ZM434.347 72.6417C434.347 71.5742 435.212 70.7072 436.282 70.7072C437.349 70.7072 438.216 71.5742 438.216 72.6417C438.216 73.7102 437.349 74.5762 436.282 74.5762C435.212 74.5762 434.347 73.7102 434.347 72.6417ZM427.731 72.6417C427.731 71.5742 428.597 70.7072 429.665 70.7072C430.734 70.7072 431.6 71.5742 431.6 72.6417C431.6 73.7102 430.734 74.5762 429.665 74.5762C428.597 74.5762 427.731 73.7102 427.731 72.6417ZM421.115 72.6417C421.115 71.5742 421.982 70.7072 423.05 70.7072C424.118 70.7072 424.985 71.5742 424.985 72.6417C424.985 73.7102 424.118 74.5762 423.05 74.5762C421.982 74.5762 421.115 73.7102 421.115 72.6417ZM414.5 72.6417C414.5 71.5742 415.366 70.7072 416.434 70.7072C417.503 70.7072 418.368 71.5742 418.368 72.6417C418.368 73.7102 417.503 74.5762 416.434 74.5762C415.366 74.5762 414.5 73.7102 414.5 72.6417ZM407.885 72.6417C407.885 71.5742 408.751 70.7072 409.819 70.7072C410.887 70.7072 411.753 71.5742 411.753 72.6417C411.753 73.7102 410.887 74.5762 409.819 74.5762C408.751 74.5762 407.885 73.7102 407.885 72.6417ZM401.268 72.6417C401.268 71.5742 402.134 70.7072 403.203 70.7072C404.271 70.7072 405.137 71.5742 405.137 72.6417C405.137 73.7102 404.271 74.5762 403.203 74.5762C402.134 74.5762 401.268 73.7102 401.268 72.6417ZM394.653 72.6417C394.653 71.5742 395.519 70.7072 396.587 70.7072C397.656 70.7072 398.522 71.5742 398.522 72.6417C398.522 73.7102 397.656 74.5762 396.587 74.5762C395.519 74.5762 394.653 73.7102 394.653 72.6417ZM351.601 72.6417C351.601 71.5742 352.467 70.7072 353.535 70.7072C354.605 70.7072 355.471 71.5742 355.471 72.6417C355.471 73.7102 354.605 74.5762 353.535 74.5762C352.467 74.5762 351.601 73.7102 351.601 72.6417ZM344.986 72.6417C344.986 71.5742 345.852 70.7072 346.92 70.7072C347.988 70.7072 348.855 71.5742 348.855 72.6417C348.855 73.7102 347.988 74.5762 346.92 74.5762C345.852 74.5762 344.986 73.7102 344.986 72.6417ZM338.37 72.6417C338.37 71.5742 339.236 70.7072 340.304 70.7072C341.373 70.7072 342.238 71.5742 342.238 72.6417C342.238 73.7102 341.373 74.5762 340.304 74.5762C339.236 74.5762 338.37 73.7102 338.37 72.6417ZM331.755 72.6417C331.755 71.5742 332.621 70.7072 333.689 70.7072C334.757 70.7072 335.623 71.5742 335.623 72.6417C335.623 73.7102 334.757 74.5762 333.689 74.5762C332.621 74.5762 331.755 73.7102 331.755 72.6417ZM325.138 72.6417C325.138 71.5742 326.004 70.7072 327.073 70.7072C328.142 70.7072 329.008 71.5742 329.008 72.6417C329.008 73.7102 328.142 74.5762 327.073 74.5762C326.004 74.5762 325.138 73.7102 325.138 72.6417ZM318.522 72.6417C318.522 71.5742 319.39 70.7072 320.457 70.7072C321.526 70.7072 322.392 71.5742 322.392 72.6417C322.392 73.7102 321.526 74.5762 320.457 74.5762C319.39 74.5762 318.522 73.7102 318.522 72.6417ZM311.906 72.6417C311.906 71.5742 312.773 70.7072 313.842 70.7072C314.91 70.7072 315.776 71.5742 315.776 72.6417C315.776 73.7102 314.91 74.5762 313.842 74.5762C312.773 74.5762 311.906 73.7102 311.906 72.6417ZM305.292 72.6417C305.292 71.5742 306.158 70.7072 307.226 70.7072C308.294 70.7072 309.16 71.5742 309.16 72.6417C309.16 73.7102 308.294 74.5762 307.226 74.5762C306.158 74.5762 305.292 73.7102 305.292 72.6417ZM441.391 73.4572C440.511 72.8512 440.288 71.6472 440.895 70.7667C441.501 69.8872 442.705 69.6647 443.585 70.2697C444.464 70.8757 444.687 72.0807 444.081 72.9602C443.706 73.5052 443.101 73.7982 442.486 73.7982C442.108 73.7982 441.726 73.6877 441.391 73.4572ZM478.403 72.4757C477.797 71.5957 478.019 70.3912 478.899 69.7852C479.78 69.1792 480.984 69.4027 481.589 70.2832C482.195 71.1627 481.974 72.3667 481.093 72.9727C480.759 73.2027 480.376 73.3137 479.998 73.3137C479.383 73.3137 478.778 73.0207 478.403 72.4757ZM529.703 71.4612C528.823 70.8552 528.601 69.6507 529.206 68.7707C529.813 67.8907 531.017 67.6677 531.897 68.2742C532.777 68.8802 532.999 70.0842 532.393 70.9647C532.018 71.5097 531.413 71.8022 530.798 71.8022C530.42 71.8022 530.038 71.6922 529.703 71.4612ZM390.091 70.4792C389.485 69.5997 389.707 68.3957 390.588 67.7897C391.468 67.1842 392.672 67.4062 393.278 68.2867C393.883 69.1667 393.661 70.3707 392.781 70.9762C392.446 71.2067 392.064 71.3177 391.687 71.3177C391.071 71.3177 390.466 71.0247 390.091 70.4792ZM356.83 70.0037C355.95 69.3972 355.727 68.1932 356.333 67.3132C356.939 66.4327 358.144 66.2107 359.024 66.8167C359.903 67.4222 360.126 68.6262 359.521 69.5067C359.146 70.0517 358.54 70.3442 357.924 70.3442C357.546 70.3442 357.165 70.2342 356.83 70.0037ZM562.964 69.0222C562.359 68.1427 562.58 66.9377 563.461 66.3327C564.341 65.7262 565.545 65.9482 566.15 66.8282C566.757 67.7087 566.535 68.9132 565.654 69.5182C565.319 69.7497 564.937 69.8597 564.559 69.8597C563.944 69.8597 563.339 69.5672 562.964 69.0222ZM618.016 69.4647C617.135 68.8587 616.912 67.6557 617.518 66.7752C618.125 65.8957 619.328 65.6722 620.208 66.2782C621.088 66.8837 621.31 68.0877 620.705 68.9682C620.33 69.5137 619.725 69.8062 619.11 69.8062C618.732 69.8062 618.35 69.6957 618.016 69.4647ZM301.779 68.4842C301.173 67.6042 301.396 66.3992 302.276 65.7937C303.156 65.1877 304.36 65.4102 304.966 66.2907C305.571 67.1702 305.349 68.3752 304.469 68.9812C304.134 69.2112 303.752 69.3222 303.374 69.3222C302.759 69.3222 302.155 69.0292 301.779 68.4842ZM445.142 68.0077C444.262 67.4017 444.039 66.1977 444.645 65.3172C445.252 64.4372 446.456 64.2142 447.335 64.8202C448.215 65.4267 448.438 66.6307 447.832 67.5102C447.457 68.0557 446.852 68.3487 446.237 68.3487C445.859 68.3487 445.477 68.2377 445.142 68.0077ZM474.653 67.0262C474.046 66.1462 474.268 64.9417 475.149 64.3357C476.029 63.7297 477.233 63.9522 477.839 64.8327C478.444 65.7122 478.222 66.9172 477.342 67.5232C477.007 67.7537 476.625 67.8642 476.247 67.8642C475.632 67.8642 475.027 67.5712 474.653 67.0262ZM533.454 66.0112C532.574 65.4057 532.351 64.2017 532.958 63.3217C533.563 62.4412 534.767 62.2187 535.647 62.8247C536.527 63.4307 536.749 64.6347 536.144 65.5142C535.769 66.0592 535.164 66.3527 534.549 66.3527C534.171 66.3522 533.789 66.2417 533.454 66.0112ZM386.34 65.0297C385.735 64.1502 385.957 62.9462 386.837 62.3402C387.717 61.7347 388.921 61.9567 389.527 62.8367C390.132 63.7172 389.91 64.9207 389.03 65.5277C388.695 65.7572 388.313 65.8682 387.935 65.8682C387.32 65.8682 386.716 65.5747 386.34 65.0297ZM360.581 64.5532C359.701 63.9482 359.478 62.7437 360.084 61.8637C360.69 60.9832 361.895 60.7612 362.775 61.3672C363.654 61.9727 363.877 63.1767 363.271 64.0572C362.897 64.6017 362.291 64.8947 361.676 64.8947C361.298 64.8947 360.916 64.7837 360.581 64.5532ZM559.214 63.5717C558.607 62.6922 558.829 61.4882 559.71 60.8822C560.589 60.2767 561.794 60.4987 562.4 61.3792C563.005 62.2592 562.784 63.4627 561.903 64.0687C561.568 64.2997 561.186 64.4102 560.808 64.4097C560.193 64.4097 559.588 64.1177 559.214 63.5717ZM621.766 64.0162C620.885 63.4102 620.663 62.2052 621.27 61.3247C621.875 60.4457 623.079 60.2227 623.959 60.8287C624.839 61.4342 625.062 62.6392 624.455 63.5187C624.081 64.0642 623.476 64.3572 622.861 64.3572C622.483 64.3572 622.1 64.2462 621.766 64.0162ZM298.028 63.0347C297.422 62.1547 297.645 60.9502 298.525 60.3437C299.405 59.7382 300.61 59.9607 301.215 60.8412C301.821 61.7207 301.599 62.9257 300.719 63.5312C300.383 63.7617 300.002 63.8727 299.624 63.8727C299.009 63.8717 298.403 63.5787 298.028 63.0347ZM448.893 62.5582C448.013 61.9522 447.79 60.7472 448.396 59.8667C449.002 58.9877 450.206 58.7647 451.086 59.3707C451.966 59.9762 452.188 61.1812 451.583 62.0617C451.208 62.6062 450.602 62.8992 449.988 62.8992C449.61 62.8992 449.228 62.7882 448.893 62.5582ZM470.901 61.5767C470.296 60.6967 470.518 59.4927 471.398 58.8862C472.278 58.2802 473.482 58.5032 474.088 59.3832C474.693 60.2627 474.471 61.4677 473.591 62.0732C473.256 62.3037 472.874 62.4147 472.496 62.4147C471.881 62.4147 471.276 62.1217 470.901 61.5767ZM537.205 60.5617C536.324 59.9557 536.103 58.7522 536.709 57.8722C537.314 56.9917 538.518 56.7697 539.398 57.3752C540.279 57.9812 540.501 59.1842 539.894 60.0647C539.52 60.6097 538.915 60.9022 538.3 60.9022C537.922 60.9022 537.539 60.7922 537.205 60.5617ZM382.589 59.5802C381.983 58.7007 382.206 57.4957 383.086 56.8907C383.966 56.2847 385.171 56.5062 385.776 57.3867C386.382 58.2667 386.16 59.4712 385.28 60.0772C384.945 60.3082 384.563 60.4187 384.185 60.4182C383.57 60.4182 382.964 60.1262 382.589 59.5802ZM364.332 59.1037C363.452 58.4977 363.23 57.2942 363.835 56.4142C364.441 55.5337 365.645 55.3117 366.525 55.9172C367.405 56.5232 367.627 57.7267 367.022 58.6067C366.647 59.1517 366.042 59.4457 365.427 59.4442C365.048 59.4442 364.667 59.3347 364.332 59.1037ZM555.462 58.1232C554.857 57.2427 555.079 56.0377 555.96 55.4327C556.839 54.8267 558.043 55.0492 558.649 55.9287C559.255 56.8087 559.032 58.0132 558.152 58.6202C557.817 58.8502 557.435 58.9607 557.057 58.9607C556.442 58.9607 555.837 58.6677 555.462 58.1232ZM625.517 58.5657C624.637 57.9607 624.415 56.7557 625.02 55.8752C625.626 54.9957 626.83 54.7732 627.71 55.3787C628.59 55.9847 628.812 57.1897 628.206 58.0692C627.832 58.6142 627.227 58.9077 626.612 58.9077C626.234 58.9077 625.852 58.7967 625.517 58.5657ZM294.277 57.5847C293.671 56.7042 293.894 55.5012 294.774 54.8947C295.654 54.2887 296.859 54.5117 297.465 55.3917C298.07 56.2712 297.847 57.4752 296.968 58.0817C296.632 58.3122 296.251 58.4222 295.873 58.4222C295.258 58.4222 294.653 58.1292 294.277 57.5847ZM452.644 57.1082C451.763 56.5027 451.541 55.2977 452.147 54.4177C452.753 53.5377 453.957 53.3152 454.837 53.9207C455.717 54.5272 455.939 55.7317 455.333 56.6122C454.959 57.1567 454.354 57.4497 453.738 57.4497C453.36 57.4487 452.979 57.3387 452.644 57.1082ZM467.15 56.1262C466.544 55.2462 466.767 54.0427 467.647 53.4372C468.527 52.8317 469.732 53.0537 470.337 53.9337C470.943 54.8142 470.721 56.0177 469.841 56.6237C469.506 56.8542 469.124 56.9642 468.746 56.9642C468.131 56.9642 467.525 56.6712 467.15 56.1262ZM540.956 55.1112C540.075 54.5062 539.854 53.3022 540.459 52.4217C541.065 51.5412 542.269 51.3197 543.149 51.9257C544.029 52.5307 544.251 53.7352 543.645 54.6152C543.271 55.1602 542.667 55.4532 542.051 55.4532C541.673 55.4532 541.291 55.3422 540.956 55.1112ZM378.838 54.1307C378.232 53.2512 378.455 52.0462 379.335 51.4402C380.215 50.8352 381.42 51.0577 382.026 51.9372C382.631 52.8177 382.408 54.0217 381.528 54.6277C381.194 54.8582 380.811 54.9692 380.433 54.9687C379.818 54.9687 379.214 54.6757 378.838 54.1307ZM368.082 53.6532C367.202 53.0482 366.98 51.8442 367.586 50.9637C368.192 50.0837 369.396 49.8617 370.276 50.4677C371.156 51.0727 371.378 52.2772 370.773 53.1572C370.397 53.7022 369.793 53.9952 369.178 53.9952C368.799 53.9952 368.418 53.8842 368.082 53.6532ZM551.712 52.6727C551.106 51.7937 551.328 50.5882 552.209 49.9822C553.088 49.3772 554.293 49.5997 554.898 50.4792C555.504 51.3597 555.282 52.5647 554.402 53.1697C554.067 53.4007 553.684 53.5102 553.306 53.5102C552.691 53.5102 552.087 53.2187 551.712 52.6727ZM629.268 53.1167C628.388 52.5102 628.165 51.3052 628.771 50.4252C629.377 49.5457 630.58 49.3227 631.46 49.9292C632.341 50.5342 632.563 51.7392 631.957 52.6197C631.582 53.1647 630.978 53.4572 630.363 53.4572C629.985 53.4572 629.602 53.3462 629.268 53.1167ZM290.527 52.1352C289.921 51.2547 290.144 50.0507 291.023 49.4457C291.904 48.8392 293.108 49.0612 293.714 49.9412C294.319 50.8212 294.096 52.0262 293.216 52.6312C292.881 52.8617 292.499 52.9727 292.121 52.9727C291.506 52.9727 290.902 52.6802 290.527 52.1352ZM456.395 51.6587C455.514 51.0527 455.292 49.8482 455.898 48.9687C456.504 48.0887 457.707 47.8657 458.587 48.4717C459.468 49.0772 459.691 50.2812 459.084 51.1617C458.71 51.7062 458.105 51.9992 457.49 51.9992C457.111 51.9992 456.729 51.8882 456.395 51.6587ZM463.4 50.6772C462.793 49.7967 463.016 48.5927 463.896 47.9872C464.776 47.3812 465.981 47.6032 466.587 48.4837C467.192 49.3637 466.97 50.5677 466.089 51.1732C465.755 51.4042 465.372 51.5147 464.994 51.5147C464.379 51.5147 463.775 51.2222 463.4 50.6772ZM544.707 49.6617C543.827 49.0567 543.604 47.8527 544.21 46.9722C544.815 46.0922 546.019 45.8702 546.899 46.4752C547.78 47.0812 548.002 48.2862 547.396 49.1657C547.021 49.7107 546.417 50.0037 545.802 50.0037C545.424 50.0037 545.042 49.8927 544.707 49.6617ZM375.088 48.6807C374.482 47.8012 374.705 46.5972 375.584 45.9907C376.465 45.3857 377.668 45.6082 378.275 46.4877C378.88 47.3682 378.658 48.5722 377.777 49.1782C377.443 49.4092 377.061 49.5192 376.683 49.5192C376.068 49.5192 375.463 49.2262 375.088 48.6807ZM371.834 48.2047C370.954 47.5987 370.731 46.3947 371.336 45.5142C371.942 44.6347 373.147 44.4122 374.027 45.0172C374.907 45.6232 375.13 46.8277 374.523 47.7077C374.149 48.2527 373.544 48.5457 372.929 48.5457C372.55 48.5457 372.169 48.4357 371.834 48.2047ZM547.961 47.2232C547.355 46.3432 547.577 45.1392 548.457 44.5327C549.337 43.9277 550.541 44.1502 551.147 45.0307C551.753 45.9102 551.531 47.1152 550.65 47.7202C550.316 47.9512 549.934 48.0612 549.556 48.0612C548.94 48.0612 548.336 47.7682 547.961 47.2232ZM633.018 47.6662C632.139 47.0612 631.916 45.8557 632.522 44.9767C633.127 44.0962 634.332 43.8737 635.211 44.4797C636.092 45.0847 636.314 46.2897 635.709 47.1702C635.333 47.7152 634.729 48.0077 634.114 48.0077C633.736 48.0077 633.353 47.8967 633.018 47.6662ZM286.775 46.6847C286.17 45.8047 286.393 44.6012 287.272 43.9952C288.153 43.3897 289.357 43.6117 289.962 44.4922C290.569 45.3722 290.346 46.5757 289.466 47.1817C289.132 47.4127 288.75 47.5232 288.372 47.5232C287.756 47.5232 287.151 47.2297 286.775 46.6847ZM460.146 46.2082C459.266 45.6032 459.043 44.3982 459.649 43.5187C460.255 42.6382 461.458 42.4152 462.338 43.0217C463.219 43.6277 463.442 44.8317 462.835 45.7122C462.46 46.2572 461.856 46.5497 461.241 46.5497C460.862 46.5497 460.481 46.4387 460.146 46.2082ZM636.769 42.2167C635.889 41.6107 635.667 40.4067 636.273 39.5272C636.878 38.6467 638.083 38.4236 638.963 39.0291C639.843 39.6362 640.065 40.8396 639.459 41.7196C639.084 42.2647 638.479 42.5577 637.864 42.5577C637.486 42.5577 637.104 42.4477 636.769 42.2167ZM283.025 41.2352C282.419 40.3547 282.641 39.1506 283.521 38.5456C284.402 37.9396 285.606 38.1621 286.212 39.0427C286.818 39.9227 286.595 41.1262 285.715 41.7322C285.38 41.9627 284.998 42.0727 284.62 42.0727C284.005 42.0727 283.4 41.7812 283.025 41.2352ZM636.471 36.2701C635.866 35.3901 636.088 34.1856 636.969 33.5806C637.849 32.9736 639.053 33.1971 639.658 34.0776C640.264 34.9576 640.042 36.1611 639.162 36.7671C638.827 36.9981 638.445 37.1081 638.067 37.1081C637.452 37.1081 636.847 36.8151 636.471 36.2701ZM283.989 36.2821C283.11 35.6766 282.887 34.4726 283.493 33.5921C284.098 32.7126 285.303 32.4901 286.183 33.0951C287.063 33.7011 287.286 34.9056 286.679 35.7856C286.304 36.3306 285.7 36.6236 285.085 36.6236C284.707 36.6236 284.324 36.5126 283.989 36.2821ZM460.613 32.2901C459.733 31.6841 459.51 30.4811 460.116 29.6006C460.721 28.7206 461.926 28.4976 462.807 29.1036C463.686 29.7091 463.909 30.9131 463.304 31.7931C462.929 32.3391 462.323 32.6311 461.707 32.6311C461.329 32.6311 460.948 32.5211 460.613 32.2901ZM632.721 30.8206C632.115 29.9406 632.337 28.7361 633.217 28.1301C634.098 27.5251 635.302 27.7466 635.908 28.6271C636.513 29.5076 636.291 30.7116 635.411 31.3171C635.076 31.5476 634.694 31.6586 634.315 31.6586C633.7 31.6586 633.096 31.3656 632.721 30.8206ZM371.804 30.6726C371.198 29.7926 371.422 28.5881 372.302 27.9821C373.181 27.3766 374.386 27.5996 374.992 28.4791C375.597 29.3591 375.374 30.5636 374.494 31.1696C374.159 31.3991 373.778 31.5101 373.4 31.5101C372.785 31.5101 372.179 31.2176 371.804 30.6726ZM287.741 30.8331C286.861 30.2271 286.638 29.0226 287.243 28.1426C287.849 27.2631 289.053 27.0406 289.934 27.6456C290.813 28.2516 291.037 29.4566 290.43 30.3351C290.054 30.8811 289.45 31.1741 288.835 31.1741C288.457 31.1741 288.075 31.0631 287.741 30.8331ZM548.925 30.2946C548.404 29.9361 548.113 29.3666 548.088 28.7796C547.956 29.1446 547.712 29.4736 547.368 29.7116C546.488 30.3176 545.283 30.0941 544.677 29.2146C544.071 28.3341 544.294 27.1301 545.174 26.5241C546.054 25.9191 547.259 26.1416 547.865 27.0221C548.08 27.3336 548.189 27.6856 548.204 28.0381C548.259 27.8881 548.333 27.7426 548.427 27.6051C549.034 26.7246 550.239 26.5021 551.119 27.1071C551.999 27.7131 552.221 28.9181 551.615 29.7986C551.24 30.3431 550.635 30.6361 550.02 30.6361C549.642 30.6361 549.26 30.5251 548.925 30.2946ZM376.052 28.8366C375.173 28.2316 374.949 27.0271 375.555 26.1466C376.16 25.2666 377.365 25.0441 378.246 25.6496C379.125 26.2561 379.348 27.4601 378.743 28.3406C378.367 28.8851 377.762 29.1781 377.147 29.1781C376.769 29.1781 376.387 29.0671 376.052 28.8366ZM456.365 27.2186C455.759 26.3386 455.983 25.1346 456.862 24.5281C457.743 23.9231 458.947 24.1451 459.553 25.0251C460.158 25.9056 459.935 27.1096 459.055 27.7151C458.72 27.9456 458.338 28.0566 457.96 28.0566C457.345 28.0566 456.741 27.7636 456.365 27.2186ZM464.364 26.8416C463.484 26.2346 463.261 25.0306 463.867 24.1501C464.473 23.2711 465.678 23.0481 466.558 23.6541C467.438 24.2596 467.66 25.4646 467.054 26.3441C466.678 26.8896 466.074 27.1826 465.458 27.1826C465.081 27.1826 464.699 27.0716 464.364 26.8416ZM628.969 25.3706C628.364 24.4911 628.587 23.2871 629.467 22.6806C630.347 22.0756 631.551 22.2976 632.157 23.1776C632.762 24.0581 632.54 25.2621 631.66 25.8676C631.325 26.0981 630.943 26.2091 630.565 26.2091C629.95 26.2091 629.346 25.9161 628.969 25.3706ZM368.053 25.2231C367.448 24.3426 367.671 23.1376 368.55 22.5326C369.43 21.9266 370.635 22.1491 371.241 23.0296C371.847 23.9091 371.624 25.1141 370.744 25.7191C370.409 25.9501 370.027 26.0611 369.649 26.0611C369.034 26.0611 368.429 25.7681 368.053 25.2231ZM291.491 25.3831C290.611 24.7776 290.388 23.5726 290.995 22.6921C291.6 21.8126 292.804 21.5901 293.684 22.1961C294.565 22.8016 294.787 24.0066 294.182 24.8861C293.806 25.4316 293.201 25.7246 292.585 25.7246C292.207 25.7246 291.825 25.6136 291.491 25.3831ZM552.676 24.8451C551.796 24.2391 551.574 23.0351 552.179 22.1551C552.785 21.2751 553.989 21.0516 554.869 21.6576C555.749 22.2646 555.971 23.4676 555.366 24.3481C554.991 24.8931 554.385 25.1856 553.77 25.1856C553.392 25.1856 553.011 25.0756 552.676 24.8451ZM540.926 23.7651C540.321 22.8846 540.544 21.6806 541.423 21.0746C542.304 20.4686 543.508 20.6911 544.114 21.5716C544.719 22.4516 544.496 23.6561 543.616 24.2621C543.281 24.4926 542.9 24.6026 542.522 24.6026C541.907 24.6026 541.302 24.3101 540.926 23.7651ZM379.803 23.3871C378.923 22.7811 378.7 21.5776 379.307 20.6976C379.912 19.8171 381.116 19.5951 381.997 20.2006C382.877 20.8066 383.099 22.0101 382.493 22.8901C382.118 23.4351 381.513 23.7281 380.897 23.7281C380.52 23.7281 380.138 23.6181 379.803 23.3871ZM452.614 21.7686C452.009 20.8891 452.232 19.6841 453.111 19.0791C453.991 18.4726 455.196 18.6961 455.801 19.5756C456.408 20.4561 456.185 21.6596 455.305 22.2661C454.97 22.4961 454.589 22.6071 454.211 22.6071C453.595 22.6071 452.99 22.3141 452.614 21.7686ZM468.115 21.3916C467.235 20.7861 467.013 19.5811 467.618 18.7011C468.224 17.8216 469.429 17.5986 470.308 18.2046C471.188 18.8101 471.411 20.0151 470.805 20.8946C470.43 21.4391 469.825 21.7321 469.21 21.7321C468.832 21.7321 468.45 21.6221 468.115 21.3916ZM625.219 19.9211C624.613 19.0416 624.836 17.8366 625.716 17.2316C626.596 16.6251 627.801 16.8471 628.406 17.7271C629.012 18.6076 628.789 19.8116 627.909 20.4176C627.574 20.6486 627.193 20.7596 626.815 20.7596C626.199 20.7596 625.594 20.4661 625.219 19.9211ZM364.303 19.7736C363.697 18.8936 363.92 17.6891 364.799 17.0821C365.679 16.4771 366.884 16.6996 367.489 17.5801C368.096 18.4596 367.873 19.6646 366.993 20.2696C366.658 20.5006 366.276 20.6111 365.898 20.6111C365.283 20.6111 364.678 20.3186 364.303 19.7736ZM295.242 19.9336C294.362 19.3281 294.139 18.1231 294.746 17.2431C295.351 16.3636 296.555 16.1406 297.436 16.7466C298.316 17.3521 298.538 18.5571 297.932 19.4371C297.557 19.9821 296.952 20.2751 296.337 20.2751C295.959 20.2751 295.577 20.1641 295.242 19.9336ZM556.427 19.3956C555.547 18.7896 555.324 17.5856 555.93 16.7051C556.535 15.8251 557.74 15.6031 558.62 16.2091C559.5 16.8141 559.722 18.0186 559.117 18.8986C558.742 19.4436 558.137 19.7366 557.521 19.7366C557.144 19.7366 556.762 19.6266 556.427 19.3956ZM537.175 18.3156C536.57 17.4356 536.793 16.2311 537.672 15.6251C538.553 15.0196 539.757 15.2416 540.362 16.1221C540.969 17.0026 540.746 18.2066 539.866 18.8116C539.531 19.0426 539.149 19.1536 538.771 19.1536C538.156 19.1536 537.551 18.8606 537.175 18.3156ZM383.554 17.9376C382.674 17.3316 382.452 16.1271 383.057 15.2471C383.663 14.3666 384.867 14.1451 385.747 14.7511C386.627 15.3561 386.85 16.5606 386.244 17.4406C385.869 17.9856 385.264 18.2786 384.649 18.2786C384.271 18.2786 383.889 18.1681 383.554 17.9376ZM448.864 16.3191C448.258 15.4396 448.48 14.2346 449.36 13.6296C450.241 13.0231 451.445 13.2461 452.051 14.1256C452.657 15.0056 452.434 16.2106 451.554 16.8171C451.219 17.0466 450.837 17.1576 450.459 17.1576C449.844 17.1576 449.239 16.8646 448.864 16.3191ZM471.866 15.9421C470.986 15.3361 470.763 14.1316 471.369 13.2511C471.974 12.3721 473.179 12.1491 474.059 12.7541C474.939 13.3606 475.161 14.5646 474.556 15.4451C474.18 15.9896 473.576 16.2826 472.96 16.2826C472.583 16.2826 472.201 16.1716 471.866 15.9421ZM621.468 14.4716C620.862 13.5921 621.085 12.3871 621.965 11.7816C622.845 11.1756 624.05 11.3976 624.655 12.2781C625.261 13.1581 625.038 14.3621 624.158 14.9676C623.824 15.1991 623.441 15.3091 623.063 15.3091C622.448 15.3091 621.844 15.0166 621.468 14.4716ZM360.552 14.3231C359.946 13.4431 360.169 12.2396 361.049 11.6336C361.929 11.0266 363.132 11.2506 363.739 12.1306C364.345 13.0111 364.122 14.2141 363.242 14.8201C362.907 15.0511 362.525 15.1611 362.148 15.1611C361.533 15.1611 360.927 14.8681 360.552 14.3231ZM298.993 14.4836C298.113 13.8781 297.891 12.6736 298.496 11.7946C299.102 10.9141 300.305 10.6911 301.186 11.2966C302.066 11.9026 302.289 13.1066 301.683 13.9871C301.307 14.5321 300.702 14.8246 300.087 14.8246C299.71 14.8246 299.328 14.7136 298.993 14.4836ZM560.177 13.9451C559.297 13.3401 559.075 12.1356 559.681 11.2556C560.287 10.3751 561.491 10.1536 562.371 10.7586C563.251 11.3646 563.473 12.5691 562.867 13.4491C562.493 13.9941 561.888 14.2871 561.272 14.2871C560.894 14.2871 560.513 14.1761 560.177 13.9451ZM533.425 12.8651C532.819 11.9851 533.041 10.7816 533.921 10.1756C534.802 9.57064 536.006 9.79263 536.612 10.6726C537.218 11.5526 536.995 12.7561 536.115 13.3621C535.78 13.5931 535.398 13.7031 535.02 13.7031C534.405 13.7031 533.8 13.4101 533.425 12.8651ZM387.304 12.4871C386.424 11.8821 386.202 10.6781 386.808 9.79763C387.413 8.91713 388.617 8.69564 389.498 9.30064C390.378 9.90664 390.6 11.1111 389.995 11.9911C389.619 12.5361 389.015 12.8291 388.399 12.8291C388.021 12.8291 387.64 12.7181 387.304 12.4871ZM445.113 10.8696C444.508 9.99013 444.73 8.78513 445.61 8.17913C446.49 7.57413 447.694 7.79663 448.3 8.67613C448.905 9.55613 448.683 10.7616 447.803 11.3666C447.468 11.5971 447.086 11.7071 446.708 11.7071C446.094 11.7071 445.489 11.4146 445.113 10.8696ZM475.616 10.4926C474.736 9.88664 474.514 8.68113 475.12 7.80113C475.725 6.92163 476.93 6.69863 477.81 7.30513C478.69 7.91013 478.912 9.11514 478.306 9.99564C477.932 10.5406 477.326 10.8331 476.711 10.8331C476.333 10.8331 475.952 10.7226 475.616 10.4926ZM617.717 9.02113C617.112 8.14163 617.334 6.93763 618.214 6.33163C619.095 5.72613 620.298 5.94913 620.904 6.82863C621.511 7.70863 621.287 8.91213 620.407 9.51913C620.073 9.74863 619.691 9.85963 619.313 9.85963C618.698 9.85963 618.093 9.56713 617.717 9.02113ZM356.801 8.87413C356.196 7.99363 356.418 6.78963 357.298 6.18413C358.178 5.57813 359.382 5.80013 359.988 6.68013C360.594 7.56063 360.372 8.76463 359.492 9.37064C359.157 9.60164 358.775 9.71163 358.397 9.71163C357.782 9.71163 357.176 9.41863 356.801 8.87413ZM302.743 9.03464C301.863 8.42814 301.641 7.22313 302.247 6.34463C302.852 5.46463 304.057 5.24113 304.937 5.84713C305.817 6.45213 306.039 7.65713 305.434 8.53763C305.058 9.08263 304.453 9.37514 303.838 9.37514C303.46 9.37514 303.078 9.26414 302.743 9.03464ZM563.928 8.49613C563.048 7.88963 562.826 6.68663 563.431 5.80613C564.038 4.92563 565.242 4.70413 566.122 5.30913C567.001 5.91563 567.224 7.11863 566.619 7.99913C566.243 8.54363 565.638 8.83663 565.023 8.83663C564.645 8.83663 564.264 8.72663 563.928 8.49613ZM529.674 7.41613C529.069 6.53563 529.291 5.33163 530.171 4.72613C531.051 4.12013 532.255 4.34213 532.861 5.22213C533.466 6.10263 533.244 7.30663 532.364 7.91313C532.029 8.14363 531.647 8.25363 531.27 8.25363C530.655 8.25363 530.05 7.96063 529.674 7.41613ZM391.055 7.03763C390.175 6.43163 389.953 5.22863 390.559 4.34813C391.164 3.46813 392.369 3.24613 393.249 3.85113C394.129 4.45763 394.351 5.66063 393.746 6.54113C393.37 7.08663 392.765 7.37963 392.15 7.37963C391.772 7.37963 391.391 7.26863 391.055 7.03763ZM441.362 5.42013C440.757 4.54013 440.979 3.33663 441.859 2.72962C442.739 2.12412 443.944 2.34713 444.549 3.22663C445.155 4.10713 444.933 5.31113 444.053 5.91713C443.718 6.14713 443.336 6.25813 442.958 6.25813C442.343 6.25813 441.737 5.96513 441.362 5.42013ZM479.367 5.04213C478.488 4.43713 478.265 3.23163 478.87 2.35263C479.476 1.47213 480.681 1.24962 481.56 1.85462C482.44 2.46062 482.664 3.66563 482.058 4.54613C481.682 5.09113 481.078 5.38363 480.463 5.38363C480.084 5.38363 479.703 5.27263 479.367 5.04213ZM613.895 2.86563C613.895 1.79763 614.761 0.930628 615.828 0.930628C616.897 0.930628 617.763 1.79763 617.763 2.86563C617.763 3.93363 616.897 4.80013 615.828 4.80013C614.761 4.80013 613.895 3.93363 613.895 2.86563ZM607.278 2.86563C607.278 1.79763 608.144 0.930628 609.214 0.930628C610.281 0.930628 611.148 1.79763 611.148 2.86563C611.148 3.93363 610.281 4.80013 609.214 4.80013C608.144 4.80013 607.278 3.93363 607.278 2.86563ZM600.663 2.86563C600.663 1.79763 601.529 0.930628 602.597 0.930628C603.666 0.930628 604.532 1.79763 604.532 2.86563C604.532 3.93363 603.666 4.80013 602.597 4.80013C601.529 4.80013 600.663 3.93363 600.663 2.86563ZM594.047 2.86563C594.047 1.79763 594.912 0.930628 595.982 0.930628C597.05 0.930628 597.916 1.79763 597.916 2.86563C597.916 3.93363 597.05 4.80013 595.982 4.80013C594.912 4.80013 594.047 3.93363 594.047 2.86563ZM587.431 2.86563C587.431 1.79763 588.298 0.930628 589.365 0.930628C590.434 0.930628 591.3 1.79763 591.3 2.86563C591.3 3.93363 590.434 4.80013 589.365 4.80013C588.298 4.80013 587.431 3.93363 587.431 2.86563ZM580.816 2.86563C580.816 1.79763 581.682 0.930628 582.75 0.930628C583.818 0.930628 584.684 1.79763 584.684 2.86563C584.684 3.93363 583.818 4.80013 582.75 4.80013C581.682 4.80013 580.816 3.93363 580.816 2.86563ZM574.2 2.86563C574.2 1.79763 575.066 0.930628 576.134 0.930628C577.203 0.930628 578.068 1.79763 578.068 2.86563C578.068 3.93363 577.203 4.80013 576.134 4.80013C575.066 4.80013 574.2 3.93363 574.2 2.86563ZM567.585 2.86563C567.585 1.79763 568.45 0.930628 569.519 0.930628C570.587 0.930628 571.453 1.79763 571.453 2.86563C571.453 3.93363 570.587 4.80013 569.519 4.80013C568.45 4.80013 567.585 3.93363 567.585 2.86563ZM524.533 2.86563C524.533 1.79763 525.399 0.930628 526.467 0.930628C527.537 0.930628 528.402 1.79763 528.402 2.86563C528.402 3.93363 527.537 4.80013 526.467 4.80013C525.399 4.80013 524.533 3.93363 524.533 2.86563ZM517.917 2.86563C517.917 1.79763 518.784 0.930628 519.852 0.930628C520.92 0.930628 521.786 1.79763 521.786 2.86563C521.786 3.93363 520.92 4.80013 519.852 4.80013C518.784 4.80013 517.917 3.93363 517.917 2.86563ZM511.301 2.86563C511.301 1.79763 512.168 0.930628 513.235 0.930628C514.304 0.930628 515.17 1.79763 515.17 2.86563C515.17 3.93363 514.304 4.80013 513.235 4.80013C512.168 4.80013 511.301 3.93363 511.301 2.86563ZM504.686 2.86563C504.686 1.79763 505.552 0.930628 506.621 0.930628C507.688 0.930628 508.554 1.79763 508.554 2.86563C508.554 3.93363 507.688 4.80013 506.621 4.80013C505.552 4.80013 504.686 3.93363 504.686 2.86563ZM498.07 2.86563C498.07 1.79763 498.936 0.930628 500.004 0.930628C501.073 0.930628 501.94 1.79763 501.94 2.86563C501.94 3.93363 501.073 4.80013 500.004 4.80013C498.936 4.80013 498.07 3.93363 498.07 2.86563ZM491.455 2.86563C491.455 1.79763 492.32 0.930628 493.389 0.930628C494.457 0.930628 495.323 1.79763 495.323 2.86563C495.323 3.93363 494.457 4.80013 493.389 4.80013C492.32 4.80013 491.455 3.93363 491.455 2.86563ZM484.839 2.86563C484.839 1.79763 485.705 0.930628 486.773 0.930628C487.842 0.930628 488.708 1.79763 488.708 2.86563C488.708 3.93363 487.842 4.80013 486.773 4.80013C485.705 4.80013 484.839 3.93363 484.839 2.86563ZM435.172 2.86563C435.172 1.79763 436.038 0.930628 437.107 0.930628C438.175 0.930628 439.041 1.79763 439.041 2.86563C439.041 3.93363 438.175 4.80013 437.107 4.80013C436.038 4.80013 435.172 3.93363 435.172 2.86563ZM428.556 2.86563C428.556 1.79763 429.422 0.930628 430.491 0.930628C431.558 0.930628 432.425 1.79763 432.425 2.86563C432.425 3.93363 431.558 4.80013 430.491 4.80013C429.422 4.80013 428.556 3.93363 428.556 2.86563ZM421.94 2.86563C421.94 1.79763 422.806 0.930628 423.874 0.930628C424.944 0.930628 425.81 1.79763 425.81 2.86563C425.81 3.93363 424.944 4.80013 423.874 4.80013C422.806 4.80013 421.94 3.93363 421.94 2.86563ZM415.324 2.86563C415.324 1.79763 416.191 0.930628 417.259 0.930628C418.327 0.930628 419.193 1.79763 419.193 2.86563C419.193 3.93363 418.327 4.80013 417.259 4.80013C416.191 4.80013 415.324 3.93363 415.324 2.86563ZM408.71 2.86563C408.71 1.79763 409.575 0.930628 410.643 0.930628C411.712 0.930628 412.578 1.79763 412.578 2.86563C412.578 3.93363 411.712 4.80013 410.643 4.80013C409.575 4.80013 408.71 3.93363 408.71 2.86563ZM402.093 2.86563C402.093 1.79763 402.96 0.930628 404.027 0.930628C405.095 0.930628 405.962 1.79763 405.962 2.86563C405.962 3.93363 405.095 4.80013 404.027 4.80013C402.96 4.80013 402.093 3.93363 402.093 2.86563ZM395.478 2.86563C395.478 1.79763 396.343 0.930628 397.412 0.930628C398.48 0.930628 399.347 1.79763 399.347 2.86563C399.347 3.93363 398.48 4.80013 397.412 4.80013C396.343 4.80013 395.478 3.93363 395.478 2.86563ZM352.426 2.86563C352.426 1.79763 353.292 0.930628 354.361 0.930628C355.429 0.930628 356.295 1.79763 356.295 2.86563C356.295 3.93363 355.429 4.80013 354.361 4.80013C353.292 4.80013 352.426 3.93363 352.426 2.86563ZM345.811 2.86563C345.811 1.79763 346.678 0.930628 347.745 0.930628C348.814 0.930628 349.68 1.79763 349.68 2.86563C349.68 3.93363 348.814 4.80013 347.745 4.80013C346.678 4.80013 345.811 3.93363 345.811 2.86563ZM339.194 2.86563C339.194 1.79763 340.061 0.930628 341.129 0.930628C342.198 0.930628 343.063 1.79763 343.063 2.86563C343.063 3.93363 342.198 4.80013 341.129 4.80013C340.061 4.80013 339.194 3.93363 339.194 2.86563ZM332.58 2.86563C332.58 1.79763 333.445 0.930628 334.514 0.930628C335.582 0.930628 336.448 1.79763 336.448 2.86563C336.448 3.93363 335.582 4.80013 334.514 4.80013C333.445 4.80013 332.58 3.93363 332.58 2.86563ZM325.963 2.86563C325.963 1.79763 326.83 0.930628 327.898 0.930628C328.966 0.930628 329.833 1.79763 329.833 2.86563C329.833 3.93363 328.966 4.80013 327.898 4.80013C326.83 4.80013 325.963 3.93363 325.963 2.86563ZM319.348 2.86563C319.348 1.79763 320.214 0.930628 321.282 0.930628C322.351 0.930628 323.217 1.79763 323.217 2.86563C323.217 3.93363 322.351 4.80013 321.282 4.80013C320.214 4.80013 319.348 3.93363 319.348 2.86563ZM312.732 2.86563C312.732 1.79763 313.598 0.930628 314.666 0.930628C315.735 0.930628 316.601 1.79763 316.601 2.86563C316.601 3.93363 315.735 4.80013 314.666 4.80013C313.598 4.80013 312.732 3.93363 312.732 2.86563ZM306.117 2.86563C306.117 1.79763 306.983 0.930628 308.05 0.930628C309.119 0.930628 309.985 1.79763 309.985 2.86563C309.985 3.93363 309.119 4.80013 308.05 4.80013C306.983 4.80013 306.117 3.93363 306.117 2.86563Z" fill="#C9D44A"/>
<path d="M63.4171 30.235H61.4251C60.9151 30.235 60.8221 30.1885 60.7761 29.7715L60.4051 27.177C60.3126 26.6205 60.1271 26.3425 59.7566 26.0185L59.1546 25.5085C58.6906 25.138 58.3666 25.0455 57.3471 25.0455H47.0141C46.7361 25.0455 46.5976 25.1845 46.5976 25.462V36.583C46.5976 36.861 46.7361 37 47.0141 37H53.0381C53.5011 37 53.6401 36.9075 53.9186 36.583L54.7061 35.656C54.9376 35.4245 54.9841 35.2855 54.9841 34.915V33.0615C54.9841 32.7835 55.1231 32.6445 55.4011 32.6445H57.2546C57.5326 32.6445 57.6716 32.7835 57.6716 33.0615V43.6255C57.6716 43.904 57.5326 44.043 57.2546 44.043H55.4011C55.1231 44.043 54.9841 43.904 54.9841 43.6255V41.7725C54.9841 41.4015 54.8911 41.263 54.6136 40.9385L53.8721 40.1045C53.5476 39.7335 53.3626 39.6875 52.8991 39.6875H47.0141C46.7361 39.6875 46.5976 39.8265 46.5976 40.1045V49.696C46.5976 50.02 46.7361 50.252 47.0606 50.576L47.8486 51.3175C48.1266 51.549 48.3116 51.642 48.6826 51.642H52.4821C52.7601 51.642 52.8991 51.781 52.8991 52.059V53.727C52.8991 54.005 52.7601 54.144 52.4821 54.144H36.9131C36.6351 54.144 36.4961 54.005 36.4961 53.727V52.059C36.4961 51.781 36.6351 51.642 36.9131 51.642H39.7396C40.1101 51.642 40.2956 51.549 40.5276 51.3175L41.3616 50.576C41.6856 50.298 41.7786 50.02 41.7786 49.696V26.7595C41.7786 26.482 41.6856 26.2035 41.3616 25.9255L40.5276 25.1845C40.2956 24.9525 40.1101 24.86 39.7396 24.86H36.9131C36.6351 24.86 36.4961 24.721 36.4961 24.3965V22.775C36.4961 22.497 36.6351 22.358 36.9131 22.358H59.7101C59.9421 22.358 60.0346 22.358 60.1271 22.1725L60.4981 21.524C60.5446 21.431 60.6371 21.3845 60.8221 21.3845H62.5831C62.9076 21.3845 63.0461 21.524 63.0926 21.802L63.7876 29.7715C63.8341 30.096 63.6951 30.235 63.4171 30.235Z" fill="#FFED42"/>
<path d="M138.559 50.5763L139.346 51.3178C139.625 51.5493 139.81 51.6418 140.181 51.6418H142.961C143.239 51.6418 143.377 51.7808 143.377 52.0588V53.7268C143.377 54.0048 143.239 54.1438 142.961 54.1438H128.411C128.133 54.1438 127.994 54.0048 127.994 53.7268V52.0588C127.994 51.7808 128.133 51.6418 128.411 51.6418H131.238C131.608 51.6418 131.794 51.5493 132.025 51.3178L132.86 50.5763C133.184 50.2983 133.276 50.0203 133.276 49.6958V26.7598C133.276 26.4818 133.184 26.2038 132.86 25.9258L132.025 25.1843C131.794 24.9528 131.608 24.8598 131.238 24.8598H128.411C128.133 24.8598 127.994 24.7208 127.994 24.4428V22.7748C127.994 22.4968 128.133 22.3578 128.411 22.3578H142.961C143.239 22.3578 143.377 22.4968 143.377 22.7748V24.4428C143.377 24.7208 143.239 24.8598 142.961 24.8598H140.181C139.81 24.8598 139.671 24.9063 139.393 25.1378L138.466 25.9723C138.142 26.2963 138.095 26.4818 138.095 26.8063V49.6958C138.095 50.0203 138.234 50.2518 138.559 50.5763Z" fill="#FFED42"/>
<path d="M230.617 22.9601L232.007 22.0336C232.239 21.8946 232.378 21.8481 232.794 21.8481H233.953C234.277 21.8481 234.463 21.9406 234.509 22.2651L235.204 31.1617C235.25 31.5787 235.111 31.7177 234.787 31.7177H232.656C232.47 31.7177 232.285 31.5787 232.239 31.3007L231.683 27.8252C231.636 27.5012 231.544 27.1302 231.173 26.8527C229.875 25.7866 227.837 24.9061 224.454 24.9061C217.133 24.9061 211.758 30.1887 211.758 38.2972C211.758 45.7572 216.207 51.5957 223.852 51.5957C226.261 51.5957 228.022 51.2247 229.366 50.4837C229.783 50.2517 229.829 50.1592 229.783 49.6497L228.949 42.1432C228.903 41.8187 228.81 41.7262 228.485 41.7262H224.501C224.223 41.7262 224.083 41.5872 224.083 41.3092V39.5482C224.083 39.2702 224.223 39.1317 224.501 39.1317H237.892C238.169 39.1317 238.309 39.2702 238.309 39.5482V41.3092C238.309 41.5872 238.169 41.7262 237.892 41.7262H235.806C235.389 41.7262 235.25 41.7722 235.019 42.0042L233.999 42.9307C233.721 43.1627 233.675 43.3012 233.721 43.6722L234.092 47.1937C234.138 47.5182 234.184 47.5642 234.509 47.6572L235.575 47.9817C235.899 48.0742 235.899 48.2132 235.899 48.4447V49.6497C235.899 49.8812 235.853 50.0202 235.621 50.1592L234.648 50.8077C231.451 52.9392 227.837 54.6077 222.554 54.6077C213.148 54.6077 206.43 48.0277 206.43 38.6217C206.43 28.7057 213.89 21.8946 223.388 21.8946C225.983 21.8946 228.3 22.5896 229.551 23.0526C230.014 23.2381 230.293 23.1916 230.617 22.9601Z" fill="#FFED42"/>
<path d="M345.702 30.465H343.709C343.2 30.465 343.107 30.419 343.061 30.002L342.69 27.407C342.598 26.851 342.412 26.573 342.041 26.2485L341.439 25.739C340.976 25.368 340.651 25.2755 339.632 25.2755H329.3C329.022 25.2755 328.882 25.4145 328.882 25.6925V36.813C328.882 37.091 329.022 37.23 329.3 37.23H335.323C335.786 37.23 335.926 37.1375 336.203 36.813L336.991 35.8865C337.223 35.6545 337.269 35.5155 337.269 35.145V33.2915C337.269 33.0135 337.409 32.8745 337.686 32.8745H339.539C339.818 32.8745 339.956 33.0135 339.956 33.2915V43.856C339.956 44.134 339.818 44.273 339.539 44.273H337.686C337.409 44.273 337.269 44.134 337.269 43.856V42.0025C337.269 41.632 337.176 41.493 336.898 41.1685L336.157 40.3345C335.833 39.964 335.648 39.9175 335.184 39.9175H329.3C329.022 39.9175 328.882 40.0565 328.882 40.3345V49.926C328.882 50.2505 329.022 50.482 329.346 50.8065L330.134 51.548C330.412 51.7795 330.597 51.872 330.967 51.872H334.767C335.045 51.872 335.184 52.011 335.184 52.289V53.957C335.184 54.235 335.045 54.374 334.767 54.374H319.198C318.92 54.374 318.781 54.235 318.781 53.957V52.289C318.781 52.011 318.92 51.872 319.198 51.872H322.025C322.396 51.872 322.581 51.7795 322.812 51.548L323.646 50.8065C323.971 50.5285 324.064 50.2505 324.064 49.926V26.99C324.064 26.712 323.971 26.434 323.646 26.156L322.812 25.4145C322.581 25.183 322.396 25.09 322.025 25.09H319.198C318.92 25.09 318.781 24.951 318.781 24.627V23.005C318.781 22.727 318.92 22.588 319.198 22.588H341.995C342.227 22.588 342.319 22.588 342.412 22.4025L342.783 21.754C342.829 21.6615 342.922 21.615 343.107 21.615H344.868C345.192 21.615 345.332 21.754 345.378 22.032L346.073 30.002C346.119 30.326 345.98 30.465 345.702 30.465Z" fill="#FFED42"/>
<path d="M419.918 50.8065L420.706 51.548C420.984 51.7795 421.17 51.872 421.54 51.872H424.321C424.598 51.872 424.737 52.011 424.737 52.289V53.957C424.737 54.235 424.598 54.374 424.321 54.374H409.771C409.493 54.374 409.354 54.235 409.354 53.957V52.289C409.354 52.011 409.493 51.872 409.771 51.872H412.597C412.968 51.872 413.154 51.7795 413.385 51.548L414.219 50.8065C414.544 50.5285 414.636 50.2505 414.636 49.926V26.99C414.636 26.712 414.544 26.434 414.219 26.156L413.385 25.4145C413.154 25.183 412.968 25.09 412.597 25.09H409.771C409.493 25.09 409.354 24.951 409.354 24.673V23.005C409.354 22.727 409.493 22.588 409.771 22.588H424.321C424.598 22.588 424.737 22.727 424.737 23.005V24.673C424.737 24.951 424.598 25.09 424.321 25.09H421.54C421.17 25.09 421.03 25.1365 420.752 25.368L419.826 26.2025C419.502 26.5265 419.455 26.712 419.455 27.0365V49.926C419.455 50.2505 419.594 50.482 419.918 50.8065Z" fill="#FFED42"/>
<path d="M505.208 54.3743H503.309C502.938 54.3743 502.799 54.2818 502.66 53.9108L490.983 25.6462C490.798 25.1827 490.612 25.0902 490.195 25.0902H488.76C488.481 25.0902 488.342 24.9512 488.342 24.6732V23.0052C488.342 22.7272 488.481 22.5882 488.76 22.5882H501.594C501.872 22.5882 502.011 22.7272 502.011 23.0052V24.6732C502.011 24.9512 501.872 25.0902 501.594 25.0902H498.444C498.026 25.0902 497.887 25.1368 497.609 25.4148L496.961 26.0168C496.729 26.2488 496.729 26.3413 496.868 26.7123L504.93 46.4508C505.023 46.7288 505.347 46.7753 505.486 46.4508L513.317 26.8973C513.456 26.5268 513.502 26.3878 513.271 26.1098L512.622 25.4148C512.391 25.1368 512.112 25.0902 511.741 25.0902H509.518C509.24 25.0902 509.1 24.9512 509.1 24.6732V23.0052C509.1 22.7272 509.24 22.5882 509.518 22.5882H519.479C519.757 22.5882 519.897 22.7272 519.897 23.0052V24.6732C519.897 24.9512 519.757 25.0902 519.479 25.0902H518.089C517.672 25.0902 517.394 25.2752 517.256 25.6462L505.811 53.9573C505.672 54.2818 505.532 54.3743 505.208 54.3743Z" fill="#FFED42"/>
<path d="M607.18 45.2464L606.207 54.8844C606.161 55.2549 606.022 55.3474 605.697 55.3474H604.076C603.798 55.3474 603.705 55.3014 603.567 55.0694L603.334 54.6524C603.196 54.4209 603.057 54.3744 602.779 54.3744H577.433C577.155 54.3744 577.016 54.2354 577.016 53.9574V52.2894C577.016 52.0114 577.155 51.8724 577.433 51.8724H580.26C580.63 51.8724 580.816 51.7794 581.047 51.5479L581.881 50.8064C582.206 50.5284 582.299 50.2504 582.299 49.9264V26.9899C582.299 26.7124 582.206 26.4339 581.881 26.1559L581.047 25.4149C580.816 25.1829 580.63 25.0904 580.26 25.0904H577.433C577.155 25.0904 577.016 24.9514 577.016 24.6734V23.0054C577.016 22.7274 577.155 22.5884 577.433 22.5884H601.111C601.435 22.5884 601.574 22.4954 601.713 22.2174L601.898 21.8934C601.991 21.7079 602.13 21.6149 602.362 21.6149H603.983C604.354 21.6149 604.493 21.7079 604.54 22.0784L605.235 29.9554C605.281 30.3729 605.095 30.4654 604.864 30.4654H602.825C602.454 30.4654 602.315 30.3729 602.269 29.9554L601.944 27.3609C601.898 26.8974 601.852 26.7124 601.389 26.3414L600.508 25.6464C600.092 25.3219 599.906 25.2754 599.211 25.2754H587.535C587.256 25.2754 587.117 25.4149 587.117 25.6924V36.8134C587.117 37.0914 587.256 37.2304 587.535 37.2304H594.994C595.458 37.2304 595.597 37.1374 595.875 36.8134L596.662 35.8864C596.894 35.6549 596.941 35.5159 596.941 35.0989V33.2919C596.941 33.0139 597.079 32.8749 597.357 32.8749H599.211C599.488 32.8749 599.628 33.0139 599.628 33.2919V43.8559C599.628 44.1344 599.488 44.2734 599.211 44.2734H597.357C597.079 44.2734 596.941 44.1344 596.941 43.8559V42.0029C596.941 41.6319 596.848 41.4934 596.616 41.2154L595.875 40.3809C595.551 40.0104 595.365 39.9179 594.856 39.9179H587.535C587.256 39.9179 587.117 40.0569 587.117 40.3349V49.5094C587.117 50.0654 587.256 50.2969 587.581 50.6214L588.322 51.2699C588.646 51.5944 588.878 51.6869 589.342 51.6869H600.601C601.389 51.6869 601.713 51.5479 602.13 51.2234L602.825 50.6674C603.242 50.3434 603.427 50.1114 603.474 49.6484L604.076 45.3389C604.122 44.9219 604.262 44.7829 604.678 44.7829H606.763C607.087 44.7829 607.227 44.9219 607.18 45.2464Z" fill="#FFED42"/>
</svg>
