<svg width="150" height="160" viewBox="0 0 150 160" fill="none" xmlns="http://www.w3.org/2000/svg">
<path d="M148.398 11.3418C147.718 11.5291 146.679 11.1542 145.999 11.3418C144.577 11.732 143.163 16.2432 141.201 17.7262C134.551 22.7526 126.417 31.9626 120.408 35.3032C119.149 36.0055 117.719 38.5031 116.414 39.2914C116.235 39.4008 115.844 39.1743 115.61 39.2914C115.266 39.4711 115.102 40.0096 114.812 40.0954C113.757 40.3999 109.077 36.6533 108.819 35.7012C108.577 34.8269 109.053 33.3753 108.819 32.5089C108.756 32.3059 107.053 30.5655 106.42 29.3089C106.24 28.9653 105.701 28.8014 105.615 28.5128C105.388 27.7323 107.842 23.5722 108.819 22.9243C108.428 20.6687 109.358 16.891 108.819 14.9319C108.709 14.5495 106.17 11.732 105.615 10.9437C105.271 10.4519 103.841 8.30553 104.021 8.14948C104.755 7.49378 106.498 8.4461 107.217 9.34361C107.944 10.2567 111.905 15.3457 112.015 15.7359C112.898 18.8422 115.531 22.2062 116.008 24.5166C116.211 25.4687 115.774 26.8581 116.008 27.7167C116.125 28.1147 117.305 28.7624 117.61 29.3089C118.008 30.027 117.211 31.3928 120.408 30.5108C121.353 30.2455 121.423 28.9187 121.611 28.5128C121.767 28.1692 122.345 27.9975 122.408 27.7167C122.549 27.1 122.541 25.141 122.408 24.5166C122.345 24.2201 120.908 22.4716 120.806 22.1204C120.626 21.4413 120.994 20.4033 120.806 19.7244C120.712 19.3808 119.306 17.6794 119.212 17.3281C118.712 15.4939 119.001 14.4482 117.61 12.5358C116.305 10.7486 112.929 8.58657 112.015 6.94738C111.804 6.57284 112.163 5.90145 112.015 5.75325C111.866 5.5972 111.194 5.964 110.811 5.75325C110.265 5.44115 109.624 4.27033 109.217 4.1534C108.717 4.01271 108.092 4.3016 107.616 4.1534C107.287 4.04399 107.108 3.40389 106.819 3.35724C105.951 3.20098 103.685 3.20098 102.817 3.35724C102.528 3.40389 102.349 4.04399 102.02 4.1534C101.544 4.3016 100.919 4.01271 100.419 4.1534C99.1138 4.52794 98.09 7.90744 97.2223 8.14948C96.6676 8.29768 94.6751 8.2664 94.0189 8.14948C93.7139 8.08692 93.5186 7.38458 93.2218 7.34546C91.9088 7.18156 86.6811 7.59534 86.4231 7.34546C86.3137 7.23627 85.9936 5.12904 85.6261 4.55126C84.9072 3.43515 84.2273 3.63033 83.6256 3.35724C83.2818 3.19313 83.1097 2.61567 82.8285 2.55334C82.1177 2.39718 78.6635 2.38159 78.0305 2.55334C77.085 2.81073 74.405 6.22946 72.8341 5.75325C73.2873 8.2821 69.7865 8.65664 68.8334 10.1398C67.9111 11.5836 62.5896 19.8413 62.4332 20.5283C62.0112 22.3937 63.4882 24.3683 59.636 23.3223C59.5185 23.2912 59.3387 23.1116 59.1358 22.8542C58.573 22.1672 57.8152 20.9261 57.6355 20.5283C56.8929 18.8422 53.7672 12.9885 53.6421 12.5358C53.2907 11.2793 53.9862 9.00024 53.6421 7.74355C53.5406 7.39233 48.7975 2.65468 48.4457 2.55334C47.9145 2.4048 47.2422 2.74055 46.8439 2.55334C46.6955 2.48294 46.4608 2.32689 46.1872 2.13956C45.5233 1.67119 44.6481 1.00014 44.445 0.961016C42.8662 0.617422 40.5142 1.25753 38.8499 0.961016C38.553 0.906311 38.373 0.258453 38.0448 0.157108C36.857 -0.201961 35.4117 1.29665 31.653 0.157108C30.0901 -0.311262 29.6681 0.820658 29.2537 0.961016C28.7771 1.10933 28.1522 0.812594 27.652 0.961016C27.4177 1.02335 25.6045 2.62341 24.073 3.97371C23.19 4.76203 22.393 5.47231 22.0568 5.75325C21.932 5.85481 21.4863 5.60493 21.2521 5.75325C19.5954 6.79918 18.9235 9.92901 19.2592 11.7396C19.3142 12.0364 19.9704 12.2158 20.0563 12.5358C20.2128 13.1291 19.8923 14.37 20.0563 14.5339C20.2047 14.6821 20.8771 14.3232 21.2521 14.5339C22.0492 14.9789 22.8383 16.4382 23.6509 16.93L33.2471 16.134C35.4895 14.3778 35.7474 12.1924 35.2473 9.34361C35.2083 9.10943 33.9892 8.52402 34.4505 6.94738C35.0989 4.71505 37.0214 6.50245 37.2477 6.54941C38.4042 6.79918 40.0922 6.29975 41.2487 6.54941C41.5147 6.60401 45.695 8.72692 46.0469 8.94552C48.7738 10.6939 47.5941 11.9816 48.0393 14.1358C48.1018 14.4403 48.7506 14.6121 48.8444 14.9319C50.9621 22.378 55.1115 27.1313 60.1514 31.5489C62.4882 33.5937 65.0198 35.5686 67.6376 37.6993C68.3408 38.2767 70.0131 39.8301 70.4351 40.4935C70.5367 40.6573 70.3181 41.0398 70.4351 41.2895C70.5992 41.6485 71.2322 41.8515 71.2322 42.0934C71.2322 42.3589 70.482 42.5851 70.4351 42.8896C69.8961 46.0973 71.5371 48.9775 72.0293 51.678C72.4356 53.8792 71.4902 54.6362 71.2322 55.6666C70.0288 60.4587 68.4972 64.7906 67.2312 69.2472C66.2 72.8921 64.1448 76.2248 63.2382 79.628C62.7773 81.3607 62.8086 83.8581 62.4332 85.2163C62.316 85.6533 60.9722 86.3636 60.839 86.8163C60.6673 87.3939 61.0111 88.6428 60.839 88.8142C60.6906 88.9627 59.3857 88.666 59.2372 88.8142C59.0888 88.9627 59.3857 90.2583 59.2372 90.4143C59.0888 90.5628 58.417 90.2038 58.0418 90.4143C55.1973 91.9909 52.3372 96.3228 50.0398 97.5949C48.641 98.3754 45.9919 101.81 44.445 103.191C35.0287 111.566 25.3 119.886 15.6569 127.153C13.7504 128.581 12.9765 131.336 10.8589 132.741C7.5771 134.919 4.2248 136.815 1.66186 140.327C1.54435 140.492 1.79464 140.936 1.66186 141.124C1.2944 141.67 0.17686 142.349 0.0677565 142.724C-0.385567 144.23 1.50541 147.859 3.66194 147.118C5.32675 145.9 6.86596 144.386 8.46007 143.122C12.5393 139.898 16.6494 135.894 20.455 132.741C25.8548 128.269 32.7313 120.073 37.2477 117.568C40.5688 115.718 43.9448 111.55 46.0469 110.38C47.9615 109.31 51.5012 104.604 53.6421 102.793C54.3922 102.153 55.9711 100.741 56.8384 101.591C57.4633 102.2 55.5411 104.526 55.2363 105.189C54.4785 106.836 53.2983 109.888 52.8374 111.574C52.6578 112.261 53.0248 113.291 52.8374 113.97C52.5012 115.219 50.6728 117.99 50.4385 119.566C50.1337 121.666 50.1337 127.847 50.4385 129.947C50.4851 130.243 51.1731 130.431 51.2432 130.743C51.5245 132.031 51.22 133.365 52.0403 134.739C52.2669 135.114 54.6502 137.479 54.838 137.533C56.3538 137.947 60.0343 136.831 60.839 139.531C61.0894 140.382 60.425 141.857 60.0343 142.724C59.6829 143.52 58.0495 146.174 57.6355 146.72C56.6587 148.015 53.7985 149.327 53.6421 149.912C53.4548 150.583 53.8062 151.598 53.6421 152.308C53.5643 152.628 52.8843 152.815 52.8374 153.104C52.4856 155.477 52.689 157.819 54.838 159.099C55.0096 159.2 55.3926 158.982 55.6426 159.099C55.9864 159.255 56.1584 159.832 56.4397 159.895C57.0494 160.035 59.0262 160.035 59.636 159.895C59.9248 159.832 60.0889 159.255 60.4406 159.099C60.6829 158.982 61.0657 159.2 61.2377 159.099C62.0112 158.638 62.8086 157.342 63.6366 156.703C64.7309 155.844 67.6456 153.143 68.4347 152.706C68.8097 152.496 69.4817 152.855 69.6302 152.706C69.7789 152.558 69.4195 151.887 69.6302 151.512C70.154 150.576 73.3811 147.625 73.6311 146.72C73.9749 145.471 73.3266 143.278 73.6311 141.927C73.7017 141.608 74.7173 141.381 74.4282 140.327C74.3423 140.008 73.7017 139.836 73.6311 139.531C73.4201 138.571 73.4201 133.295 73.6311 132.343C73.6937 132.054 74.2721 131.89 74.4282 131.539C74.5453 131.297 74.3267 130.915 74.4282 130.743C74.7094 130.275 78.5307 126.443 78.8279 126.349C79.9607 126.013 81.0314 126.606 81.6251 127.551C83.188 130.017 86.2515 132.187 87.2283 133.935C87.4389 134.318 87.0795 134.989 87.2283 135.137C87.3767 135.285 88.0486 134.926 88.4236 135.137C88.9784 135.442 89.6114 136.62 90.0255 136.737C91.9401 137.284 92.1744 135.769 93.2218 135.137C96.7302 133.03 97.6444 132.827 100.02 129.151C101.223 127.285 101.684 125.599 104.419 126.349C105.271 126.583 107.959 130.446 109.217 131.141C109.592 131.352 110.265 130.993 110.413 131.141C110.694 131.422 110.452 136.831 111.218 138.728C112.96 143.114 119.665 145.284 121.611 149.912C121.791 150.341 121.47 150.974 121.611 151.114C121.751 151.247 122.377 150.934 122.806 151.114C123.142 151.247 123.307 151.817 123.611 151.91C124.244 152.097 125.268 151.762 126.01 151.91C126.307 151.973 126.487 152.62 126.807 152.706C127.597 152.925 129.175 151.606 130.003 151.114C130.207 150.989 130.621 151.223 130.808 151.114C131.144 150.895 132.762 149.257 132.801 149.116C132.996 148.429 132.973 144.308 132.801 143.52C132.746 143.254 130.597 139.016 130.402 138.728C129.152 136.839 124.94 134.684 125.604 132.343C125.713 131.976 129.089 128.526 129.605 127.551C128.995 123.367 130.433 117.014 129.605 113.174C129.425 112.323 127.69 109.014 127.206 107.585C124.799 100.483 122.885 93.2711 120.806 86.0202C119.509 81.4776 117.446 76.9195 116.008 72.4393C114.351 67.2412 111.952 61.8011 110.413 56.4625C110.288 56.0177 108.936 55.3074 108.819 54.8704C107.936 51.678 109.303 52.4742 110.014 52.0761C110.757 51.6547 111.874 49.836 112.414 49.68C112.898 49.5395 113.508 49.8128 114.015 49.68C114.336 49.594 114.547 48.8761 114.812 48.8761C115.07 48.8761 118.329 51.9355 118.813 52.0761C119.314 52.2166 119.931 51.92 120.408 52.0761C120.743 52.1775 120.916 52.8175 121.212 52.8723C122.306 53.0674 125.713 53.0674 126.807 52.8723C127.097 52.8175 127.276 52.1775 127.604 52.0761C128.081 51.92 128.706 52.2166 129.206 52.0761C129.613 51.9592 134.653 46.839 135.2 46.0818C137.216 43.3111 136.763 40.9617 137.599 38.0973C138.716 34.2807 140.482 35.0455 141.6 33.305C141.819 32.9616 142.186 31.2368 142.397 30.9088C143.21 29.6836 146.992 26.8658 147.195 26.1167C147.992 23.2287 145.679 21.1837 149.195 18.5301C149.375 18.3975 149.836 18.655 150 18.5301M30.4495 13.3397C30.2385 13.7222 30.598 14.3856 30.4495 14.5339C30.2931 14.6901 26.5813 14.6821 26.0502 14.5339C24.2057 14.0267 23.7059 10.7016 24.0574 8.94552C25.917 8.56313 28.1129 7.61093 30.0508 8.14948C30.1839 8.18064 32.0124 10.0072 32.0513 10.1398C32.6217 12.0754 30.9807 12.364 30.4495 13.3397ZM104.818 18.5301C104.92 18.655 104.92 21.5975 104.818 21.7223C103.716 23.0337 103.716 17.2187 104.818 18.5301ZM102.02 32.9069C102.943 33.1724 104.31 36.3491 104.021 37.3011C103.927 37.6056 103.357 37.7617 103.216 38.0973C103.036 38.5265 103.357 39.1588 103.216 39.2914C103.114 39.393 101.192 39.19 100.817 40.4935C100.434 41.8281 102.357 44.0057 101.622 44.8877C101.544 44.9735 99.2073 44.4349 100.02 46.0818C101.7 49.4926 103.732 47.1902 104.021 44.0838C106.772 45.1141 105.185 46.753 104.818 48.8761C103.841 49.3366 102.646 47.8147 102.419 48.0799C102.302 48.2205 102.794 50.7885 101.216 51.2722C100.091 51.6234 98.8948 49.5161 98.0195 48.8761C97.8084 48.7278 95.769 47.3229 95.6206 47.2837C95.0425 47.112 93.7921 47.4556 93.6201 47.2837C93.4404 47.0964 93.5263 42.9598 93.6201 42.0934C93.659 41.797 94.3859 41.5863 94.4252 41.2895C94.8861 37.1528 94.1672 37.4026 96.0193 33.305C96.4101 32.4386 95.9411 29.6679 98.8166 30.5108C100.129 30.8932 99.9184 32.8132 100.02 32.9069C100.208 33.0787 101.442 32.7353 102.02 32.9069ZM100.02 80.0259C99.7856 79.7996 97.5661 79.9713 96.824 80.4239C96.3788 80.6971 95.8472 81.6259 95.6206 81.6259C95.3081 81.6259 94.4641 80.1508 94.0189 80.0259C92.4011 79.581 90.9239 83.9361 88.4236 83.226C87.9784 83.0933 87.2671 81.743 86.8215 81.6259C83.2273 80.6346 82.2974 82.9216 81.2267 83.226C80.4767 83.4289 76.7649 83.7099 77.6321 82.024C78.7027 81.5089 78.0618 80.2913 78.8279 80.0259C80.8516 79.3312 82.1409 77.021 82.8285 76.8337C85.1182 76.2014 89.721 77.2786 92.4246 76.8337C93.6438 76.6307 95.5974 76.2717 97.2223 76.0376C99.2229 75.7409 103.419 75.858 104.021 78.0279C104.685 80.4474 103.755 83.1168 101.622 84.4201C100.88 84.8729 98.6994 85.0602 98.4181 84.8182C98.2305 84.6543 100.934 80.9079 100.02 80.0259ZM74.4282 76.0376C74.194 76.2717 71.2556 76.4668 72.0293 74.8355C73.2873 72.1975 75.0379 70.0277 76.8274 67.6472C76.9602 67.4754 76.7022 67.0227 76.8274 66.851C77.5463 65.891 78.937 64.6033 80.031 64.0569L79.2262 67.6472C77.9759 68.6774 77.6321 71.2454 76.8274 72.4393C76.2723 73.2746 74.8658 74.055 74.4282 74.8355C74.2172 75.2102 74.5766 75.8814 74.4282 76.0376ZM82.4301 52.4742C82.7114 53.559 81.3206 53.8166 81.6251 54.8704C81.6801 55.0575 84.2273 57.6566 84.4227 57.6645C84.5555 57.6722 85.1572 56.4625 86.8215 56.8683C88.0876 57.1728 88.0876 58.9601 86.8215 59.2646C85.1728 59.6625 84.6261 58.4918 84.4227 58.4605C83.4146 58.328 80.2499 58.6791 80.031 58.4605C79.3434 57.7973 81.516 54.3552 80.8281 53.6684C80.4999 53.3483 77.5463 53.6916 78.4291 50.476L81.6251 49.68C81.0234 51.1396 82.305 52.0136 82.4301 52.4742ZM98.4181 67.6472C98.5197 67.9595 99.098 68.1155 99.2229 68.4432C99.559 69.3641 100.325 70.8707 98.8166 71.2454C97.8477 71.4793 96.2536 71.417 95.6206 70.4414C95.0658 69.5827 95.2768 68.9038 95.2218 68.8491C94.4015 68.053 90.1662 72.6579 89.6271 72.0414C88.9784 71.3154 89.9164 69.5516 90.8225 68.8491C91.7837 68.0921 95.7534 65.0089 96.4177 64.8528C96.9022 64.7359 99.1138 64.7593 99.2229 64.8528C99.4418 65.0402 97.9805 66.25 98.4181 67.6472ZM88.8221 60.0607C88.1814 59.5222 89.8145 58.7573 90.4241 59.2646C91.0648 59.7953 89.4317 60.5679 88.8221 60.0607ZM89.6271 55.2683C89.4707 55.4245 85.6963 55.9005 86.4231 54.0665C87.5171 51.3425 90.6428 54.2538 89.6271 55.2683ZM84.0243 64.0569C84.9854 64.4159 86.6811 62.6986 87.2283 63.2528C88.9315 65.0013 83.1334 69.372 84.0243 64.0569ZM83.2273 73.6413C82.6881 74.2814 81.9224 72.65 82.4301 72.0414C82.9613 71.4014 83.7351 73.0328 83.2273 73.6413ZM97.6211 19.7244C97.9023 18.7954 97.3163 17.7575 98.8166 16.93C99.8952 18.1555 98.4258 20.3877 100.02 21.3244C99.3404 22.5028 100.958 24.7976 100.817 24.9146C100.723 25.0005 98.5509 25.2345 98.4181 24.5166C98.0351 22.4327 98.2228 23.8921 97.2223 23.3223C94.3313 21.6755 97.3788 20.5283 97.6211 19.7244ZM89.6271 14.9319C89.8614 14.0811 89.3692 11.5991 89.6271 11.3418C89.7832 11.1855 93.4949 11.1933 94.0189 11.3418C95.0189 11.6148 95.144 13.5661 96.0193 14.1358L93.6201 18.1321C93.8937 20.2628 94.8235 22.0737 94.4252 24.5166C93.2763 24.9927 92.3541 28.0757 91.6196 28.1147C91.0023 28.1459 90.3303 26.9595 90.8225 25.7186C91.3461 24.3917 93.0497 22.94 92.823 22.1204C92.7528 21.8786 89.7442 18.8892 89.2207 18.5301C89.1193 18.4598 87.2283 18.1243 87.2283 17.3281C87.2283 16.9613 89.4786 15.4783 89.6271 14.9319ZM92.026 33.7031C90.9239 35.0143 90.9239 29.1995 92.026 30.5108C92.1275 30.628 92.1275 33.5783 92.026 33.7031ZM86.8215 20.9261C87.0795 20.9261 87.2828 21.5975 87.6266 21.7223C88.0719 21.8862 88.6893 21.5897 88.8221 21.7223C88.9083 21.8083 88.9083 24.0325 88.8221 24.1185C88.6893 24.2512 88.0719 23.9546 87.6266 24.1185C87.2828 24.2433 87.0795 24.9146 86.8215 24.9146C85.3213 24.9146 85.3213 20.9261 86.8215 20.9261ZM80.8281 22.5185C80.6796 22.339 80.625 18.9749 81.2267 19.3263C83.829 20.8405 81.1561 22.9321 80.8281 22.5185ZM79.6246 7.34546C79.8826 7.34546 80.0858 8.02459 80.4296 8.14948C80.883 8.30553 81.4691 8.01685 81.6251 8.14948C82.4847 8.85966 80.6483 8.86739 80.4296 8.94552C80.0858 9.06256 79.8826 9.74169 79.6246 9.74169C78.4448 9.74169 78.4448 7.34546 79.6246 7.34546ZM78.8279 38.4954C78.992 38.3783 79.4292 38.6281 79.6246 38.4954C82.5084 36.6612 79.4685 35.7637 79.2262 34.9051C78.2338 31.2834 81.6251 28.0991 85.2278 28.9106C85.6342 29.9331 87.1501 29.6289 87.2283 29.7068C87.3924 29.8863 87.0639 31.1195 87.2283 31.7049C87.3141 32.0326 87.9784 32.2124 88.025 32.5089C88.2439 33.992 87.8296 35.787 88.025 37.3011C88.0642 37.59 88.7987 37.8086 88.8221 38.0973C89.0331 40.3764 88.3298 44.2867 88.8221 46.0818C88.9315 46.4644 91.2212 47.9473 91.6196 48.0799C92.1824 48.2672 93.4484 47.9003 93.6201 48.0799C93.7685 48.2281 93.4091 48.8994 93.6201 49.2819C94.1436 50.2107 95.4721 50.5151 96.4177 51.2722C98.9805 53.3093 97.871 56.1972 94.4252 53.2703C93.2763 52.2947 88.4626 48.6496 87.6266 48.8761C87.3061 48.9698 87.1345 49.6097 86.8215 49.68C85.4231 49.9923 83.0945 49.5082 82.0238 48.8761C81.0234 48.2828 80.0858 46.1365 78.8279 46.48C78.4525 46.5893 76.4836 49.274 75.2333 48.0799C74.5766 47.4556 75.9833 46.2458 76.0303 46.0818C76.4756 44.591 74.7876 43.5919 75.2333 42.0934C75.3034 41.8437 78.3277 38.8467 78.8279 38.4954ZM65.6371 31.3069C65.317 31.6971 64.7854 30.6667 64.4337 30.5108C64.0117 30.3156 61.9097 30.5264 63.2382 28.9106C63.5507 28.5285 64.0899 29.5586 64.4337 29.7068C64.8557 29.8944 65.4967 29.5663 65.6371 29.7068C65.6921 29.7694 65.6921 31.2368 65.6371 31.3069ZM71.2322 36.0992C70.5054 35.5139 69.0288 35.4592 68.8334 34.9051C68.6144 34.2806 67.9501 32.9772 68.0363 32.9069C68.0909 32.8522 69.5755 32.8522 69.6302 32.9069C69.7865 33.0552 69.474 34.2885 69.6302 34.4992C69.7946 34.7099 72.0136 33.82 71.2322 36.0992ZM67.2312 25.3205C67.7001 24.1264 69.1066 23.0726 69.6302 22.1204C70.9899 19.6931 72.9748 15.6189 73.6311 13.3397C73.725 13.0042 75.8194 11.092 76.0303 11.3418C77.1869 12.692 74.5376 14.5417 74.4282 14.9319C74.2172 15.7359 74.3034 18.7174 74.4282 19.7244C74.4675 20.0209 75.1783 20.2159 75.2333 20.5283C75.4049 21.5039 75.0299 22.7916 75.2333 23.7204C75.2878 23.9936 76.7649 25.8355 76.8274 26.1167C77.3898 28.6298 76.2333 28.7079 75.2333 30.1127C75.1939 30.1596 75.2878 30.5888 74.8345 31.3069C74.3034 32.1342 73.303 32.3685 72.4356 32.103C71.4746 31.8221 66.8951 26.4912 67.2312 25.3205ZM73.6311 59.2646C74.8345 59.7016 75.4675 58.4605 75.6316 58.4605C76.7099 58.4684 77.2491 62.0353 76.8274 62.4568C76.679 62.6051 75.3816 62.3084 75.2333 62.4568C75.0848 62.5973 73.6861 64.931 73.2327 65.649C72.4746 66.851 73.467 68.2247 72.0293 68.0452C71.2478 64.5563 74.1157 62.5114 73.6311 59.2646ZM70.8336 86.4182L71.2322 92.0066L68.0363 90.0087L70.8336 86.4182ZM72.0293 117.568L70.4351 112.378C70.8102 111.675 72.3811 110.684 72.8341 111.176C72.9591 111.308 72.8341 113.962 72.8341 114.774C72.8265 115.726 73.4201 117.755 72.0293 117.568ZM65.2388 92.8027L66.4342 94.8008C66.8718 96.5726 65.7153 97.5794 65.6371 99.195C64.4493 98.7581 63.7694 99.999 63.6366 99.9912C63.4962 99.9912 61.6755 98.1336 61.6365 98.0009C60.9798 95.7999 64.2383 94.2311 65.2388 92.8027ZM60.839 123.953C60.6437 123.757 61.6597 121.525 58.8389 122.36C57.3932 122.79 57.2524 127.738 57.6355 129.151C57.7603 129.588 59.1121 130.298 59.2372 130.743C59.4875 131.617 59.0419 134.388 58.0418 134.341C57.8697 134.333 55.3457 132.733 55.2363 132.343C55.0565 131.664 55.424 130.626 55.2363 129.947C55.1584 129.627 54.5254 129.463 54.4392 129.151C54.1816 128.167 53.6421 126.887 53.6421 126.755C53.6421 126.482 54.3922 126.255 54.4392 125.951C54.7596 124.046 54.0565 121.346 54.4392 119.566C54.5017 119.293 55.9787 117.435 56.0414 117.17C56.2368 116.273 55.799 113.837 56.0414 113.572C56.4477 113.127 58.2604 114.11 58.4402 114.774C58.6199 115.461 58.2448 116.507 58.4402 117.17C58.5261 117.467 59.0968 117.631 59.2372 117.966C59.628 118.895 58.5027 119.004 60.839 119.566C61.9097 119.816 62.8945 119.964 63.2382 118.762C63.6991 117.115 61.4877 115.336 60.839 113.97C61.1832 111.917 60.3549 108.577 60.839 106.781C60.9879 106.243 63.4649 104.143 64.0354 104.783C64.3321 105.119 63.84 110.216 64.0354 111.574C64.1761 112.55 65.223 115.75 65.6371 117.17C65.7309 117.49 66.3639 117.662 66.4342 117.966C66.8562 119.769 66.0747 120.198 65.6371 121.158C65.5199 121.408 65.739 121.791 65.6371 121.962C64.8637 123.25 61.8159 124.928 60.839 123.953ZM69.6302 142.724C69.4817 143.286 67.3877 144.558 67.2312 145.12C67.0439 145.799 67.419 146.837 67.2312 147.516C67.1454 147.844 65.6058 150.209 65.2388 150.31C64.7153 150.451 61.0035 150.459 60.839 150.31C60.1595 149.701 62.9021 146.759 63.2382 145.916C63.5118 145.229 64.7931 141.381 64.8324 141.124C65.1216 139.5 64.4887 132.296 64.8324 131.945C64.9964 131.781 66.2388 132.093 66.8329 131.945C66.997 131.898 67.0828 131.578 67.2312 131.539C68.2939 131.305 69.2863 131.118 69.6302 132.343C70.1071 134.013 68.7865 135.434 67.2312 135.137C67.6766 136.331 66.4342 136.987 66.4342 137.135C66.4735 138.509 69.5053 138.205 69.6302 138.329C69.7865 138.486 69.7789 142.201 69.6302 142.724ZM76.0303 125.553C73.9203 126.536 69.2085 121.377 70.4351 119.964C70.9118 119.41 72.7481 122.735 74.0299 122.36C75.5457 121.908 74.8426 119.777 75.6316 119.16C77.9759 120.924 76.4756 123.36 76.0303 125.553ZM85.6261 127.153C84.7508 126.278 86.3529 124.679 87.2283 125.553C88.1032 126.427 86.5014 128.027 85.6261 127.153ZM95.6206 129.549C94.8705 129.76 92.0729 127.371 91.2212 126.755L96.824 126.349C97.2929 126.801 96.5974 129.268 95.6206 129.549ZM102.419 116.366L102.02 120.76C101.52 120.066 100.379 119.418 100.02 118.762C99.809 118.388 100.169 117.717 100.02 117.568C99.9341 117.482 97.7069 117.482 97.6211 117.568C97.4726 117.717 97.7695 119.012 97.6211 119.16C97.3945 119.387 94.2298 119.012 93.2218 119.16C92.9246 119.207 92.7372 119.886 92.4246 119.964C91.182 120.253 86.9936 118.887 85.2278 118.364C83.2818 117.787 85.251 116.241 80.4296 117.568C78.5307 118.091 78.562 115.297 78.4291 115.172C78.2807 115.024 76.9758 115.32 76.8274 115.172C76.0303 114.368 77.3429 111.285 79.6246 111.972C82.3988 112.815 83.2586 112.479 86.0248 112.776C86.3137 112.807 86.5403 113.548 86.8215 113.572C89.5176 113.79 103.38 113.002 104.021 113.572C104.662 114.142 103.083 115.921 102.419 116.366ZM102.419 104.783C102.278 104.924 102.599 105.556 102.419 105.985C102.083 106.789 101.106 108.124 100.419 108.78C99.8246 108.467 99.6842 106.376 98.8166 106.384C98.6135 106.384 96.8943 108.85 96.0193 107.984C95.824 107.78 96.6912 104.448 94.0189 103.191C92.4323 102.442 92.9481 104.955 92.026 105.189V108.78C91.0885 108.304 89.2676 106.781 88.8221 105.985C88.6109 105.611 88.9704 104.94 88.8221 104.783C88.713 104.674 85.7355 104.674 85.6261 104.783C85.3838 105.025 85.8684 107.741 85.6261 107.984C85.4701 108.14 81.9689 108.093 81.2267 107.984C80.9299 107.937 80.7422 107.258 80.4296 107.18C78.8042 106.797 75.1939 108.733 74.4282 107.984C73.8734 107.429 75.5927 105.744 75.2333 104.783C76.3271 104.955 77.89 104.526 78.8279 104.783C79.57 104.994 80.0858 107.125 82.8285 106.384C83.3677 106.235 85.4701 103.761 84.829 103.191C84.5086 102.91 81.461 103.41 80.4296 103.191C79.0309 102.887 76.7961 99.9444 74.8345 102.387L71.2322 101.989C72.631 100.873 71.1152 100.085 73.2327 99.9912C76.1395 99.8663 79.9841 99.7336 82.8285 99.9912C88.9472 100.553 93.8391 102.145 101.216 101.591C101.505 101.568 101.731 100.818 102.02 100.795C104.076 100.6 106.326 100.928 108.413 100.795C109.03 101.435 109.522 101.38 109.217 102.387C109.022 103.035 108.225 104.619 107.616 104.783C106.521 105.088 102.739 104.463 102.419 104.783ZM75.2333 93.6067C76.046 92.7871 78.4448 95.1833 77.6321 96.0028C76.8118 96.8145 74.4125 94.4184 75.2333 93.6067ZM110.413 127.153C107.241 125.116 105.842 123.445 106.42 119.566C106.459 119.262 107.17 119.067 107.217 118.762C107.522 116.85 106.303 113.494 109.616 115.57C110.64 116.21 110.64 118.309 110.413 119.566C110.1 121.307 109.335 122.274 110.811 124.756L110.413 127.153ZM120.806 113.572C122.588 114.204 122.713 116.624 124.408 117.568C124.784 117.779 125.456 117.42 125.604 117.568C125.745 117.708 125.424 118.333 125.604 118.762C126.034 119.785 127.409 120.612 125.604 121.962L124.807 126.349C124.643 124.694 125.041 122.759 124.807 121.158C124.768 120.87 124.096 120.682 124.01 120.362C123.846 119.769 124.174 118.528 124.01 118.364C123.862 118.216 122.556 118.512 122.408 118.364C122.259 118.216 122.556 116.92 122.408 116.764C121.994 116.358 120.017 117.943 120.806 113.572ZM119.61 101.591C118.829 101.537 116.993 97.517 117.61 96.799C118.626 95.6283 119.681 97.9385 120.009 98.7969C120.525 100.147 121.087 100.576 119.61 101.591ZM117.61 91.2105C118.126 90.5704 120.048 93.5676 119.212 94.4028C117.61 96.0028 117.047 91.913 117.61 91.2105ZM116.813 110.38C116.891 110.473 116.891 112.682 116.813 112.776C115.758 114.032 115.758 109.123 116.813 110.38ZM114.414 132.741C115.555 131.555 118.477 135.106 119.212 134.341C119.446 134.091 119.016 131.633 119.212 130.743C119.259 130.517 121.048 128.604 118.813 127.949C117.618 127.598 116.43 130.04 116.008 129.549C116.532 127.863 114.789 126.622 115.211 125.155C115.547 123.992 117.712 123.695 118.813 123.953C119.103 124.023 119.267 124.608 119.61 124.756C120.04 124.936 120.673 124.616 120.806 124.756C121.048 124.991 120.658 129.533 120.806 130.743C120.884 131.321 122.017 132.515 121.611 134.739C121.564 134.973 120.353 135.543 120.806 137.135C121.197 138.493 122.885 138.127 123.611 138.329C123.853 138.4 126.776 141.373 127.206 141.927C127.792 142.685 128.573 144.16 128.003 144.722C127.183 145.541 125.354 143.949 125.205 143.926C123.932 143.691 121.283 144.441 120.806 142.724C120.626 142.045 120.994 141.007 120.806 140.327C120.704 139.953 119.337 137.869 118.813 137.533C118.634 137.424 118.227 137.658 118.008 137.533C117.375 137.182 116.188 136.175 115.61 135.933C115.18 135.754 114.555 136.074 114.414 135.933C114.297 135.824 114.305 132.858 114.414 132.741ZM113.617 98.399V114.368L111.218 111.574C111.319 110.809 111.062 109.872 111.218 109.178C111.28 108.897 112.757 107.055 112.812 106.781C113.117 105.392 112.781 102.856 112.812 101.193C112.835 100.217 112.218 98.2115 113.617 98.399ZM111.218 92.4046C111.148 92.6935 110.569 92.8574 110.413 93.2086C110.304 93.4505 110.515 93.833 110.413 94.0047C110.225 94.3169 108.561 95.9638 108.413 96.0028C106.819 96.4554 106.373 95.3003 106.014 95.1989C105.428 95.0429 104.185 95.3705 104.021 95.1989C103.958 95.1442 103.958 93.677 104.021 93.6067C104.115 93.4818 106.67 95.4642 107.217 93.2086C107.467 92.1627 106.014 91.7257 106.42 90.4143C105.99 89.9851 103.193 91.4915 102.817 92.0066C101.528 90.0087 99.4652 89.7745 99.2229 92.4046C99.0901 93.8409 101.176 96.9472 98.8166 97.5949C96.863 98.1414 95.7847 96.7911 95.6206 96.799C95.347 96.8224 95.1517 97.5014 94.8235 97.5949C93.1199 98.1023 92.2526 96.5961 91.2212 95.6047C91.9008 92.2642 91.987 95.9794 92.026 96.0028C92.8153 96.4242 96.3005 95.7062 97.6211 96.0028L98.4181 92.8027C96.3708 92.272 94.6358 91.6788 92.4246 92.0066C92.1198 92.0535 91.9244 92.7637 91.6196 92.8027C89.2833 93.1539 87.1889 92.0066 85.6261 94.8008C85.4151 95.1833 85.7745 95.8544 85.6261 96.0028C85.5089 96.112 82.5473 96.1042 82.4301 96.0028C81.4064 95.1208 87.0561 91.4134 83.6256 90.4143C82.0471 89.9462 81.4691 91.1637 81.2267 91.2105C80.1793 91.3978 74.4751 91.6633 75.2333 89.2125C75.9285 86.9411 79.0621 89.3764 80.4296 88.8142C87.7983 88.8223 96.4646 88.8689 104.419 88.0183C108.342 87.5968 112.367 87.3392 111.218 92.4046ZM111.218 81.6259C110.366 81.3606 109.327 80.3225 108.819 79.628C108.405 79.066 107.623 77.1223 107.217 76.4356C105.826 74.055 104.693 71.573 103.216 69.2472L104.818 68.0452C104.396 69.5984 105.826 69.9183 106.42 70.8394C107.569 72.65 107.975 75.0385 108.819 76.4356C109.71 77.9109 111.788 79.183 111.218 81.6259ZM110.413 66.851L111.218 71.2454C109.702 71.5496 110.96 69.7935 110.014 69.6453C108.287 69.372 108.225 67.6784 107.217 66.0471C106.662 65.1573 105.349 64.088 104.818 62.8549C104.576 61.8869 104.849 58.3903 106.014 58.4605C107.342 58.5465 108.811 65.6099 110.413 66.851ZM108.014 42.0934C108.014 42.0078 109.131 40.8914 109.217 40.8914C109.468 40.8914 109.671 41.5628 110.014 41.6876C110.468 41.8515 111.077 41.555 111.218 41.6876C113.14 43.6076 108.014 43.8184 108.014 42.0934ZM118.407 46.48L120.009 48.0799C118.329 48.2828 118.204 48.1658 118.407 46.48ZM136.005 33.7031C133.59 33.8983 128.581 39.9862 128.003 42.0934C127.823 42.7727 128.191 43.8028 128.003 44.4897C127.901 44.8721 125.393 46.48 125.205 46.48C124.932 46.48 122.744 44.4506 121.611 44.8877C121.283 42.5775 121.791 41.469 123.611 40.0954C127.151 37.4105 130.55 34.3354 134.004 31.3069C134.504 30.87 136.091 28.9263 136.802 29.7068C137.279 30.2299 135.419 32.5167 136.005 33.7031Z" fill="#1C1C1C"/>
</svg>
